STARTFONT 2.1
FONT -mplus-gothic-medium-R-normal--10-100-75-75-C-100-jisx0208.1990-0
SIZE 10 75 75
FONTBOUNDINGBOX 10 11 0 -2
STARTPROPERTIES 23
FONTNAME_REGISTRY ""
FOUNDRY "mplus"
FAMILY_NAME "gothic"
WEIGHT_NAME "medium"
SLANT "R"
SETWIDTH_NAME "normal"
ADD_STYLE_NAME ""
PIXEL_SIZE 10
POINT_SIZE 100
RESOLUTION_X 75
RESOLUTION_Y 75
SPACING "C"
AVERAGE_WIDTH 100
CHARSET_REGISTRY "ISO10646-1"
CHARSET_ENCODING "0"
COPYRIGHT "Copyright (C) 2002-2004 COZ"
WEIGHT 10
X_HEIGHT 11
QUAD_WIDTH 12
_XMBDFED_INFO "Edited with xmbdfed 4.5."
DEFAULT_CHAR 8481
FONT_DESCENT 2
FONT_ASCENT 9
ENDPROPERTIES
CHARS 7182
STARTCHAR 0x000A
ENCODING 10
SWIDTH 576 0
DWIDTH 6 0
BBX 6 13 0 -4
BITMAP
00
00
00
00
00
00
00
00
00
00
00
00
00
ENDCHAR
STARTCHAR char29
ENCODING 29
SWIDTH 233 0
DWIDTH 8 0
BBX 8 8 0 0
BITMAP
5D
22
55
49
49
55
22
5D
ENDCHAR
STARTCHAR char30
ENCODING 30
SWIDTH 233 0
DWIDTH 8 0
BBX 8 8 0 0
BITMAP
1C
22
55
41
55
49
22
1C
ENDCHAR
STARTCHAR char31
ENCODING 31
SWIDTH 233 0
DWIDTH 8 0
BBX 8 8 0 0
BITMAP
1C
22
55
41
49
55
22
1C
ENDCHAR
STARTCHAR char32
ENCODING 32
SWIDTH 233 0
DWIDTH 4 0
BBX 4 1 0 0
BITMAP
00
ENDCHAR
STARTCHAR char33
ENCODING 33
SWIDTH 233 0
DWIDTH 3 0
BBX 3 8 0 0
BITMAP
60
60
60
60
60
00
60
60
ENDCHAR
STARTCHAR char34
ENCODING 34
SWIDTH 545 0
DWIDTH 7 0
BBX 7 3 0 5
BITMAP
36
36
6C
ENDCHAR
STARTCHAR char35
ENCODING 35
SWIDTH 623 0
DWIDTH 8 0
BBX 8 8 0 0
BITMAP
36
36
7F
36
36
7F
36
36
ENDCHAR
STARTCHAR char36
ENCODING 36
SWIDTH 467 0
DWIDTH 7 0
BBX 7 9 0 -1
BITMAP
08
3C
6A
68
68
68
6A
3C
08
ENDCHAR
STARTCHAR char37
ENCODING 37
SWIDTH 623 0
DWIDTH 8 0
BBX 8 8 0 0
BITMAP
39
5B
56
6C
1B
35
6D
4E
ENDCHAR
STARTCHAR char38
ENCODING 38
SWIDTH 623 0
DWIDTH 8 0
BBX 8 8 0 0
BITMAP
38
6C
6C
38
68
67
66
3D
ENDCHAR
STARTCHAR char39
ENCODING 39
SWIDTH 311 0
DWIDTH 4 0
BBX 4 3 0 5
BITMAP
30
30
60
ENDCHAR
STARTCHAR char40
ENCODING 40
SWIDTH 389 0
DWIDTH 6 0
BBX 6 8 0 0
BITMAP
18
30
60
60
60
60
30
18
ENDCHAR
STARTCHAR char41
ENCODING 41
SWIDTH 389 0
DWIDTH 5 0
BBX 5 8 0 0
BITMAP
60
30
18
18
18
18
30
60
ENDCHAR
STARTCHAR char42
ENCODING 42
SWIDTH 545 0
DWIDTH 7 0
BBX 7 5 0 2
BITMAP
24
18
7E
18
24
ENDCHAR
STARTCHAR char43
ENCODING 43
SWIDTH 545 0
DWIDTH 7 0
BBX 7 5 0 2
BITMAP
18
18
7E
18
18
ENDCHAR
STARTCHAR char44
ENCODING 44
SWIDTH 389 0
DWIDTH 5 0
BBX 5 3 0 -1
BITMAP
30
30
60
ENDCHAR
STARTCHAR char45
ENCODING 45
SWIDTH 545 0
DWIDTH 7 0
BBX 7 1 0 4
BITMAP
7E
ENDCHAR
STARTCHAR char46
ENCODING 46
SWIDTH 389 0
DWIDTH 5 0
BBX 5 2 0 0
BITMAP
30
30
ENDCHAR
STARTCHAR char47
ENCODING 47
SWIDTH 545 0
DWIDTH 8 0
BBX 8 7 0 0
BITMAP
02
06
0C
18
30
60
40
ENDCHAR
STARTCHAR char48
ENCODING 48
SWIDTH 545 0
DWIDTH 6 0
BBX 6 8 0 0
BITMAP
78
CC
CC
CC
CC
CC
CC
78
ENDCHAR
STARTCHAR char49
ENCODING 49
SWIDTH 467 0
DWIDTH 6 0
BBX 6 8 0 0
BITMAP
70
30
30
30
30
30
30
78
ENDCHAR
STARTCHAR char50
ENCODING 50
SWIDTH 545 0
DWIDTH 6 0
BBX 6 8 0 0
BITMAP
78
CC
0C
18
30
60
C0
FC
ENDCHAR
STARTCHAR char51
ENCODING 51
SWIDTH 545 0
DWIDTH 6 0
BBX 6 8 0 0
BITMAP
78
CC
0C
18
0C
0C
CC
78
ENDCHAR
STARTCHAR char52
ENCODING 52
SWIDTH 545 0
DWIDTH 6 0
BBX 6 8 0 0
BITMAP
60
60
6C
CC
CC
FC
0C
0C
ENDCHAR
STARTCHAR char53
ENCODING 53
SWIDTH 545 0
DWIDTH 6 0
BBX 6 8 0 0
BITMAP
F8
C0
C0
F8
0C
0C
CC
78
ENDCHAR
STARTCHAR char54
ENCODING 54
SWIDTH 545 0
DWIDTH 6 0
BBX 6 8 0 0
BITMAP
78
C0
C0
F8
CC
CC
CC
78
ENDCHAR
STARTCHAR char55
ENCODING 55
SWIDTH 545 0
DWIDTH 6 0
BBX 6 8 0 0
BITMAP
FC
0C
18
18
18
30
30
30
ENDCHAR
STARTCHAR char56
ENCODING 56
SWIDTH 545 0
DWIDTH 6 0
BBX 6 8 0 0
BITMAP
78
CC
CC
78
CC
CC
CC
78
ENDCHAR
STARTCHAR char57
ENCODING 57
SWIDTH 545 0
DWIDTH 6 0
BBX 6 8 0 0
BITMAP
78
CC
CC
CC
7C
0C
0C
78
ENDCHAR
STARTCHAR char58
ENCODING 58
SWIDTH 233 0
DWIDTH 4 0
BBX 4 6 0 0
BITMAP
60
60
00
00
60
60
ENDCHAR
STARTCHAR char59
ENCODING 59
SWIDTH 311 0
DWIDTH 4 0
BBX 4 7 0 -1
BITMAP
30
30
00
00
30
30
60
ENDCHAR
STARTCHAR char60
ENCODING 60
SWIDTH 545 0
DWIDTH 7 0
BBX 7 6 0 1
BITMAP
06
1C
70
70
1C
06
ENDCHAR
STARTCHAR char61
ENCODING 61
SWIDTH 545 0
DWIDTH 7 0
BBX 7 4 0 2
BITMAP
7E
00
00
7E
ENDCHAR
STARTCHAR char62
ENCODING 62
SWIDTH 545 0
DWIDTH 8 0
BBX 8 6 0 1
BITMAP
60
38
0E
0E
38
60
ENDCHAR
STARTCHAR char63
ENCODING 63
SWIDTH 545 0
DWIDTH 7 0
BBX 7 8 0 0
BITMAP
3C
66
06
0C
18
18
00
18
ENDCHAR
STARTCHAR char64
ENCODING 64
SWIDTH 623 0
DWIDTH 8 0
BBX 8 8 0 0
BITMAP
3E
73
6F
7B
7B
6E
60
3E
ENDCHAR
STARTCHAR char65
ENCODING 65
SWIDTH 545 0
DWIDTH 7 0
BBX 7 8 0 0
BITMAP
3C
66
66
66
7E
66
66
66
ENDCHAR
STARTCHAR char66
ENCODING 66
SWIDTH 545 0
DWIDTH 7 0
BBX 7 8 0 0
BITMAP
7C
66
66
7C
66
66
66
7C
ENDCHAR
STARTCHAR char67
ENCODING 67
SWIDTH 545 0
DWIDTH 7 0
BBX 7 8 0 0
BITMAP
3C
66
60
60
60
60
66
3C
ENDCHAR
STARTCHAR char68
ENCODING 68
SWIDTH 545 0
DWIDTH 7 0
BBX 7 8 0 0
BITMAP
7C
66
66
66
66
66
66
7C
ENDCHAR
STARTCHAR char69
ENCODING 69
SWIDTH 545 0
DWIDTH 7 0
BBX 7 8 0 0
BITMAP
7E
60
60
78
60
60
60
7E
ENDCHAR
STARTCHAR char70
ENCODING 70
SWIDTH 545 0
DWIDTH 7 0
BBX 7 8 0 0
BITMAP
7E
60
60
78
60
60
60
60
ENDCHAR
STARTCHAR char71
ENCODING 71
SWIDTH 545 0
DWIDTH 7 0
BBX 7 8 0 0
BITMAP
3C
66
60
60
6E
66
66
3A
ENDCHAR
STARTCHAR char72
ENCODING 72
SWIDTH 545 0
DWIDTH 7 0
BBX 7 8 0 0
BITMAP
66
66
66
7E
66
66
66
66
ENDCHAR
STARTCHAR char73
ENCODING 73
SWIDTH 467 0
DWIDTH 6 0
BBX 6 8 0 0
BITMAP
3C
18
18
18
18
18
18
3C
ENDCHAR
STARTCHAR char74
ENCODING 74
SWIDTH 467 0
DWIDTH 6 0
BBX 6 8 0 0
BITMAP
3C
18
18
18
18
18
38
70
ENDCHAR
STARTCHAR char75
ENCODING 75
SWIDTH 545 0
DWIDTH 7 0
BBX 7 8 0 0
BITMAP
62
66
6C
78
78
6C
66
62
ENDCHAR
STARTCHAR char76
ENCODING 76
SWIDTH 467 0
DWIDTH 6 0
BBX 6 8 0 0
BITMAP
60
60
60
60
60
60
60
7C
ENDCHAR
STARTCHAR char77
ENCODING 77
SWIDTH 623 0
DWIDTH 8 0
BBX 8 8 0 0
BITMAP
41
63
77
7F
6B
63
63
63
ENDCHAR
STARTCHAR char78
ENCODING 78
SWIDTH 545 0
DWIDTH 7 0
BBX 7 8 0 0
BITMAP
66
66
76
76
6E
6E
66
66
ENDCHAR
STARTCHAR char79
ENCODING 79
SWIDTH 545 0
DWIDTH 7 0
BBX 7 8 0 0
BITMAP
3C
66
66
66
66
66
66
3C
ENDCHAR
STARTCHAR char80
ENCODING 80
SWIDTH 545 0
DWIDTH 7 0
BBX 7 8 0 0
BITMAP
7C
66
66
66
7C
60
60
60
ENDCHAR
STARTCHAR char81
ENCODING 81
SWIDTH 545 0
DWIDTH 7 0
BBX 7 8 0 0
BITMAP
3C
66
66
66
66
6A
6C
36
ENDCHAR
STARTCHAR char82
ENCODING 82
SWIDTH 545 0
DWIDTH 7 0
BBX 7 8 0 0
BITMAP
7C
66
66
66
7C
78
6C
66
ENDCHAR
STARTCHAR char83
ENCODING 83
SWIDTH 545 0
DWIDTH 7 0
BBX 7 8 0 0
BITMAP
3C
66
60
3C
06
06
66
3C
ENDCHAR
STARTCHAR char84
ENCODING 84
SWIDTH 545 0
DWIDTH 7 0
BBX 7 8 0 0
BITMAP
7E
18
18
18
18
18
18
18
ENDCHAR
STARTCHAR char85
ENCODING 85
SWIDTH 545 0
DWIDTH 7 0
BBX 7 8 0 0
BITMAP
66
66
66
66
66
66
66
3C
ENDCHAR
STARTCHAR char86
ENCODING 86
SWIDTH 545 0
DWIDTH 7 0
BBX 7 8 0 0
BITMAP
66
66
66
3C
3C
3C
18
18
ENDCHAR
STARTCHAR char87
ENCODING 87
SWIDTH 545 0
DWIDTH 8 0
BBX 8 8 0 0
BITMAP
63
63
63
6B
6B
6B
7F
36
ENDCHAR
STARTCHAR char88
ENCODING 88
SWIDTH 545 0
DWIDTH 7 0
BBX 7 8 0 0
BITMAP
66
66
3C
18
18
3C
66
66
ENDCHAR
STARTCHAR char89
ENCODING 89
SWIDTH 545 0
DWIDTH 7 0
BBX 7 8 0 0
BITMAP
66
66
66
3C
1C
18
30
60
ENDCHAR
STARTCHAR char90
ENCODING 90
SWIDTH 545 0
DWIDTH 7 0
BBX 7 8 0 0
BITMAP
7E
06
0C
18
30
60
60
7E
ENDCHAR
STARTCHAR char91
ENCODING 91
SWIDTH 389 0
DWIDTH 5 0
BBX 5 8 0 0
BITMAP
78
60
60
60
60
60
60
78
ENDCHAR
STARTCHAR char92
ENCODING 92
SWIDTH 545 0
DWIDTH 7 0
BBX 7 7 0 1
BITMAP
40
60
30
18
0C
06
02
ENDCHAR
STARTCHAR char93
ENCODING 93
SWIDTH 389 0
DWIDTH 5 0
BBX 5 8 0 0
BITMAP
78
18
18
18
18
18
18
78
ENDCHAR
STARTCHAR char94
ENCODING 94
SWIDTH 545 0
DWIDTH 7 0
BBX 7 3 0 5
BITMAP
18
3C
66
ENDCHAR
STARTCHAR char95
ENCODING 95
SWIDTH 545 0
DWIDTH 7 0
BBX 7 1 0 0
BITMAP
7E
ENDCHAR
STARTCHAR char96
ENCODING 96
SWIDTH 311 0
DWIDTH 4 0
BBX 4 3 0 5
BITMAP
60
60
30
ENDCHAR
STARTCHAR char97
ENCODING 97
SWIDTH 623 0
DWIDTH 8 0
BBX 8 6 0 0
BITMAP
3C
06
3E
66
66
3D
ENDCHAR
STARTCHAR char98
ENCODING 98
SWIDTH 545 0
DWIDTH 7 0
BBX 7 8 0 0
BITMAP
60
60
6C
76
66
66
76
6C
ENDCHAR
STARTCHAR char99
ENCODING 99
SWIDTH 545 0
DWIDTH 7 0
BBX 7 6 0 0
BITMAP
3C
66
60
60
66
3C
ENDCHAR
STARTCHAR char100
ENCODING 100
SWIDTH 545 0
DWIDTH 7 0
BBX 7 8 0 0
BITMAP
06
06
36
6E
66
66
6E
36
ENDCHAR
STARTCHAR char101
ENCODING 101
SWIDTH 467 0
DWIDTH 7 0
BBX 7 6 0 0
BITMAP
3C
66
7E
60
66
3C
ENDCHAR
STARTCHAR char102
ENCODING 102
SWIDTH 389 0
DWIDTH 5 0
BBX 5 8 0 0
BITMAP
38
60
78
60
60
60
60
60
ENDCHAR
STARTCHAR char103
ENCODING 103
SWIDTH 545 0
DWIDTH 7 0
BBX 7 7 0 -1
BITMAP
3E
66
66
3E
06
66
3C
ENDCHAR
STARTCHAR char104
ENCODING 104
SWIDTH 545 0
DWIDTH 7 0
BBX 7 8 0 0
BITMAP
60
60
6C
76
66
66
66
66
ENDCHAR
STARTCHAR char105
ENCODING 105
SWIDTH 233 0
DWIDTH 3 0
BBX 3 8 0 0
BITMAP
60
00
60
60
60
60
60
60
ENDCHAR
STARTCHAR char106
ENCODING 106
SWIDTH 311 0
DWIDTH 4 0
BBX 4 9 0 -1
BITMAP
30
00
30
30
30
30
30
30
60
ENDCHAR
STARTCHAR char107
ENCODING 107
SWIDTH 467 0
DWIDTH 6 0
BBX 6 8 0 0
BITMAP
60
60
64
6C
78
78
6C
64
ENDCHAR
STARTCHAR char108
ENCODING 108
SWIDTH 233 0
DWIDTH 3 0
BBX 3 8 0 0
BITMAP
60
60
60
60
60
60
60
60
ENDCHAR
STARTCHAR char109
ENCODING 109
SWIDTH 623 0
DWIDTH 9 0
BBX 9 6 0 0
BITMAP
5B00
6D80
6D80
6D80
6D80
6D80
ENDCHAR
STARTCHAR char110
ENCODING 110
SWIDTH 545 0
DWIDTH 7 0
BBX 7 6 0 0
BITMAP
6C
76
66
66
66
66
ENDCHAR
STARTCHAR char111
ENCODING 111
SWIDTH 545 0
DWIDTH 7 0
BBX 7 6 0 0
BITMAP
3C
66
66
66
66
3C
ENDCHAR
STARTCHAR char112
ENCODING 112
SWIDTH 545 0
DWIDTH 7 0
BBX 7 7 0 -1
BITMAP
6C
76
66
66
76
6C
60
ENDCHAR
STARTCHAR char113
ENCODING 113
SWIDTH 545 0
DWIDTH 7 0
BBX 7 7 0 -1
BITMAP
36
6E
66
66
6E
36
06
ENDCHAR
STARTCHAR char114
ENCODING 114
SWIDTH 389 0
DWIDTH 5 0
BBX 5 6 0 0
BITMAP
58
70
60
60
60
60
ENDCHAR
STARTCHAR char115
ENCODING 115
SWIDTH 545 0
DWIDTH 7 0
BBX 7 6 0 0
BITMAP
3C
62
3C
06
66
3C
ENDCHAR
STARTCHAR char116
ENCODING 116
SWIDTH 389 0
DWIDTH 5 0
BBX 5 8 0 0
BITMAP
60
60
78
60
60
60
60
38
ENDCHAR
STARTCHAR char117
ENCODING 117
SWIDTH 545 0
DWIDTH 7 0
BBX 7 6 0 0
BITMAP
66
66
66
66
6E
36
ENDCHAR
STARTCHAR char118
ENCODING 118
SWIDTH 545 0
DWIDTH 7 0
BBX 7 6 0 0
BITMAP
66
66
66
3C
3C
18
ENDCHAR
STARTCHAR char119
ENCODING 119
SWIDTH 623 0
DWIDTH 9 0
BBX 9 6 0 0
BITMAP
4C80
6D80
6D80
3F00
3F00
1A00
ENDCHAR
STARTCHAR char120
ENCODING 120
SWIDTH 467 0
DWIDTH 6 0
BBX 6 6 0 0
BITMAP
44
6C
38
38
6C
44
ENDCHAR
STARTCHAR char121
ENCODING 121
SWIDTH 545 0
DWIDTH 7 0
BBX 7 7 0 -1
BITMAP
66
66
66
36
1C
18
30
ENDCHAR
STARTCHAR char122
ENCODING 122
SWIDTH 467 0
DWIDTH 6 0
BBX 6 6 0 0
BITMAP
7C
0C
18
30
60
7C
ENDCHAR
STARTCHAR char123
ENCODING 123
SWIDTH 389 0
DWIDTH 5 0
BBX 5 7 0 0
BITMAP
18
30
30
60
30
30
18
ENDCHAR
STARTCHAR char124
ENCODING 124
SWIDTH 233 0
DWIDTH 3 0
BBX 3 8 0 0
BITMAP
60
60
60
60
60
60
60
60
ENDCHAR
STARTCHAR char125
ENCODING 125
SWIDTH 389 0
DWIDTH 5 0
BBX 5 7 0 0
BITMAP
60
30
30
18
30
30
60
ENDCHAR
STARTCHAR char126
ENCODING 126
SWIDTH 623 0
DWIDTH 8 0
BBX 8 4 0 4
BITMAP
30
79
4F
06
ENDCHAR
STARTCHAR char127
ENCODING 127
SWIDTH 389 0
DWIDTH 5 0
BBX 5 8 0 0
BITMAP
48
18
30
68
B0
30
60
40
ENDCHAR
STARTCHAR 0x00A0
ENCODING 160
SWIDTH 576 0
DWIDTH 6 0
BBX 6 13 0 -4
BITMAP
00
00
00
00
00
00
00
00
00
00
00
00
00
ENDCHAR
STARTCHAR char176
ENCODING 176
SWIDTH 467 0
DWIDTH 6 0
BBX 6 4 0 4
BITMAP
38
6C
6C
38
ENDCHAR
STARTCHAR char178
ENCODING 178
SWIDTH 467 0
DWIDTH 6 0
BBX 6 5 0 3
BITMAP
38
6C
18
30
7C
ENDCHAR
STARTCHAR char179
ENCODING 179
SWIDTH 467 0
DWIDTH 6 0
BBX 6 5 0 3
BITMAP
38
6C
18
6C
38
ENDCHAR
STARTCHAR char181
ENCODING 181
SWIDTH 545 0
DWIDTH 7 0
BBX 7 7 0 -1
BITMAP
66
66
66
66
7A
60
60
ENDCHAR
STARTCHAR 183
ENCODING 183
SWIDTH 576 0
DWIDTH 6 0
BBX 6 13 0 -4
BITMAP
00
00
00
00
00
60
60
00
00
00
00
00
00
ENDCHAR
STARTCHAR char187
ENCODING 187
SWIDTH 545 0
DWIDTH 8 0
BBX 8 6 0 1
BITMAP
48
6C
36
36
6C
48
ENDCHAR
STARTCHAR char191
ENCODING 191
SWIDTH 545 0
DWIDTH 7 0
BBX 7 8 0 0
BITMAP
18
00
18
18
30
60
66
3C
ENDCHAR
STARTCHAR char192
ENCODING 192
SWIDTH 623 0
DWIDTH 8 0
BBX 8 9 0 0
BITMAP
30
18
3C
66
66
7E
66
66
66
ENDCHAR
STARTCHAR char193
ENCODING 193
SWIDTH 545 0
DWIDTH 7 0
BBX 7 9 0 0
BITMAP
0C
18
3C
66
66
7E
66
66
66
ENDCHAR
STARTCHAR char194
ENCODING 194
SWIDTH 545 0
DWIDTH 7 0
BBX 7 9 0 0
BITMAP
18
3C
42
3C
66
66
7E
66
66
ENDCHAR
STARTCHAR char195
ENCODING 195
SWIDTH 545 0
DWIDTH 7 0
BBX 7 9 0 0
BITMAP
10
3E
04
3C
66
66
7E
66
66
ENDCHAR
STARTCHAR char196
ENCODING 196
SWIDTH 545 0
DWIDTH 7 0
BBX 7 9 0 0
BITMAP
66
00
3C
66
66
7E
66
66
66
ENDCHAR
STARTCHAR char197
ENCODING 197
SWIDTH 545 0
DWIDTH 7 0
BBX 7 9 0 0
BITMAP
18
24
18
3C
66
66
7E
66
66
ENDCHAR
STARTCHAR char198
ENCODING 198
SWIDTH 623 0
DWIDTH 9 0
BBX 9 8 0 0
BITMAP
1F80
3600
3600
7F80
6600
6600
6600
6780
ENDCHAR
STARTCHAR char199
ENCODING 199
SWIDTH 545 0
DWIDTH 7 0
BBX 7 10 0 -2
BITMAP
3C
66
60
60
60
60
66
3C
18
30
ENDCHAR
STARTCHAR char200
ENCODING 200
SWIDTH 467 0
DWIDTH 6 0
BBX 6 9 0 0
BITMAP
30
18
7C
60
60
78
60
60
7C
ENDCHAR
STARTCHAR char201
ENCODING 201
SWIDTH 467 0
DWIDTH 6 0
BBX 6 9 0 0
BITMAP
0C
18
7C
60
60
78
60
60
7C
ENDCHAR
STARTCHAR char202
ENCODING 202
SWIDTH 467 0
DWIDTH 6 0
BBX 6 9 0 0
BITMAP
10
38
44
7C
60
78
60
60
7C
ENDCHAR
STARTCHAR char203
ENCODING 203
SWIDTH 467 0
DWIDTH 6 0
BBX 6 9 0 0
BITMAP
6C
00
7C
60
60
78
60
60
7C
ENDCHAR
STARTCHAR char204
ENCODING 204
SWIDTH 389 0
DWIDTH 5 0
BBX 5 9 0 0
BITMAP
60
30
78
30
30
30
30
30
78
ENDCHAR
STARTCHAR char205
ENCODING 205
SWIDTH 389 0
DWIDTH 5 0
BBX 5 9 0 0
BITMAP
18
30
78
30
30
30
30
30
78
ENDCHAR
STARTCHAR char206
ENCODING 206
SWIDTH 389 0
DWIDTH 5 0
BBX 5 9 0 0
BITMAP
30
48
78
30
30
30
30
30
78
ENDCHAR
STARTCHAR char207
ENCODING 207
SWIDTH 389 0
DWIDTH 5 0
BBX 5 9 0 0
BITMAP
48
00
78
30
30
30
30
30
78
ENDCHAR
STARTCHAR char208
ENCODING 208
SWIDTH 545 0
DWIDTH 8 0
BBX 8 8 0 0
BITMAP
3E
33
33
7B
7B
33
33
3E
ENDCHAR
STARTCHAR char209
ENCODING 209
SWIDTH 545 0
DWIDTH 7 0
BBX 7 8 0 0
BITMAP
36
6C
66
76
7E
6E
66
66
ENDCHAR
STARTCHAR char210
ENCODING 210
SWIDTH 545 0
DWIDTH 7 0
BBX 7 9 0 0
BITMAP
30
30
3C
66
66
66
66
66
3C
ENDCHAR
STARTCHAR char211
ENCODING 211
SWIDTH 545 0
DWIDTH 7 0
BBX 7 9 0 0
BITMAP
0C
18
3C
66
66
66
66
66
3C
ENDCHAR
STARTCHAR char212
ENCODING 212
SWIDTH 545 0
DWIDTH 7 0
BBX 7 9 0 0
BITMAP
18
3C
66
3C
66
66
66
66
3C
ENDCHAR
STARTCHAR char213
ENCODING 213
SWIDTH 545 0
DWIDTH 7 0
BBX 7 9 0 0
BITMAP
36
6C
3C
66
66
66
66
66
3C
ENDCHAR
STARTCHAR char214
ENCODING 214
SWIDTH 545 0
DWIDTH 7 0
BBX 7 9 0 0
BITMAP
66
00
3C
66
66
66
66
66
3C
ENDCHAR
STARTCHAR char217
ENCODING 217
SWIDTH 545 0
DWIDTH 7 0
BBX 7 9 0 0
BITMAP
30
18
66
66
66
66
66
66
3C
ENDCHAR
STARTCHAR char218
ENCODING 218
SWIDTH 545 0
DWIDTH 7 0
BBX 7 9 0 0
BITMAP
0C
18
66
66
66
66
66
66
3C
ENDCHAR
STARTCHAR char219
ENCODING 219
SWIDTH 545 0
DWIDTH 7 0
BBX 7 9 0 0
BITMAP
18
3C
42
66
66
66
66
66
3C
ENDCHAR
STARTCHAR char220
ENCODING 220
SWIDTH 545 0
DWIDTH 7 0
BBX 7 9 0 0
BITMAP
66
00
66
66
66
66
66
66
3C
ENDCHAR
STARTCHAR char221
ENCODING 221
SWIDTH 545 0
DWIDTH 7 0
BBX 7 9 0 0
BITMAP
0C
18
66
66
66
3C
18
18
18
ENDCHAR
STARTCHAR char222
ENCODING 222
SWIDTH 545 0
DWIDTH 7 0
BBX 7 9 0 0
BITMAP
60
60
7C
66
66
7C
60
60
60
ENDCHAR
STARTCHAR char223
ENCODING 223
SWIDTH 545 0
DWIDTH 7 0
BBX 7 10 0 -2
BITMAP
7C
66
66
6C
66
66
66
6C
60
40
ENDCHAR
STARTCHAR char224
ENCODING 224
SWIDTH 623 0
DWIDTH 8 0
BBX 8 8 0 0
BITMAP
30
18
3C
06
3E
66
66
39
ENDCHAR
STARTCHAR char225
ENCODING 225
SWIDTH 545 0
DWIDTH 8 0
BBX 8 8 0 0
BITMAP
0C
18
3C
06
3E
66
66
39
ENDCHAR
STARTCHAR char226
ENCODING 226
SWIDTH 545 0
DWIDTH 8 0
BBX 8 9 0 0
BITMAP
08
1C
22
3C
06
3E
66
66
39
ENDCHAR
STARTCHAR char227
ENCODING 227
SWIDTH 545 0
DWIDTH 8 0
BBX 8 8 0 0
BITMAP
36
6C
3C
06
3E
66
66
39
ENDCHAR
STARTCHAR char228
ENCODING 228
SWIDTH 545 0
DWIDTH 8 0
BBX 8 8 0 0
BITMAP
33
00
3C
06
3E
66
66
39
ENDCHAR
STARTCHAR char229
ENCODING 229
SWIDTH 545 0
DWIDTH 8 0
BBX 8 9 0 0
BITMAP
18
24
18
3C
06
3E
66
66
39
ENDCHAR
STARTCHAR char230
ENCODING 230
SWIDTH 623 0
DWIDTH 9 0
BBX 9 6 0 0
BITMAP
3300
0D80
3F80
6C00
6D80
3700
ENDCHAR
STARTCHAR char231
ENCODING 231
SWIDTH 545 0
DWIDTH 7 0
BBX 7 8 0 -2
BITMAP
3C
66
60
60
66
3C
18
30
ENDCHAR
STARTCHAR char232
ENCODING 232
SWIDTH 545 0
DWIDTH 7 0
BBX 7 8 0 0
BITMAP
30
18
3C
66
7E
60
66
3C
ENDCHAR
STARTCHAR char233
ENCODING 233
SWIDTH 467 0
DWIDTH 7 0
BBX 7 8 0 0
BITMAP
0C
18
3C
66
7E
60
66
3C
ENDCHAR
STARTCHAR char234
ENCODING 234
SWIDTH 467 0
DWIDTH 7 0
BBX 7 9 0 0
BITMAP
18
3C
42
3C
66
7E
60
66
3C
ENDCHAR
STARTCHAR char235
ENCODING 235
SWIDTH 467 0
DWIDTH 7 0
BBX 7 8 0 0
BITMAP
66
00
3C
66
7E
60
66
3C
ENDCHAR
STARTCHAR char236
ENCODING 236
SWIDTH 311 0
DWIDTH 4 0
BBX 4 8 0 0
BITMAP
C0
60
00
60
60
60
60
60
ENDCHAR
STARTCHAR char237
ENCODING 237
SWIDTH 389 0
DWIDTH 5 0
BBX 5 8 0 0
BITMAP
18
30
00
30
30
30
30
30
ENDCHAR
STARTCHAR char238
ENCODING 238
SWIDTH 545 0
DWIDTH 7 0
BBX 7 9 0 0
BITMAP
18
3C
66
00
18
18
18
18
18
ENDCHAR
STARTCHAR char239
ENCODING 239
SWIDTH 389 0
DWIDTH 5 0
BBX 5 7 0 0
BITMAP
48
00
30
30
30
30
30
ENDCHAR
STARTCHAR char240
ENCODING 240
SWIDTH 545 0
DWIDTH 7 0
BBX 7 8 0 1
BITMAP
76
1C
1C
06
3E
66
66
3C
ENDCHAR
STARTCHAR char241
ENCODING 241
SWIDTH 545 0
DWIDTH 7 0
BBX 7 8 0 0
BITMAP
36
6C
5C
66
66
66
66
66
ENDCHAR
STARTCHAR char242
ENCODING 242
SWIDTH 545 0
DWIDTH 7 0
BBX 7 8 0 0
BITMAP
30
18
3C
66
66
66
66
3C
ENDCHAR
STARTCHAR char243
ENCODING 243
SWIDTH 545 0
DWIDTH 7 0
BBX 7 8 0 0
BITMAP
0C
18
3C
66
66
66
66
3C
ENDCHAR
STARTCHAR char244
ENCODING 244
SWIDTH 467 0
DWIDTH 7 0
BBX 7 9 0 0
BITMAP
18
3C
42
3C
66
66
66
66
3C
ENDCHAR
STARTCHAR char245
ENCODING 245
SWIDTH 467 0
DWIDTH 7 0
BBX 7 8 0 0
BITMAP
36
6C
3C
66
66
66
66
3C
ENDCHAR
STARTCHAR char246
ENCODING 246
SWIDTH 467 0
DWIDTH 7 0
BBX 7 8 0 0
BITMAP
66
00
3C
66
66
66
66
3C
ENDCHAR
STARTCHAR char249
ENCODING 249
SWIDTH 545 0
DWIDTH 7 0
BBX 7 8 0 0
BITMAP
30
18
66
66
66
66
66
3C
ENDCHAR
STARTCHAR char250
ENCODING 250
SWIDTH 467 0
DWIDTH 7 0
BBX 7 8 0 0
BITMAP
0C
18
66
66
66
66
66
3C
ENDCHAR
STARTCHAR char251
ENCODING 251
SWIDTH 467 0
DWIDTH 7 0
BBX 7 9 0 0
BITMAP
18
3C
42
66
66
66
66
66
3C
ENDCHAR
STARTCHAR char252
ENCODING 252
SWIDTH 467 0
DWIDTH 7 0
BBX 7 8 0 0
BITMAP
66
00
66
66
66
66
66
3C
ENDCHAR
STARTCHAR char253
ENCODING 253
SWIDTH 545 0
DWIDTH 7 0
BBX 7 8 0 -2
BITMAP
0C
18
66
66
3C
18
30
60
ENDCHAR
STARTCHAR char254
ENCODING 254
SWIDTH 467 0
DWIDTH 6 0
BBX 6 9 0 -2
BITMAP
60
60
78
6C
6C
78
60
60
60
ENDCHAR
STARTCHAR char255
ENCODING 255
SWIDTH 545 0
DWIDTH 7 0
BBX 7 9 0 -2
BITMAP
66
00
66
66
66
3E
06
66
3C
ENDCHAR
STARTCHAR 0x2121
ENCODING 12288
SWIDTH 960 0
DWIDTH 10 0
BBX 10 11 0 -2
BITMAP
0000
0000
0000
0000
0000
0000
0000
0000
0000
0000
0000
ENDCHAR
STARTCHAR 0x2122
ENCODING 12289
SWIDTH 960 0
DWIDTH 10 0
BBX 10 11 0 -2
BITMAP
0000
0000
0000
0000
0000
0000
0000
0000
4000
2000
0000
ENDCHAR
STARTCHAR 0x2123
ENCODING 12290
SWIDTH 960 0
DWIDTH 10 0
BBX 10 11 0 -2
BITMAP
0000
0000
0000
0000
0000
0000
3000
4800
4800
3000
0000
ENDCHAR
STARTCHAR 0x2124
ENCODING 65292
SWIDTH 960 0
DWIDTH 10 0
BBX 10 11 0 -2
BITMAP
0000
0000
0000
0000
0000
0000
0000
3000
3000
6000
0000
ENDCHAR
STARTCHAR 0x2125
ENCODING 65294
SWIDTH 960 0
DWIDTH 10 0
BBX 10 11 0 -2
BITMAP
0000
0000
0000
0000
0000
0000
0000
3000
3000
0000
0000
ENDCHAR
STARTCHAR 0x2126
ENCODING 12539
SWIDTH 960 0
DWIDTH 10 0
BBX 10 11 0 -2
BITMAP
0000
0000
0000
0000
0000
1800
1800
0000
0000
0000
0000
ENDCHAR
STARTCHAR 0x2127
ENCODING 65306
SWIDTH 960 0
DWIDTH 10 0
BBX 10 11 0 -2
BITMAP
0000
0000
0000
1800
1800
0000
0000
1800
1800
0000
0000
ENDCHAR
STARTCHAR 0x2128
ENCODING 65307
SWIDTH 960 0
DWIDTH 10 0
BBX 10 11 0 -2
BITMAP
0000
0000
0000
1800
1800
0000
0000
1800
1800
3000
0000
ENDCHAR
STARTCHAR 0x2129
ENCODING 65311
SWIDTH 960 0
DWIDTH 10 0
BBX 10 11 0 -2
BITMAP
0000
3C00
4200
4200
0400
0800
1000
0000
1000
0000
0000
ENDCHAR
STARTCHAR 0x212A
ENCODING 65281
SWIDTH 960 0
DWIDTH 10 0
BBX 10 11 0 -2
BITMAP
0000
0800
0800
0800
0800
0800
0000
0000
0800
0000
0000
ENDCHAR
STARTCHAR 0x212B
ENCODING 12443
SWIDTH 960 0
DWIDTH 10 0
BBX 10 11 0 -2
BITMAP
1000
4800
2000
0000
0000
0000
0000
0000
0000
0000
0000
ENDCHAR
STARTCHAR 0x212C
ENCODING 12444
SWIDTH 960 0
DWIDTH 10 0
BBX 10 11 0 -2
BITMAP
3000
4800
4800
3000
0000
0000
0000
0000
0000
0000
0000
ENDCHAR
STARTCHAR 0x212D
ENCODING 180
SWIDTH 960 0
DWIDTH 10 0
BBX 10 11 0 -2
BITMAP
0800
1000
0000
0000
0000
0000
0000
0000
0000
0000
0000
ENDCHAR
STARTCHAR 0x212E
ENCODING 65344
SWIDTH 960 0
DWIDTH 10 0
BBX 10 11 0 -2
BITMAP
1000
0800
0000
0000
0000
0000
0000
0000
0000
0000
0000
ENDCHAR
STARTCHAR 0x212F
ENCODING 168
SWIDTH 960 0
DWIDTH 10 0
BBX 10 11 0 -2
BITMAP
3600
3600
0000
0000
0000
0000
0000
0000
0000
0000
0000
ENDCHAR
STARTCHAR 0x2130
ENCODING 65342
SWIDTH 960 0
DWIDTH 10 0
BBX 10 11 0 -2
BITMAP
0800
1400
2200
0000
0000
0000
0000
0000
0000
0000
0000
ENDCHAR
STARTCHAR 0x2131
ENCODING 65507
SWIDTH 960 0
DWIDTH 10 0
BBX 10 11 0 -2
BITMAP
0000
FFC0
0000
0000
0000
0000
0000
0000
0000
0000
0000
ENDCHAR
STARTCHAR 0x2132
ENCODING 65343
SWIDTH 960 0
DWIDTH 10 0
BBX 10 11 0 -2
BITMAP
0000
0000
0000
0000
0000
0000
0000
0000
0000
0000
FFC0
ENDCHAR
STARTCHAR 0x2133
ENCODING 12541
SWIDTH 960 0
DWIDTH 10 0
BBX 10 11 0 -2
BITMAP
0000
0000
0000
2000
1000
0800
0400
0400
0000
0000
0000
ENDCHAR
STARTCHAR 0x2134
ENCODING 12542
SWIDTH 960 0
DWIDTH 10 0
BBX 10 11 0 -2
BITMAP
0000
0100
0480
2200
1000
0800
0400
0400
0000
0000
0000
ENDCHAR
STARTCHAR 0x2135
ENCODING 12445
SWIDTH 960 0
DWIDTH 10 0
BBX 10 11 0 -2
BITMAP
0000
0000
0000
2000
1000
0800
0400
3C00
0000
0000
0000
ENDCHAR
STARTCHAR 0x2136
ENCODING 12446
SWIDTH 960 0
DWIDTH 10 0
BBX 10 11 0 -2
BITMAP
0000
0100
0480
2200
1000
0800
0400
3C00
0000
0000
0000
ENDCHAR
STARTCHAR 0x2137
ENCODING 12291
SWIDTH 960 0
DWIDTH 10 0
BBX 10 11 0 -2
BITMAP
0000
0000
0000
1200
1200
2400
2400
0000
0000
0000
0000
ENDCHAR
STARTCHAR 0x2138
ENCODING 20189
SWIDTH 960 0
DWIDTH 10 0
BBX 10 11 0 -2
BITMAP
0000
1C00
2200
4100
8080
3E00
0800
0800
0800
7F00
0000
ENDCHAR
STARTCHAR 0x2139
ENCODING 12293
SWIDTH 960 0
DWIDTH 10 0
BBX 10 11 0 -2
BITMAP
0000
0000
2000
3E00
4200
4200
1400
0800
0400
0000
0000
ENDCHAR
STARTCHAR 0x213A
ENCODING 12294
SWIDTH 960 0
DWIDTH 10 0
BBX 10 11 0 -2
BITMAP
0000
0000
0080
0100
1A00
2400
4A00
5100
6000
4000
0000
ENDCHAR
STARTCHAR 0x213B
ENCODING 12295
SWIDTH 960 0
DWIDTH 10 0
BBX 10 11 0 -2
BITMAP
0000
0000
1C00
6300
8080
8080
8080
6300
1C00
0000
0000
ENDCHAR
STARTCHAR 0x213C
ENCODING 12540
SWIDTH 960 0
DWIDTH 10 0
BBX 10 11 0 -2
BITMAP
0000
0000
0000
0000
4000
3F80
0000
0000
0000
0000
0000
ENDCHAR
STARTCHAR 0x213D
ENCODING 8213
SWIDTH 960 0
DWIDTH 10 0
BBX 10 11 0 -2
BITMAP
0000
0000
0000
0000
0000
FFC0
0000
0000
0000
0000
0000
ENDCHAR
STARTCHAR 0x213E
ENCODING 8208
SWIDTH 960 0
DWIDTH 10 0
BBX 10 11 0 -2
BITMAP
0000
0000
0000
0000
0000
1C00
0000
0000
0000
0000
0000
ENDCHAR
STARTCHAR 0x213F
ENCODING 65295
SWIDTH 960 0
DWIDTH 10 0
BBX 10 11 0 -2
BITMAP
0000
0080
0100
0200
0400
0800
1000
2000
4000
8000
0000
ENDCHAR
STARTCHAR 0x2140
ENCODING 65340
SWIDTH 960 0
DWIDTH 10 0
BBX 10 11 0 -2
BITMAP
0000
8000
4000
2000
1000
0800
0400
0200
0100
0080
0000
ENDCHAR
STARTCHAR 0x2141
ENCODING 65374
SWIDTH 960 0
DWIDTH 10 0
BBX 10 11 0 -2
BITMAP
0000
0000
0000
0000
3000
4900
0600
0000
0000
0000
0000
ENDCHAR
STARTCHAR 0x2142
ENCODING 8741
SWIDTH 960 0
DWIDTH 10 0
BBX 10 11 0 -2
BITMAP
1400
1400
1400
1400
1400
1400
1400
1400
1400
1400
1400
ENDCHAR
STARTCHAR 0x2143
ENCODING 65372
SWIDTH 960 0
DWIDTH 10 0
BBX 10 11 0 -2
BITMAP
0800
0800
0800
0800
0800
0800
0800
0800
0800
0800
0800
ENDCHAR
STARTCHAR 0x2144
ENCODING 8230
SWIDTH 960 0
DWIDTH 10 0
BBX 10 11 0 -2
BITMAP
0000
0000
0000
0000
0000
DB00
DB00
0000
0000
0000
0000
ENDCHAR
STARTCHAR 0x2145
ENCODING 8229
SWIDTH 960 0
DWIDTH 10 0
BBX 10 11 0 -2
BITMAP
0000
0000
0000
0000
0000
6300
6300
0000
0000
0000
0000
ENDCHAR
STARTCHAR 0x2146
ENCODING 8216
SWIDTH 960 0
DWIDTH 10 0
BBX 10 11 0 -2
BITMAP
0C00
0600
0000
0000
0000
0000
0000
0000
0000
0000
0000
ENDCHAR
STARTCHAR 0x2147
ENCODING 8217
SWIDTH 960 0
DWIDTH 10 0
BBX 10 11 0 -2
BITMAP
1800
3000
0000
0000
0000
0000
0000
0000
0000
0000
0000
ENDCHAR
STARTCHAR 0x2148
ENCODING 8220
SWIDTH 960 0
DWIDTH 10 0
BBX 10 11 0 -2
BITMAP
3600
1B00
0000
0000
0000
0000
0000
0000
0000
0000
0000
ENDCHAR
STARTCHAR 0x2149
ENCODING 8221
SWIDTH 960 0
DWIDTH 10 0
BBX 10 11 0 -2
BITMAP
3600
6C00
0000
0000
0000
0000
0000
0000
0000
0000
0000
ENDCHAR
STARTCHAR 0x214A
ENCODING 65288
SWIDTH 960 0
DWIDTH 10 0
BBX 10 11 0 -2
BITMAP
0100
0200
0200
0400
0400
0400
0400
0400
0200
0200
0100
ENDCHAR
STARTCHAR 0x214B
ENCODING 65289
SWIDTH 960 0
DWIDTH 10 0
BBX 10 11 0 -2
BITMAP
4000
2000
2000
1000
1000
1000
1000
1000
2000
2000
4000
ENDCHAR
STARTCHAR 0x214C
ENCODING 12308
SWIDTH 960 0
DWIDTH 10 0
BBX 10 11 0 -2
BITMAP
0100
0200
0400
0400
0400
0400
0400
0400
0400
0200
0100
ENDCHAR
STARTCHAR 0x214D
ENCODING 12309
SWIDTH 960 0
DWIDTH 10 0
BBX 10 11 0 -2
BITMAP
4000
2000
1000
1000
1000
1000
1000
1000
1000
2000
4000
ENDCHAR
STARTCHAR 0x214E
ENCODING 65339
SWIDTH 960 0
DWIDTH 10 0
BBX 10 11 0 -2
BITMAP
0F00
0800
0800
0800
0800
0800
0800
0800
0800
0800
0F00
ENDCHAR
STARTCHAR 0x214F
ENCODING 65341
SWIDTH 960 0
DWIDTH 10 0
BBX 10 11 0 -2
BITMAP
7800
0800
0800
0800
0800
0800
0800
0800
0800
0800
7800
ENDCHAR
STARTCHAR 0x2150
ENCODING 65371
SWIDTH 960 0
DWIDTH 10 0
BBX 10 11 0 -2
BITMAP
0300
0400
0400
0400
0400
1800
0400
0400
0400
0400
0300
ENDCHAR
STARTCHAR 0x2151
ENCODING 65373
SWIDTH 960 0
DWIDTH 10 0
BBX 10 11 0 -2
BITMAP
6000
1000
1000
1000
1000
0C00
1000
1000
1000
1000
6000
ENDCHAR
STARTCHAR 0x2152
ENCODING 12296
SWIDTH 960 0
DWIDTH 10 0
BBX 10 11 0 -2
BITMAP
0000
0100
0100
0200
0200
0400
0200
0200
0100
0100
0000
ENDCHAR
STARTCHAR 0x2153
ENCODING 12297
SWIDTH 960 0
DWIDTH 10 0
BBX 10 11 0 -2
BITMAP
0000
4000
4000
2000
2000
1000
2000
2000
4000
4000
0000
ENDCHAR
STARTCHAR 0x2154
ENCODING 12298
SWIDTH 960 0
DWIDTH 10 0
BBX 10 11 0 -2
BITMAP
0000
0500
0500
0A00
0A00
1400
0A00
0A00
0500
0500
0000
ENDCHAR
STARTCHAR 0x2155
ENCODING 12299
SWIDTH 960 0
DWIDTH 10 0
BBX 10 11 0 -2
BITMAP
0000
5000
5000
2800
2800
1400
2800
2800
5000
5000
0000
ENDCHAR
STARTCHAR 0x2156
ENCODING 12300
SWIDTH 960 0
DWIDTH 10 0
BBX 10 11 0 -2
BITMAP
0F00
0800
0800
0800
0800
0800
0800
0000
0000
0000
0000
ENDCHAR
STARTCHAR 0x2157
ENCODING 12301
SWIDTH 960 0
DWIDTH 10 0
BBX 10 11 0 -2
BITMAP
0000
0000
0000
0000
0800
0800
0800
0800
0800
0800
7800
ENDCHAR
STARTCHAR 0x2158
ENCODING 12302
SWIDTH 960 0
DWIDTH 10 0
BBX 10 11 0 -2
BITMAP
1F00
1100
1700
1400
1400
1400
1400
1C00
0000
0000
0000
ENDCHAR
STARTCHAR 0x2159
ENCODING 12303
SWIDTH 960 0
DWIDTH 10 0
BBX 10 11 0 -2
BITMAP
0000
0000
0000
1C00
1400
1400
1400
1400
7400
4400
7C00
ENDCHAR
STARTCHAR 0x215A
ENCODING 12304
SWIDTH 960 0
DWIDTH 10 0
BBX 10 11 0 -2
BITMAP
0F00
0E00
0C00
0C00
0800
0800
0800
0C00
0C00
0E00
0F00
ENDCHAR
STARTCHAR 0x215B
ENCODING 12305
SWIDTH 960 0
DWIDTH 10 0
BBX 10 11 0 -2
BITMAP
7800
3800
1800
1800
0800
0800
0800
1800
1800
3800
7800
ENDCHAR
STARTCHAR 0x215C
ENCODING 65291
SWIDTH 960 0
DWIDTH 10 0
BBX 10 11 0 -2
BITMAP
0000
0000
0800
0800
0800
7F00
0800
0800
0800
0000
0000
ENDCHAR
STARTCHAR 0x215D
ENCODING 65293
SWIDTH 960 0
DWIDTH 10 0
BBX 10 11 0 -2
BITMAP
0000
0000
0000
0000
0000
7F00
0000
0000
0000
0000
0000
ENDCHAR
STARTCHAR 0x215E
ENCODING 177
SWIDTH 960 0
DWIDTH 10 0
BBX 10 11 0 -2
BITMAP
0000
0800
0800
0800
7F00
0800
0800
0800
0000
7F00
0000
ENDCHAR
STARTCHAR 0x215F
ENCODING 215
SWIDTH 960 0
DWIDTH 10 0
BBX 10 11 0 -2
BITMAP
0000
0000
4100
2200
1400
0800
1400
2200
4100
0000
0000
ENDCHAR
STARTCHAR 0x2160
ENCODING 247
SWIDTH 960 0
DWIDTH 10 0
BBX 10 11 0 -2
BITMAP
0000
0800
1C00
0800
0000
7F00
0000
0800
1C00
0800
0000
ENDCHAR
STARTCHAR 0x2161
ENCODING 65309
SWIDTH 960 0
DWIDTH 10 0
BBX 10 11 0 -2
BITMAP
0000
0000
0000
0000
7F00
0000
7F00
0000
0000
0000
0000
ENDCHAR
STARTCHAR 0x2162
ENCODING 8800
SWIDTH 960 0
DWIDTH 10 0
BBX 10 11 0 -2
BITMAP
0000
0000
0100
0200
7F00
0800
7F00
2000
4000
0000
0000
ENDCHAR
STARTCHAR 0x2163
ENCODING 65308
SWIDTH 960 0
DWIDTH 10 0
BBX 10 11 0 -2
BITMAP
0000
0000
0300
0C00
3000
C000
3000
0C00
0300
0000
0000
ENDCHAR
STARTCHAR 0x2164
ENCODING 65310
SWIDTH 960 0
DWIDTH 10 0
BBX 10 11 0 -2
BITMAP
0000
0000
6000
1800
0600
0180
0600
1800
6000
0000
0000
ENDCHAR
STARTCHAR 0x2165
ENCODING 8806
SWIDTH 960 0
DWIDTH 10 0
BBX 10 11 0 -2
BITMAP
0000
0380
1C00
E000
1C00
0380
0000
FF80
0000
FF80
0000
ENDCHAR
STARTCHAR 0x2166
ENCODING 8807
SWIDTH 960 0
DWIDTH 10 0
BBX 10 11 0 -2
BITMAP
0000
E000
1C00
0380
1C00
E000
0000
FF80
0000
FF80
0000
ENDCHAR
STARTCHAR 0x2167
ENCODING 8734
SWIDTH 960 0
DWIDTH 10 0
BBX 10 11 0 -2
BITMAP
0000
0000
0000
6300
9480
8880
9480
6300
0000
0000
0000
ENDCHAR
STARTCHAR 0x2168
ENCODING 8756
SWIDTH 960 0
DWIDTH 10 0
BBX 10 11 0 -2
BITMAP
0000
0000
0800
1C00
0800
0000
2200
7700
2200
0000
0000
ENDCHAR
STARTCHAR 0x2169
ENCODING 9794
SWIDTH 960 0
DWIDTH 10 0
BBX 10 11 0 -2
BITMAP
0000
0000
0F80
0180
0280
3C80
4480
4400
4400
3800
0000
ENDCHAR
STARTCHAR 0x216A
ENCODING 9792
SWIDTH 960 0
DWIDTH 10 0
BBX 10 11 0 -2
BITMAP
0000
1C00
2200
2200
2200
1C00
0800
7F00
0800
0800
0000
ENDCHAR
STARTCHAR 0x216B
ENCODING 176
SWIDTH 960 0
DWIDTH 10 0
BBX 10 11 0 -2
BITMAP
0000
3000
4800
4800
3000
0000
0000
0000
0000
0000
0000
ENDCHAR
STARTCHAR 0x216C
ENCODING 8242
SWIDTH 960 0
DWIDTH 10 0
BBX 10 11 0 -2
BITMAP
0800
1000
0000
0000
0000
0000
0000
0000
0000
0000
0000
ENDCHAR
STARTCHAR 0x216D
ENCODING 8243
SWIDTH 960 0
DWIDTH 10 0
BBX 10 11 0 -2
BITMAP
1200
2400
0000
0000
0000
0000
0000
0000
0000
0000
0000
ENDCHAR
STARTCHAR 0x216E
ENCODING 8451
SWIDTH 960 0
DWIDTH 10 0
BBX 10 11 0 -2
BITMAP
6000
9000
9700
6880
1000
1000
1000
0880
0700
0000
0000
ENDCHAR
STARTCHAR 0x216F
ENCODING 65509
SWIDTH 960 0
DWIDTH 10 0
BBX 10 11 0 -2
BITMAP
0000
4100
2200
1400
7F00
0800
7F00
0800
0800
0000
0000
ENDCHAR
STARTCHAR 0x2170
ENCODING 65284
SWIDTH 960 0
DWIDTH 10 0
BBX 10 11 0 -2
BITMAP
0000
0800
3E00
4900
4800
3E00
0900
4900
3E00
0800
0000
ENDCHAR
STARTCHAR 0x2171
ENCODING 65504
SWIDTH 960 0
DWIDTH 10 0
BBX 10 11 0 -2
BITMAP
0000
0800
0800
3C00
4A00
4800
4800
3E00
0800
0800
0000
ENDCHAR
STARTCHAR 0x2172
ENCODING 65505
SWIDTH 960 0
DWIDTH 10 0
BBX 10 11 0 -2
BITMAP
0000
1C00
2200
2000
FC00
1000
7000
9100
6E00
0000
0000
ENDCHAR
STARTCHAR 0x2173
ENCODING 65285
SWIDTH 960 0
DWIDTH 10 0
BBX 10 11 0 -2
BITMAP
0000
6200
9200
9400
6800
0B00
1480
2480
2300
0000
0000
ENDCHAR
STARTCHAR 0x2174
ENCODING 65283
SWIDTH 960 0
DWIDTH 10 0
BBX 10 11 0 -2
BITMAP
0000
1200
1200
7F80
1200
1200
7F80
1200
1200
0000
0000
ENDCHAR
STARTCHAR 0x2175
ENCODING 65286
SWIDTH 960 0
DWIDTH 10 0
BBX 10 11 0 -2
BITMAP
0000
1800
2400
2400
1900
2500
4200
4500
3880
0000
0000
ENDCHAR
STARTCHAR 0x2176
ENCODING 65290
SWIDTH 960 0
DWIDTH 10 0
BBX 10 11 0 -2
BITMAP
0000
0800
4900
2A00
1C00
2A00
4900
0800
0000
0000
0000
ENDCHAR
STARTCHAR 0x2177
ENCODING 65312
SWIDTH 960 0
DWIDTH 10 0
BBX 10 11 0 -2
BITMAP
0000
1E00
2100
4C80
5280
5280
4D00
2000
1E00
0000
0000
ENDCHAR
STARTCHAR 0x2178
ENCODING 167
SWIDTH 960 0
DWIDTH 10 0
BBX 10 11 0 -2
BITMAP
1C00
2200
2000
1C00
2200
2200
1C00
0200
2200
1C00
0000
ENDCHAR
STARTCHAR 0x2179
ENCODING 9734
SWIDTH 960 0
DWIDTH 10 0
BBX 10 11 0 -2
BITMAP
0000
0800
0800
1400
F780
4100
2200
2A00
7700
4100
0000
ENDCHAR
STARTCHAR 0x217A
ENCODING 9733
SWIDTH 960 0
DWIDTH 10 0
BBX 10 11 0 -2
BITMAP
0000
0800
0800
1C00
FF80
7F00
3E00
3E00
7700
4100
0000
ENDCHAR
STARTCHAR 0x217B
ENCODING 9675
SWIDTH 960 0
DWIDTH 10 0
BBX 10 11 0 -2
BITMAP
0000
1C00
6300
4100
8080
8080
8080
4100
6300
1C00
0000
ENDCHAR
STARTCHAR 0x217C
ENCODING 9679
SWIDTH 960 0
DWIDTH 10 0
BBX 10 11 0 -2
BITMAP
0000
1C00
7F00
7F00
FF80
FF80
FF80
7F00
7F00
1C00
0000
ENDCHAR
STARTCHAR 0x217D
ENCODING 9678
SWIDTH 960 0
DWIDTH 10 0
BBX 10 11 0 -2
BITMAP
0000
1C00
6300
5D00
A280
A280
A280
5D00
6300
1C00
0000
ENDCHAR
STARTCHAR 0x217E
ENCODING 9671
SWIDTH 960 0
DWIDTH 10 0
BBX 10 11 0 -2
BITMAP
0000
0800
1400
2200
4100
8080
4100
2200
1400
0800
0000
ENDCHAR
STARTCHAR 0x2221
ENCODING 9670
SWIDTH 960 0
DWIDTH 10 0
BBX 10 11 0 -2
BITMAP
0000
0800
1C00
3E00
7F00
FF80
7F00
3E00
1C00
0800
0000
ENDCHAR
STARTCHAR 0x2222
ENCODING 9633
SWIDTH 960 0
DWIDTH 10 0
BBX 10 11 0 -2
BITMAP
0000
7F80
4080
4080
4080
4080
4080
4080
7F80
0000
0000
ENDCHAR
STARTCHAR 0x2223
ENCODING 9632
SWIDTH 960 0
DWIDTH 10 0
BBX 10 11 0 -2
BITMAP
0000
7F80
7F80
7F80
7F80
7F80
7F80
7F80
7F80
0000
0000
ENDCHAR
STARTCHAR 0x2224
ENCODING 9651
SWIDTH 960 0
DWIDTH 10 0
BBX 10 11 0 -2
BITMAP
0000
0800
1400
1400
2200
2200
4100
4100
FF80
0000
0000
ENDCHAR
STARTCHAR 0x2225
ENCODING 9650
SWIDTH 960 0
DWIDTH 10 0
BBX 10 11 0 -2
BITMAP
0000
0800
1C00
1C00
3E00
3E00
7F00
7F00
FF80
0000
0000
ENDCHAR
STARTCHAR 0x2226
ENCODING 9661
SWIDTH 960 0
DWIDTH 10 0
BBX 10 11 0 -2
BITMAP
0000
FF80
4100
4100
2200
2200
1400
1400
0800
0000
0000
ENDCHAR
STARTCHAR 0x2227
ENCODING 9660
SWIDTH 960 0
DWIDTH 10 0
BBX 10 11 0 -2
BITMAP
0000
FF80
7F00
7F00
3E00
3E00
1C00
1C00
0800
0000
0000
ENDCHAR
STARTCHAR 0x2228
ENCODING 8251
SWIDTH 960 0
DWIDTH 10 0
BBX 10 11 0 -2
BITMAP
0000
0800
4100
2200
1400
8880
1400
2200
4100
0800
0000
ENDCHAR
STARTCHAR 0x2229
ENCODING 12306
SWIDTH 960 0
DWIDTH 10 0
BBX 10 11 0 -2
BITMAP
0000
7F00
0000
0000
7F00
0800
0800
0800
0800
0000
0000
ENDCHAR
STARTCHAR 0x222A
ENCODING 8594
SWIDTH 960 0
DWIDTH 10 0
BBX 10 11 0 -2
BITMAP
0000
0000
0400
0200
0100
FF80
0100
0200
0400
0000
0000
ENDCHAR
STARTCHAR 0x222B
ENCODING 8592
SWIDTH 960 0
DWIDTH 10 0
BBX 10 11 0 -2
BITMAP
0000
0000
1000
2000
4000
FF80
4000
2000
1000
0000
0000
ENDCHAR
STARTCHAR 0x222C
ENCODING 8593
SWIDTH 960 0
DWIDTH 10 0
BBX 10 11 0 -2
BITMAP
0000
0800
1C00
2A00
4900
0800
0800
0800
0800
0800
0000
ENDCHAR
STARTCHAR 0x222D
ENCODING 8595
SWIDTH 960 0
DWIDTH 10 0
BBX 10 11 0 -2
BITMAP
0000
0800
0800
0800
0800
0800
4900
2A00
1C00
0800
0000
ENDCHAR
STARTCHAR 0x222E
ENCODING 12307
SWIDTH 960 0
DWIDTH 10 0
BBX 10 11 0 -2
BITMAP
0000
0000
0000
7F00
7F00
0000
7F00
7F00
0000
0000
0000
ENDCHAR
STARTCHAR 0x223A
ENCODING 8712
SWIDTH 960 0
DWIDTH 10 0
BBX 10 11 0 -2
BITMAP
0000
0000
1F80
2000
4000
7F80
4000
2000
1F80
0000
0000
ENDCHAR
STARTCHAR 0x223B
ENCODING 8715
SWIDTH 960 0
DWIDTH 10 0
BBX 10 11 0 -2
BITMAP
0000
0000
7E00
0100
0080
7F80
0080
0100
7E00
0000
0000
ENDCHAR
STARTCHAR 0x223C
ENCODING 8838
SWIDTH 960 0
DWIDTH 10 0
BBX 10 11 0 -2
BITMAP
0000
1F80
2000
4000
4000
2000
1F80
0000
0000
7F80
0000
ENDCHAR
STARTCHAR 0x223D
ENCODING 8839
SWIDTH 960 0
DWIDTH 10 0
BBX 10 11 0 -2
BITMAP
0000
7E00
0100
0080
0080
0100
7E00
0000
0000
7F80
0000
ENDCHAR
STARTCHAR 0x223E
ENCODING 8834
SWIDTH 960 0
DWIDTH 10 0
BBX 10 11 0 -2
BITMAP
0000
0000
1F80
2000
4000
4000
4000
2000
1F80
0000
0000
ENDCHAR
STARTCHAR 0x223F
ENCODING 8835
SWIDTH 960 0
DWIDTH 10 0
BBX 10 11 0 -2
BITMAP
0000
0000
7E00
0100
0080
0080
0080
0100
7E00
0000
0000
ENDCHAR
STARTCHAR 0x2240
ENCODING 8746
SWIDTH 960 0
DWIDTH 10 0
BBX 10 11 0 -2
BITMAP
0000
4100
4100
4100
4100
4100
4100
2200
1C00
0000
0000
ENDCHAR
STARTCHAR 0x2241
ENCODING 8745
SWIDTH 960 0
DWIDTH 10 0
BBX 10 11 0 -2
BITMAP
0000
1C00
2200
4100
4100
4100
4100
4100
4100
0000
0000
ENDCHAR
STARTCHAR 0x224A
ENCODING 8743
SWIDTH 960 0
DWIDTH 10 0
BBX 10 11 0 -2
BITMAP
0000
0800
0800
1400
1400
2200
2200
4100
4100
0000
0000
ENDCHAR
STARTCHAR 0x224B
ENCODING 8744
SWIDTH 960 0
DWIDTH 10 0
BBX 10 11 0 -2
BITMAP
0000
4100
4100
2200
2200
1400
1400
0800
0800
0000
0000
ENDCHAR
STARTCHAR 0x224C
ENCODING 172
SWIDTH 960 0
DWIDTH 10 0
BBX 10 11 0 -2
BITMAP
0000
0000
0000
0000
7F00
0100
0100
0100
0000
0000
0000
ENDCHAR
STARTCHAR 0x224D
ENCODING 8658
SWIDTH 960 0
DWIDTH 10 0
BBX 10 11 0 -2
BITMAP
0000
0000
0400
0200
FF00
0080
FF00
0200
0400
0000
0000
ENDCHAR
STARTCHAR 0x224E
ENCODING 8660
SWIDTH 960 0
DWIDTH 10 0
BBX 10 11 0 -2
BITMAP
0000
0000
1400
2200
7F00
8080
7F00
2200
1400
0000
0000
ENDCHAR
STARTCHAR 0x224F
ENCODING 8704
SWIDTH 960 0
DWIDTH 10 0
BBX 10 11 0 -2
BITMAP
0000
4100
4100
3E00
2200
1400
1400
0800
0800
0000
0000
ENDCHAR
STARTCHAR 0x2250
ENCODING 8707
SWIDTH 960 0
DWIDTH 10 0
BBX 10 11 0 -2
BITMAP
0000
7F00
0100
0100
7F00
0100
0100
0100
7F00
0000
0000
ENDCHAR
STARTCHAR 0x225C
ENCODING 8736
SWIDTH 960 0
DWIDTH 10 0
BBX 10 11 0 -2
BITMAP
0000
0100
0200
0400
0800
1000
2000
4000
FF80
0000
0000
ENDCHAR
STARTCHAR 0x225D
ENCODING 8869
SWIDTH 960 0
DWIDTH 10 0
BBX 10 11 0 -2
BITMAP
0000
0800
0800
0800
0800
0800
0800
0800
FF80
0000
0000
ENDCHAR
STARTCHAR 0x225E
ENCODING 8978
SWIDTH 960 0
DWIDTH 10 0
BBX 10 11 0 -2
BITMAP
0000
1C00
6300
8080
0000
0000
0000
0000
0000
0000
0000
ENDCHAR
STARTCHAR 0x225F
ENCODING 8706
SWIDTH 960 0
DWIDTH 10 0
BBX 10 11 0 -2
BITMAP
0000
0C00
1200
0200
0E00
1200
2200
2200
2400
1800
0000
ENDCHAR
STARTCHAR 0x2260
ENCODING 8711
SWIDTH 960 0
DWIDTH 10 0
BBX 10 11 0 -2
BITMAP
0000
FF80
FF80
6100
2200
3200
1400
1C00
0800
0000
0000
ENDCHAR
STARTCHAR 0x2261
ENCODING 8801
SWIDTH 960 0
DWIDTH 10 0
BBX 10 11 0 -2
BITMAP
0000
0000
0000
7F00
0000
7F00
0000
7F00
0000
0000
0000
ENDCHAR
STARTCHAR 0x2262
ENCODING 8786
SWIDTH 960 0
DWIDTH 10 0
BBX 10 11 0 -2
BITMAP
0000
2000
7000
2000
7F00
0000
7F00
0200
0700
0200
0000
ENDCHAR
STARTCHAR 0x2263
ENCODING 8810
SWIDTH 960 0
DWIDTH 10 0
BBX 10 11 0 -2
BITMAP
0000
0880
1100
2200
4400
8800
4400
2200
1100
0880
0000
ENDCHAR
STARTCHAR 0x2264
ENCODING 8811
SWIDTH 960 0
DWIDTH 10 0
BBX 10 11 0 -2
BITMAP
0000
8800
4400
2200
1100
0880
1100
2200
4400
8800
0000
ENDCHAR
STARTCHAR 0x2265
ENCODING 8730
SWIDTH 960 0
DWIDTH 10 0
BBX 10 11 0 -2
BITMAP
0000
0780
0400
0400
4800
4800
A800
A800
1000
1000
0000
ENDCHAR
STARTCHAR 0x2266
ENCODING 8765
SWIDTH 960 0
DWIDTH 10 0
BBX 10 11 0 -2
BITMAP
0000
0000
0000
6300
8480
8880
9080
6300
0000
0000
0000
ENDCHAR
STARTCHAR 0x2267
ENCODING 8733
SWIDTH 960 0
DWIDTH 10 0
BBX 10 11 0 -2
BITMAP
0000
0000
0000
6300
9480
8800
9480
6300
0000
0000
0000
ENDCHAR
STARTCHAR 0x2268
ENCODING 8757
SWIDTH 960 0
DWIDTH 10 0
BBX 10 11 0 -2
BITMAP
0000
0000
2200
7700
2200
0000
0800
1C00
0800
0000
0000
ENDCHAR
STARTCHAR 0x2269
ENCODING 8747
SWIDTH 960 0
DWIDTH 10 0
BBX 10 11 0 -2
BITMAP
0000
0C00
1400
1000
1000
0800
0400
0400
1400
1800
0000
ENDCHAR
STARTCHAR 0x226A
ENCODING 8748
SWIDTH 960 0
DWIDTH 10 0
BBX 10 11 0 -2
BITMAP
0000
3300
5500
4400
4400
2200
1100
1100
5500
6600
0000
ENDCHAR
STARTCHAR 0x2272
ENCODING 8491
SWIDTH 960 0
DWIDTH 10 0
BBX 10 11 0 -2
BITMAP
0C00
1200
1200
0C00
0800
1400
1C00
2200
2200
0000
0000
ENDCHAR
STARTCHAR 0x2273
ENCODING 8240
SWIDTH 960 0
DWIDTH 10 0
BBX 10 11 0 -2
BITMAP
0000
6100
9200
9400
6800
1B00
2480
6480
9B00
0000
0000
ENDCHAR
STARTCHAR 0x2274
ENCODING 9839
SWIDTH 960 0
DWIDTH 10 0
BBX 10 11 0 -2
BITMAP
0200
1200
1300
1E00
3200
1300
1E00
3200
1200
1000
0000
ENDCHAR
STARTCHAR 0x2275
ENCODING 9837
SWIDTH 960 0
DWIDTH 10 0
BBX 10 11 0 -2
BITMAP
0000
1000
1000
1000
1C00
1200
1200
1400
1800
0000
0000
ENDCHAR
STARTCHAR 0x2276
ENCODING 9834
SWIDTH 960 0
DWIDTH 10 0
BBX 10 11 0 -2
BITMAP
0000
0800
0C00
0E00
0A00
0A00
3800
7800
3000
0000
0000
ENDCHAR
STARTCHAR 0x2277
ENCODING 8224
SWIDTH 960 0
DWIDTH 10 0
BBX 10 11 0 -2
BITMAP
0800
0800
3E00
0800
0800
1C00
1C00
0800
0800
0800
0000
ENDCHAR
STARTCHAR 0x2278
ENCODING 8225
SWIDTH 960 0
DWIDTH 10 0
BBX 10 11 0 -2
BITMAP
0800
0800
3E00
0800
1C00
1C00
0800
3E00
0800
0800
0000
ENDCHAR
STARTCHAR 0x2279
ENCODING 182
SWIDTH 960 0
DWIDTH 10 0
BBX 10 11 0 -2
BITMAP
0000
1E00
3A00
3A00
3A00
1A00
0A00
0A00
0A00
0000
0000
ENDCHAR
STARTCHAR 0x227E
ENCODING 9711
SWIDTH 960 0
DWIDTH 10 0
BBX 10 11 0 -2
BITMAP
0000
1C00
6300
4100
8080
8080
8080
4100
6300
1C00
0000
ENDCHAR
STARTCHAR 0x2330
ENCODING 65296
SWIDTH 960 0
DWIDTH 10 0
BBX 10 11 0 -2
BITMAP
0000
1E00
2100
2100
2100
2100
2100
2100
1E00
0000
0000
ENDCHAR
STARTCHAR 0x2331
ENCODING 65297
SWIDTH 960 0
DWIDTH 10 0
BBX 10 11 0 -2
BITMAP
0000
0400
0C00
1400
0400
0400
0400
0400
0400
0000
0000
ENDCHAR
STARTCHAR 0x2332
ENCODING 65298
SWIDTH 960 0
DWIDTH 10 0
BBX 10 11 0 -2
BITMAP
0000
1E00
2100
2100
0200
0400
0800
1000
3F00
0000
0000
ENDCHAR
STARTCHAR 0x2333
ENCODING 65299
SWIDTH 960 0
DWIDTH 10 0
BBX 10 11 0 -2
BITMAP
0000
3F00
0200
0400
0E00
0100
0100
2100
1E00
0000
0000
ENDCHAR
STARTCHAR 0x2334
ENCODING 65300
SWIDTH 960 0
DWIDTH 10 0
BBX 10 11 0 -2
BITMAP
0000
0600
0A00
1200
2200
2200
3F00
0200
0200
0000
0000
ENDCHAR
STARTCHAR 0x2335
ENCODING 65301
SWIDTH 960 0
DWIDTH 10 0
BBX 10 11 0 -2
BITMAP
0000
3F00
2000
2000
3E00
0100
0100
2100
1E00
0000
0000
ENDCHAR
STARTCHAR 0x2336
ENCODING 65302
SWIDTH 960 0
DWIDTH 10 0
BBX 10 11 0 -2
BITMAP
0000
0E00
1000
2000
3E00
2100
2100
2100
1E00
0000
0000
ENDCHAR
STARTCHAR 0x2337
ENCODING 65303
SWIDTH 960 0
DWIDTH 10 0
BBX 10 11 0 -2
BITMAP
0000
3F00
0100
0200
0400
0400
0800
0800
0800
0000
0000
ENDCHAR
STARTCHAR 0x2338
ENCODING 65304
SWIDTH 960 0
DWIDTH 10 0
BBX 10 11 0 -2
BITMAP
0000
1E00
2100
2100
1E00
2100
2100
2100
1E00
0000
0000
ENDCHAR
STARTCHAR 0x2339
ENCODING 65305
SWIDTH 960 0
DWIDTH 10 0
BBX 10 11 0 -2
BITMAP
0000
1E00
2100
2100
2100
1F00
0100
0200
1C00
0000
0000
ENDCHAR
STARTCHAR 0x2341
ENCODING 65313
SWIDTH 960 0
DWIDTH 10 0
BBX 10 11 0 -2
BITMAP
0000
0800
0800
1400
1400
2200
3E00
4100
4100
0000
0000
ENDCHAR
STARTCHAR 0x2342
ENCODING 65314
SWIDTH 960 0
DWIDTH 10 0
BBX 10 11 0 -2
BITMAP
0000
3E00
2100
2100
3E00
2100
2100
2100
3E00
0000
0000
ENDCHAR
STARTCHAR 0x2343
ENCODING 65315
SWIDTH 960 0
DWIDTH 10 0
BBX 10 11 0 -2
BITMAP
0000
1E00
2100
4000
4000
4000
4000
2100
1E00
0000
0000
ENDCHAR
STARTCHAR 0x2344
ENCODING 65316
SWIDTH 960 0
DWIDTH 10 0
BBX 10 11 0 -2
BITMAP
0000
7C00
4200
4100
4100
4100
4100
4200
7C00
0000
0000
ENDCHAR
STARTCHAR 0x2345
ENCODING 65317
SWIDTH 960 0
DWIDTH 10 0
BBX 10 11 0 -2
BITMAP
0000
3F00
2000
2000
3E00
2000
2000
2000
3F00
0000
0000
ENDCHAR
STARTCHAR 0x2346
ENCODING 65318
SWIDTH 960 0
DWIDTH 10 0
BBX 10 11 0 -2
BITMAP
0000
3F00
2000
2000
3E00
2000
2000
2000
2000
0000
0000
ENDCHAR
STARTCHAR 0x2347
ENCODING 65319
SWIDTH 960 0
DWIDTH 10 0
BBX 10 11 0 -2
BITMAP
0000
1E00
2100
4000
4700
4100
4100
2300
1D00
0000
0000
ENDCHAR
STARTCHAR 0x2348
ENCODING 65320
SWIDTH 960 0
DWIDTH 10 0
BBX 10 11 0 -2
BITMAP
0000
2100
2100
2100
3F00
2100
2100
2100
2100
0000
0000
ENDCHAR
STARTCHAR 0x2349
ENCODING 65321
SWIDTH 960 0
DWIDTH 10 0
BBX 10 11 0 -2
BITMAP
0000
0800
0800
0800
0800
0800
0800
0800
0800
0000
0000
ENDCHAR
STARTCHAR 0x234A
ENCODING 65322
SWIDTH 960 0
DWIDTH 10 0
BBX 10 11 0 -2
BITMAP
0000
0100
0100
0100
0100
2100
2100
2100
1E00
0000
0000
ENDCHAR
STARTCHAR 0x234B
ENCODING 65323
SWIDTH 960 0
DWIDTH 10 0
BBX 10 11 0 -2
BITMAP
0000
2100
2200
2400
2800
3400
2200
2100
2080
0000
0000
ENDCHAR
STARTCHAR 0x234C
ENCODING 65324
SWIDTH 960 0
DWIDTH 10 0
BBX 10 11 0 -2
BITMAP
0000
2000
2000
2000
2000
2000
2000
2000
3F00
0000
0000
ENDCHAR
STARTCHAR 0x234D
ENCODING 65325
SWIDTH 960 0
DWIDTH 10 0
BBX 10 11 0 -2
BITMAP
0000
4100
6300
5500
4900
4100
4100
4100
4100
0000
0000
ENDCHAR
STARTCHAR 0x234E
ENCODING 65326
SWIDTH 960 0
DWIDTH 10 0
BBX 10 11 0 -2
BITMAP
0000
2100
3100
2900
2500
2300
2100
2100
2100
0000
0000
ENDCHAR
STARTCHAR 0x234F
ENCODING 65327
SWIDTH 960 0
DWIDTH 10 0
BBX 10 11 0 -2
BITMAP
0000
1C00
2200
4100
4100
4100
4100
2200
1C00
0000
0000
ENDCHAR
STARTCHAR 0x2350
ENCODING 65328
SWIDTH 960 0
DWIDTH 10 0
BBX 10 11 0 -2
BITMAP
0000
3E00
2100
2100
2100
3E00
2000
2000
2000
0000
0000
ENDCHAR
STARTCHAR 0x2351
ENCODING 65329
SWIDTH 960 0
DWIDTH 10 0
BBX 10 11 0 -2
BITMAP
0000
1C00
2200
4100
4100
4100
4100
2200
1C00
0400
0300
ENDCHAR
STARTCHAR 0x2352
ENCODING 65330
SWIDTH 960 0
DWIDTH 10 0
BBX 10 11 0 -2
BITMAP
0000
3E00
2100
2100
2100
3E00
2400
2200
2100
0000
0000
ENDCHAR
STARTCHAR 0x2353
ENCODING 65331
SWIDTH 960 0
DWIDTH 10 0
BBX 10 11 0 -2
BITMAP
0000
1E00
2100
2000
1E00
0100
0100
2100
1E00
0000
0000
ENDCHAR
STARTCHAR 0x2354
ENCODING 65332
SWIDTH 960 0
DWIDTH 10 0
BBX 10 11 0 -2
BITMAP
0000
7F00
0800
0800
0800
0800
0800
0800
0800
0000
0000
ENDCHAR
STARTCHAR 0x2355
ENCODING 65333
SWIDTH 960 0
DWIDTH 10 0
BBX 10 11 0 -2
BITMAP
0000
2100
2100
2100
2100
2100
2100
2100
1E00
0000
0000
ENDCHAR
STARTCHAR 0x2356
ENCODING 65334
SWIDTH 960 0
DWIDTH 10 0
BBX 10 11 0 -2
BITMAP
0000
4100
4100
2200
2200
1400
1400
0800
0800
0000
0000
ENDCHAR
STARTCHAR 0x2357
ENCODING 65335
SWIDTH 960 0
DWIDTH 10 0
BBX 10 11 0 -2
BITMAP
0000
8880
8880
8880
5500
5500
5500
2200
2200
0000
0000
ENDCHAR
STARTCHAR 0x2358
ENCODING 65336
SWIDTH 960 0
DWIDTH 10 0
BBX 10 11 0 -2
BITMAP
0000
4100
2200
1400
0800
0800
1400
2200
4100
0000
0000
ENDCHAR
STARTCHAR 0x2359
ENCODING 65337
SWIDTH 960 0
DWIDTH 10 0
BBX 10 11 0 -2
BITMAP
0000
4100
4100
2200
1400
0800
0800
0800
0800
0000
0000
ENDCHAR
STARTCHAR 0x235A
ENCODING 65338
SWIDTH 960 0
DWIDTH 10 0
BBX 10 11 0 -2
BITMAP
0000
3F00
0100
0200
0400
0800
1000
2000
3F00
0000
0000
ENDCHAR
STARTCHAR 0x2361
ENCODING 65345
SWIDTH 960 0
DWIDTH 10 0
BBX 10 11 0 -2
BITMAP
0000
0000
0000
1C00
0200
1E00
2200
2200
1E00
0000
0000
ENDCHAR
STARTCHAR 0x2362
ENCODING 65346
SWIDTH 960 0
DWIDTH 10 0
BBX 10 11 0 -2
BITMAP
0000
2000
2000
3C00
2200
2200
2200
2200
3C00
0000
0000
ENDCHAR
STARTCHAR 0x2363
ENCODING 65347
SWIDTH 960 0
DWIDTH 10 0
BBX 10 11 0 -2
BITMAP
0000
0000
0000
1C00
2200
2000
2000
2200
1C00
0000
0000
ENDCHAR
STARTCHAR 0x2364
ENCODING 65348
SWIDTH 960 0
DWIDTH 10 0
BBX 10 11 0 -2
BITMAP
0000
0200
0200
1E00
2200
2200
2200
2200
1E00
0000
0000
ENDCHAR
STARTCHAR 0x2365
ENCODING 65349
SWIDTH 960 0
DWIDTH 10 0
BBX 10 11 0 -2
BITMAP
0000
0000
0000
1C00
2200
3E00
2000
2200
1C00
0000
0000
ENDCHAR
STARTCHAR 0x2366
ENCODING 65350
SWIDTH 960 0
DWIDTH 10 0
BBX 10 11 0 -2
BITMAP
0000
0600
0800
0800
3E00
0800
0800
0800
0800
0000
0000
ENDCHAR
STARTCHAR 0x2367
ENCODING 65351
SWIDTH 960 0
DWIDTH 10 0
BBX 10 11 0 -2
BITMAP
0000
0000
0000
1E00
2200
2200
2200
1E00
0200
2200
1C00
ENDCHAR
STARTCHAR 0x2368
ENCODING 65352
SWIDTH 960 0
DWIDTH 10 0
BBX 10 11 0 -2
BITMAP
0000
2000
2000
2C00
3200
2200
2200
2200
2200
0000
0000
ENDCHAR
STARTCHAR 0x2369
ENCODING 65353
SWIDTH 960 0
DWIDTH 10 0
BBX 10 11 0 -2
BITMAP
0800
0800
0000
0000
0800
0800
0800
0800
0800
0000
0000
ENDCHAR
STARTCHAR 0x236A
ENCODING 65354
SWIDTH 960 0
DWIDTH 10 0
BBX 10 11 0 -2
BITMAP
0400
0400
0000
0000
0400
0400
0400
0400
0400
0400
3800
ENDCHAR
STARTCHAR 0x236B
ENCODING 65355
SWIDTH 960 0
DWIDTH 10 0
BBX 10 11 0 -2
BITMAP
0000
2000
2000
2200
2400
2800
3400
2200
2100
0000
0000
ENDCHAR
STARTCHAR 0x236C
ENCODING 65356
SWIDTH 960 0
DWIDTH 10 0
BBX 10 11 0 -2
BITMAP
0000
0800
0800
0800
0800
0800
0800
0800
0800
0000
0000
ENDCHAR
STARTCHAR 0x236D
ENCODING 65357
SWIDTH 960 0
DWIDTH 10 0
BBX 10 11 0 -2
BITMAP
0000
0000
0000
7E00
4900
4900
4900
4900
4900
0000
0000
ENDCHAR
STARTCHAR 0x236E
ENCODING 65358
SWIDTH 960 0
DWIDTH 10 0
BBX 10 11 0 -2
BITMAP
0000
0000
0000
2C00
3200
2200
2200
2200
2200
0000
0000
ENDCHAR
STARTCHAR 0x236F
ENCODING 65359
SWIDTH 960 0
DWIDTH 10 0
BBX 10 11 0 -2
BITMAP
0000
0000
0000
1E00
2100
2100
2100
2100
1E00
0000
0000
ENDCHAR
STARTCHAR 0x2370
ENCODING 65360
SWIDTH 960 0
DWIDTH 10 0
BBX 10 11 0 -2
BITMAP
0000
0000
0000
3C00
2200
2200
2200
2200
3C00
2000
2000
ENDCHAR
STARTCHAR 0x2371
ENCODING 65361
SWIDTH 960 0
DWIDTH 10 0
BBX 10 11 0 -2
BITMAP
0000
0000
0000
1E00
2200
2200
2200
2200
1E00
0200
0200
ENDCHAR
STARTCHAR 0x2372
ENCODING 65362
SWIDTH 960 0
DWIDTH 10 0
BBX 10 11 0 -2
BITMAP
0000
0000
0000
1600
1800
1000
1000
1000
1000
0000
0000
ENDCHAR
STARTCHAR 0x2373
ENCODING 65363
SWIDTH 960 0
DWIDTH 10 0
BBX 10 11 0 -2
BITMAP
0000
0000
0000
1C00
2200
1C00
0200
2200
1C00
0000
0000
ENDCHAR
STARTCHAR 0x2374
ENCODING 65364
SWIDTH 960 0
DWIDTH 10 0
BBX 10 11 0 -2
BITMAP
0000
1000
1000
3C00
1000
1000
1000
1200
0C00
0000
0000
ENDCHAR
STARTCHAR 0x2375
ENCODING 65365
SWIDTH 960 0
DWIDTH 10 0
BBX 10 11 0 -2
BITMAP
0000
0000
0000
2200
2200
2200
2200
2600
1A00
0000
0000
ENDCHAR
STARTCHAR 0x2376
ENCODING 65366
SWIDTH 960 0
DWIDTH 10 0
BBX 10 11 0 -2
BITMAP
0000
0000
0000
2200
2200
1400
1400
0800
0800
0000
0000
ENDCHAR
STARTCHAR 0x2377
ENCODING 65367
SWIDTH 960 0
DWIDTH 10 0
BBX 10 11 0 -2
BITMAP
0000
0000
0000
4900
4900
5500
5500
2200
2200
0000
0000
ENDCHAR
STARTCHAR 0x2378
ENCODING 65368
SWIDTH 960 0
DWIDTH 10 0
BBX 10 11 0 -2
BITMAP
0000
0000
0000
2200
1400
0800
0800
1400
2200
0000
0000
ENDCHAR
STARTCHAR 0x2379
ENCODING 65369
SWIDTH 960 0
DWIDTH 10 0
BBX 10 11 0 -2
BITMAP
0000
0000
0000
2200
2200
1200
1400
1400
0800
0800
3000
ENDCHAR
STARTCHAR 0x237A
ENCODING 65370
SWIDTH 960 0
DWIDTH 10 0
BBX 10 11 0 -2
BITMAP
0000
0000
0000
3E00
0400
0800
1000
2000
3E00
0000
0000
ENDCHAR
STARTCHAR 0x2421
ENCODING 12353
SWIDTH 960 0
DWIDTH 10 0
BBX 10 11 0 -2
BITMAP
0000
0000
0000
1000
7F00
1000
3E00
5500
5900
3200
0000
ENDCHAR
STARTCHAR 0x2422
ENCODING 12354
SWIDTH 960 0
DWIDTH 10 0
BBX 10 11 0 -2
BITMAP
1000
1000
7F00
1000
3E00
6500
A880
A880
7100
0600
0000
ENDCHAR
STARTCHAR 0x2423
ENCODING 12355
SWIDTH 960 0
DWIDTH 10 0
BBX 10 11 0 -2
BITMAP
0000
0000
0000
0000
2200
2200
4100
4100
4900
3000
0000
ENDCHAR
STARTCHAR 0x2424
ENCODING 12356
SWIDTH 960 0
DWIDTH 10 0
BBX 10 11 0 -2
BITMAP
0000
0000
4000
4100
8100
8080
8080
4880
3000
0000
0000
ENDCHAR
STARTCHAR 0x2425
ENCODING 12357
SWIDTH 960 0
DWIDTH 10 0
BBX 10 11 0 -2
BITMAP
0000
0000
0000
3C00
0000
1C00
6200
0200
0400
1800
0000
ENDCHAR
STARTCHAR 0x2426
ENCODING 12358
SWIDTH 960 0
DWIDTH 10 0
BBX 10 11 0 -2
BITMAP
0000
1800
0600
0000
1E00
6100
0100
0100
0200
0C00
0000
ENDCHAR
STARTCHAR 0x2427
ENCODING 12359
SWIDTH 960 0
DWIDTH 10 0
BBX 10 11 0 -2
BITMAP
0000
0000
0000
1E00
0000
3E00
0400
0800
1400
2300
0000
ENDCHAR
STARTCHAR 0x2428
ENCODING 12360
SWIDTH 960 0
DWIDTH 10 0
BBX 10 11 0 -2
BITMAP
0000
1800
0600
0000
3E00
0400
0800
1400
2400
4380
0000
ENDCHAR
STARTCHAR 0x2429
ENCODING 12361
SWIDTH 960 0
DWIDTH 10 0
BBX 10 11 0 -2
BITMAP
0000
0000
0000
1200
7D00
1000
3E00
5100
5100
6600
0000
ENDCHAR
STARTCHAR 0x242A
ENCODING 12362
SWIDTH 960 0
DWIDTH 10 0
BBX 10 11 0 -2
BITMAP
1000
1000
7D00
1080
1000
3E00
5100
9080
9080
6300
0000
ENDCHAR
STARTCHAR 0x242B
ENCODING 12363
SWIDTH 960 0
DWIDTH 10 0
BBX 10 11 0 -2
BITMAP
1000
1000
1100
F900
2480
2480
2480
4400
4400
1800
0000
ENDCHAR
STARTCHAR 0x242C
ENCODING 12364
SWIDTH 960 0
DWIDTH 10 0
BBX 10 11 0 -2
BITMAP
1000
1280
1280
F800
2500
2500
2480
4480
4400
1800
0000
ENDCHAR
STARTCHAR 0x242D
ENCODING 12365
SWIDTH 960 0
DWIDTH 10 0
BBX 10 11 0 -2
BITMAP
0800
0800
FF00
0400
7F00
0400
3A00
4600
4000
3C00
0000
ENDCHAR
STARTCHAR 0x242E
ENCODING 12366
SWIDTH 960 0
DWIDTH 10 0
BBX 10 11 0 -2
BITMAP
0A80
0A80
FE00
0400
7F00
0400
3A00
4600
4000
3C00
0000
ENDCHAR
STARTCHAR 0x242F
ENCODING 12367
SWIDTH 960 0
DWIDTH 10 0
BBX 10 11 0 -2
BITMAP
0000
0400
0800
1000
2000
2000
1000
0800
0400
0400
0000
ENDCHAR
STARTCHAR 0x2430
ENCODING 12368
SWIDTH 960 0
DWIDTH 10 0
BBX 10 11 0 -2
BITMAP
0000
0800
1280
2280
4000
4000
2000
1000
0800
0800
0000
ENDCHAR
STARTCHAR 0x2431
ENCODING 12369
SWIDTH 960 0
DWIDTH 10 0
BBX 10 11 0 -2
BITMAP
0200
4200
4200
9F80
8200
8200
8200
8200
4400
5800
0000
ENDCHAR
STARTCHAR 0x2432
ENCODING 12370
SWIDTH 960 0
DWIDTH 10 0
BBX 10 11 0 -2
BITMAP
0280
4280
4200
9F80
8200
8200
8200
8200
4400
5800
0000
ENDCHAR
STARTCHAR 0x2433
ENCODING 12371
SWIDTH 960 0
DWIDTH 10 0
BBX 10 11 0 -2
BITMAP
0000
0000
3E00
0000
0000
0000
2000
4000
4100
3E00
0000
ENDCHAR
STARTCHAR 0x2434
ENCODING 12372
SWIDTH 960 0
DWIDTH 10 0
BBX 10 11 0 -2
BITMAP
0000
0280
3E80
0000
0000
0000
2000
4000
4100
3E00
0000
ENDCHAR
STARTCHAR 0x2435
ENCODING 12373
SWIDTH 960 0
DWIDTH 10 0
BBX 10 11 0 -2
BITMAP
0400
0400
0580
FE00
0200
1D00
2300
2000
1000
0E00
0000
ENDCHAR
STARTCHAR 0x2436
ENCODING 12374
SWIDTH 960 0
DWIDTH 10 0
BBX 10 11 0 -2
BITMAP
0800
0A80
0A80
FC00
0400
3A00
4600
4000
2000
1C00
0000
ENDCHAR
STARTCHAR 0x2437
ENCODING 12375
SWIDTH 960 0
DWIDTH 10 0
BBX 10 11 0 -2
BITMAP
0000
2000
2000
2000
4000
4000
4100
4100
2200
1C00
0000
ENDCHAR
STARTCHAR 0x2438
ENCODING 12376
SWIDTH 960 0
DWIDTH 10 0
BBX 10 11 0 -2
BITMAP
0000
2500
2500
2000
4000
4000
4100
4100
2200
1C00
0000
ENDCHAR
STARTCHAR 0x2439
ENCODING 12377
SWIDTH 960 0
DWIDTH 10 0
BBX 10 11 0 -2
BITMAP
0400
0400
FF80
0400
1C00
2400
2400
1C00
0800
3000
0000
ENDCHAR
STARTCHAR 0x243A
ENCODING 12378
SWIDTH 960 0
DWIDTH 10 0
BBX 10 11 0 -2
BITMAP
0280
0280
FF80
0400
1C00
2400
2400
1C00
0800
3000
0000
ENDCHAR
STARTCHAR 0x243B
ENCODING 12379
SWIDTH 960 0
DWIDTH 10 0
BBX 10 11 0 -2
BITMAP
0200
2200
2200
2780
FA00
2200
2600
2000
2000
1F00
0000
ENDCHAR
STARTCHAR 0x243C
ENCODING 12380
SWIDTH 960 0
DWIDTH 10 0
BBX 10 11 0 -2
BITMAP
0280
2280
2200
2780
FA00
2200
2600
2000
2000
1F00
0000
ENDCHAR
STARTCHAR 0x243D
ENCODING 12381
SWIDTH 960 0
DWIDTH 10 0
BBX 10 11 0 -2
BITMAP
0000
3E00
0200
0400
0800
7F80
0800
1000
1000
0E00
0000
ENDCHAR
STARTCHAR 0x243E
ENCODING 12382
SWIDTH 960 0
DWIDTH 10 0
BBX 10 11 0 -2
BITMAP
0280
3E80
0200
0400
0800
7F80
0800
1000
1000
0E00
0000
ENDCHAR
STARTCHAR 0x243F
ENCODING 12383
SWIDTH 960 0
DWIDTH 10 0
BBX 10 11 0 -2
BITMAP
1000
1000
FE00
1000
1780
2000
2200
2400
4400
4380
0000
ENDCHAR
STARTCHAR 0x2440
ENCODING 12384
SWIDTH 960 0
DWIDTH 10 0
BBX 10 11 0 -2
BITMAP
1000
1280
FE80
1000
1780
2000
2200
2400
4400
4380
0000
ENDCHAR
STARTCHAR 0x2441
ENCODING 12385
SWIDTH 960 0
DWIDTH 10 0
BBX 10 11 0 -2
BITMAP
1000
1000
7F00
1000
1000
2E00
3100
0100
0200
1C00
0000
ENDCHAR
STARTCHAR 0x2442
ENCODING 12386
SWIDTH 960 0
DWIDTH 10 0
BBX 10 11 0 -2
BITMAP
1280
1280
7E00
1000
1000
2E00
3100
0100
0200
1C00
0000
ENDCHAR
STARTCHAR 0x2443
ENCODING 12387
SWIDTH 960 0
DWIDTH 10 0
BBX 10 11 0 -2
BITMAP
0000
0000
0000
0000
0C00
7200
0100
0100
0200
1C00
0000
ENDCHAR
STARTCHAR 0x2444
ENCODING 12388
SWIDTH 960 0
DWIDTH 10 0
BBX 10 11 0 -2
BITMAP
0000
0000
1C00
E200
0100
0100
0100
0600
3800
0000
0000
ENDCHAR
STARTCHAR 0x2445
ENCODING 12389
SWIDTH 960 0
DWIDTH 10 0
BBX 10 11 0 -2
BITMAP
0280
0280
1C00
E200
0100
0100
0100
0600
3800
0000
0000
ENDCHAR
STARTCHAR 0x2446
ENCODING 12390
SWIDTH 960 0
DWIDTH 10 0
BBX 10 11 0 -2
BITMAP
0000
0000
1F00
E400
0800
1000
1000
1000
0800
0600
0000
ENDCHAR
STARTCHAR 0x2447
ENCODING 12391
SWIDTH 960 0
DWIDTH 10 0
BBX 10 11 0 -2
BITMAP
0000
0000
1F00
E400
0A80
1280
1000
1000
0800
0600
0000
ENDCHAR
STARTCHAR 0x2448
ENCODING 12392
SWIDTH 960 0
DWIDTH 10 0
BBX 10 11 0 -2
BITMAP
0000
1000
1000
1000
0B00
0C00
1000
2000
2000
1F00
0000
ENDCHAR
STARTCHAR 0x2449
ENCODING 12393
SWIDTH 960 0
DWIDTH 10 0
BBX 10 11 0 -2
BITMAP
0000
2280
2280
2000
1600
1800
2000
4000
4000
3E00
0000
ENDCHAR
STARTCHAR 0x244A
ENCODING 12394
SWIDTH 960 0
DWIDTH 10 0
BBX 10 11 0 -2
BITMAP
1000
1100
FC80
2000
4200
4200
8E00
9300
1280
0C00
0000
ENDCHAR
STARTCHAR 0x244B
ENCODING 12395
SWIDTH 960 0
DWIDTH 10 0
BBX 10 11 0 -2
BITMAP
0000
2000
2780
4000
4000
4200
4400
4400
2380
2000
0000
ENDCHAR
STARTCHAR 0x244C
ENCODING 12396
SWIDTH 960 0
DWIDTH 10 0
BBX 10 11 0 -2
BITMAP
0400
0400
4400
5E00
6500
4480
A880
AE80
9900
6680
0000
ENDCHAR
STARTCHAR 0x244D
ENCODING 12397
SWIDTH 960 0
DWIDTH 10 0
BBX 10 11 0 -2
BITMAP
2000
2000
2000
EE00
3100
2080
2380
6480
A480
2300
0000
ENDCHAR
STARTCHAR 0x244E
ENCODING 12398
SWIDTH 960 0
DWIDTH 10 0
BBX 10 11 0 -2
BITMAP
0000
0000
1E00
2900
4880
8880
9080
9080
6100
0600
0000
ENDCHAR
STARTCHAR 0x244F
ENCODING 12399
SWIDTH 960 0
DWIDTH 10 0
BBX 10 11 0 -2
BITMAP
0200
4200
4200
9F80
8200
8200
8E00
9300
5280
4C00
0000
ENDCHAR
STARTCHAR 0x2450
ENCODING 12400
SWIDTH 960 0
DWIDTH 10 0
BBX 10 11 0 -2
BITMAP
0280
4280
4200
9F80
8200
8200
8E00
9300
5280
4C00
0000
ENDCHAR
STARTCHAR 0x2451
ENCODING 12401
SWIDTH 960 0
DWIDTH 10 0
BBX 10 11 0 -2
BITMAP
0300
4480
4480
9F00
8200
8200
8E00
9300
5280
4C00
0000
ENDCHAR
STARTCHAR 0x2452
ENCODING 12402
SWIDTH 960 0
DWIDTH 10 0
BBX 10 11 0 -2
BITMAP
0000
0400
F400
1200
2300
2280
4200
4200
4400
3800
0000
ENDCHAR
STARTCHAR 0x2453
ENCODING 12403
SWIDTH 960 0
DWIDTH 10 0
BBX 10 11 0 -2
BITMAP
0280
0280
F000
1200
2300
2280
4200
4200
4400
3800
0000
ENDCHAR
STARTCHAR 0x2454
ENCODING 12404
SWIDTH 960 0
DWIDTH 10 0
BBX 10 11 0 -2
BITMAP
0300
0480
F480
1300
2280
2200
4200
4200
4400
3800
0000
ENDCHAR
STARTCHAR 0x2455
ENCODING 12405
SWIDTH 960 0
DWIDTH 10 0
BBX 10 11 0 -2
BITMAP
0000
1800
0600
0000
0800
4900
4500
8480
8480
1800
0000
ENDCHAR
STARTCHAR 0x2456
ENCODING 12406
SWIDTH 960 0
DWIDTH 10 0
BBX 10 11 0 -2
BITMAP
0000
1A80
0680
0000
0800
4900
4500
8480
8480
1800
0000
ENDCHAR
STARTCHAR 0x2457
ENCODING 12407
SWIDTH 960 0
DWIDTH 10 0
BBX 10 11 0 -2
BITMAP
0300
1C80
0480
0300
0800
4900
4500
8480
8480
1800
0000
ENDCHAR
STARTCHAR 0x2458
ENCODING 12408
SWIDTH 960 0
DWIDTH 10 0
BBX 10 11 0 -2
BITMAP
0000
0000
0000
0000
3800
4400
8200
0180
0000
0000
0000
ENDCHAR
STARTCHAR 0x2459
ENCODING 12409
SWIDTH 960 0
DWIDTH 10 0
BBX 10 11 0 -2
BITMAP
0000
0280
0280
0000
3800
4400
8200
0180
0000
0000
0000
ENDCHAR
STARTCHAR 0x245A
ENCODING 12410
SWIDTH 960 0
DWIDTH 10 0
BBX 10 11 0 -2
BITMAP
0300
0480
0480
0300
3800
4400
8200
0180
0000
0000
0000
ENDCHAR
STARTCHAR 0x245B
ENCODING 12411
SWIDTH 960 0
DWIDTH 10 0
BBX 10 11 0 -2
BITMAP
0000
5F80
4200
8200
9F80
8200
8E00
9300
5280
4C00
0000
ENDCHAR
STARTCHAR 0x245C
ENCODING 12412
SWIDTH 960 0
DWIDTH 10 0
BBX 10 11 0 -2
BITMAP
0280
5E80
4200
8200
9F80
8200
8E00
9300
5280
4C00
0000
ENDCHAR
STARTCHAR 0x245D
ENCODING 12413
SWIDTH 960 0
DWIDTH 10 0
BBX 10 11 0 -2
BITMAP
0300
5C80
4480
8300
9E00
8200
8E00
9300
5280
4C00
0000
ENDCHAR
STARTCHAR 0x245E
ENCODING 12414
SWIDTH 960 0
DWIDTH 10 0
BBX 10 11 0 -2
BITMAP
0400
0400
FF00
0400
7F00
0400
3C00
4600
4500
3800
0000
ENDCHAR
STARTCHAR 0x245F
ENCODING 12415
SWIDTH 960 0
DWIDTH 10 0
BBX 10 11 0 -2
BITMAP
0000
7800
0900
0900
0900
7F00
9180
9100
6200
0C00
0000
ENDCHAR
STARTCHAR 0x2460
ENCODING 12416
SWIDTH 960 0
DWIDTH 10 0
BBX 10 11 0 -2
BITMAP
1000
1000
F900
1080
7000
9000
9000
6100
2100
1E00
0000
ENDCHAR
STARTCHAR 0x2461
ENCODING 12417
SWIDTH 960 0
DWIDTH 10 0
BBX 10 11 0 -2
BITMAP
0400
2400
2400
3E00
6500
A880
A880
9080
6100
0600
0000
ENDCHAR
STARTCHAR 0x2462
ENCODING 12418
SWIDTH 960 0
DWIDTH 10 0
BBX 10 11 0 -2
BITMAP
0800
0800
7F00
0800
0800
7F00
1000
1100
1100
0E00
0000
ENDCHAR
STARTCHAR 0x2463
ENCODING 12419
SWIDTH 960 0
DWIDTH 10 0
BBX 10 11 0 -2
BITMAP
0000
0000
0000
0400
2400
2E00
7100
1100
0A00
0800
0000
ENDCHAR
STARTCHAR 0x2464
ENCODING 12420
SWIDTH 960 0
DWIDTH 10 0
BBX 10 11 0 -2
BITMAP
0400
0400
2400
2F00
F080
1080
1300
0800
0800
0800
0000
ENDCHAR
STARTCHAR 0x2465
ENCODING 12421
SWIDTH 960 0
DWIDTH 10 0
BBX 10 11 0 -2
BITMAP
0000
0000
0000
0400
4E00
5500
5500
2E00
2400
0800
0000
ENDCHAR
STARTCHAR 0x2466
ENCODING 12422
SWIDTH 960 0
DWIDTH 10 0
BBX 10 11 0 -2
BITMAP
0400
0400
1F00
A480
A480
4480
5480
4F00
0400
0800
0000
ENDCHAR
STARTCHAR 0x2467
ENCODING 12423
SWIDTH 960 0
DWIDTH 10 0
BBX 10 11 0 -2
BITMAP
0000
0000
0000
0800
0800
0E00
0800
3800
4C00
3200
0000
ENDCHAR
STARTCHAR 0x2468
ENCODING 12424
SWIDTH 960 0
DWIDTH 10 0
BBX 10 11 0 -2
BITMAP
0800
0800
0800
0F00
0800
0800
3C00
4600
4500
3800
0000
ENDCHAR
STARTCHAR 0x2469
ENCODING 12425
SWIDTH 960 0
DWIDTH 10 0
BBX 10 11 0 -2
BITMAP
0000
3000
0C00
4000
4000
4E00
7100
0100
0200
1C00
0000
ENDCHAR
STARTCHAR 0x246A
ENCODING 12426
SWIDTH 960 0
DWIDTH 10 0
BBX 10 11 0 -2
BITMAP
0000
2200
2200
2200
2200
2A00
1200
0200
0400
1800
0000
ENDCHAR
STARTCHAR 0x246B
ENCODING 12427
SWIDTH 960 0
DWIDTH 10 0
BBX 10 11 0 -2
BITMAP
0000
3E00
0400
0800
1C00
6200
1900
2500
2600
1C00
0000
ENDCHAR
STARTCHAR 0x246C
ENCODING 12428
SWIDTH 960 0
DWIDTH 10 0
BBX 10 11 0 -2
BITMAP
2000
2000
2000
E600
2900
3100
2200
6200
A200
2180
0000
ENDCHAR
STARTCHAR 0x246D
ENCODING 12429
SWIDTH 960 0
DWIDTH 10 0
BBX 10 11 0 -2
BITMAP
0000
3E00
0400
0800
1C00
6200
0100
0100
0200
1C00
0000
ENDCHAR
STARTCHAR 0x246E
ENCODING 12430
SWIDTH 960 0
DWIDTH 10 0
BBX 10 11 0 -2
BITMAP
0000
0000
0000
1000
1000
7600
1900
1100
3100
5600
0000
ENDCHAR
STARTCHAR 0x246F
ENCODING 12431
SWIDTH 960 0
DWIDTH 10 0
BBX 10 11 0 -2
BITMAP
2000
2000
2000
E600
2900
3080
2080
6080
A100
2600
0000
ENDCHAR
STARTCHAR 0x2470
ENCODING 12432
SWIDTH 960 0
DWIDTH 10 0
BBX 10 11 0 -2
BITMAP
0000
3C00
0400
1E00
2900
4880
8B80
9480
6480
0300
0000
ENDCHAR
STARTCHAR 0x2471
ENCODING 12433
SWIDTH 960 0
DWIDTH 10 0
BBX 10 11 0 -2
BITMAP
0000
3E00
0400
1C00
2200
1A00
1C00
2000
7300
8C80
0000
ENDCHAR
STARTCHAR 0x2472
ENCODING 12434
SWIDTH 960 0
DWIDTH 10 0
BBX 10 11 0 -2
BITMAP
0800
0800
7F00
1000
1980
2600
4A00
1200
1000
0F00
0000
ENDCHAR
STARTCHAR 0x2473
ENCODING 12435
SWIDTH 960 0
DWIDTH 10 0
BBX 10 11 0 -2
BITMAP
0000
0800
0800
1000
1000
1800
2400
2480
4480
4300
0000
ENDCHAR
STARTCHAR 0x2474
ENCODING 12436
SWIDTH 960 0
DWIDTH 10 0
BBX 10 11 0 -2
BITMAP
0280
3280
0C00
0000
3C00
C200
0200
0200
0C00
3000
0000
ENDCHAR
STARTCHAR 0x2521
ENCODING 12449
SWIDTH 960 0
DWIDTH 10 0
BBX 10 11 0 -2
BITMAP
0000
0000
0000
0000
3F00
0100
0A00
0800
0800
3000
0000
ENDCHAR
STARTCHAR 0x2522
ENCODING 12450
SWIDTH 960 0
DWIDTH 10 0
BBX 10 11 0 -2
BITMAP
0000
0000
7F80
0080
0900
0A00
0800
0800
1000
6000
0000
ENDCHAR
STARTCHAR 0x2523
ENCODING 12451
SWIDTH 960 0
DWIDTH 10 0
BBX 10 11 0 -2
BITMAP
0000
0000
0000
0100
0200
0C00
3400
0400
0400
0400
0000
ENDCHAR
STARTCHAR 0x2524
ENCODING 12452
SWIDTH 960 0
DWIDTH 10 0
BBX 10 11 0 -2
BITMAP
0000
0100
0100
0200
0400
1C00
6400
0400
0400
0400
0000
ENDCHAR
STARTCHAR 0x2525
ENCODING 12453
SWIDTH 960 0
DWIDTH 10 0
BBX 10 11 0 -2
BITMAP
0000
0000
0000
0800
0800
3F00
2100
2100
0200
0C00
0000
ENDCHAR
STARTCHAR 0x2526
ENCODING 12454
SWIDTH 960 0
DWIDTH 10 0
BBX 10 11 0 -2
BITMAP
0800
0800
0800
7F80
4080
4080
0100
0100
0600
1800
0000
ENDCHAR
STARTCHAR 0x2527
ENCODING 12455
SWIDTH 960 0
DWIDTH 10 0
BBX 10 11 0 -2
BITMAP
0000
0000
0000
0000
3E00
0800
0800
0800
0800
7F00
0000
ENDCHAR
STARTCHAR 0x2528
ENCODING 12456
SWIDTH 960 0
DWIDTH 10 0
BBX 10 11 0 -2
BITMAP
0000
0000
7F00
0800
0800
0800
0800
0800
FF80
0000
0000
ENDCHAR
STARTCHAR 0x2529
ENCODING 12457
SWIDTH 960 0
DWIDTH 10 0
BBX 10 11 0 -2
BITMAP
0000
0000
0000
0200
0200
3F00
0600
0A00
3200
0600
0000
ENDCHAR
STARTCHAR 0x252A
ENCODING 12458
SWIDTH 960 0
DWIDTH 10 0
BBX 10 11 0 -2
BITMAP
0400
0400
0400
FF80
0400
0C00
3400
C400
0400
1C00
0000
ENDCHAR
STARTCHAR 0x252B
ENCODING 12459
SWIDTH 960 0
DWIDTH 10 0
BBX 10 11 0 -2
BITMAP
0800
0800
0800
7F80
0880
0880
0880
1080
1080
6300
0000
ENDCHAR
STARTCHAR 0x252C
ENCODING 12460
SWIDTH 960 0
DWIDTH 10 0
BBX 10 11 0 -2
BITMAP
1280
1280
1000
FF00
1100
1100
1100
2100
2100
C600
0000
ENDCHAR
STARTCHAR 0x252D
ENCODING 12461
SWIDTH 960 0
DWIDTH 10 0
BBX 10 11 0 -2
BITMAP
0800
0800
0800
7F00
0800
0800
FF80
0400
0400
0400
0000
ENDCHAR
STARTCHAR 0x252E
ENCODING 12462
SWIDTH 960 0
DWIDTH 10 0
BBX 10 11 0 -2
BITMAP
0A80
0A80
0800
7F00
0800
0800
FF80
0400
0400
0400
0000
ENDCHAR
STARTCHAR 0x252F
ENCODING 12463
SWIDTH 960 0
DWIDTH 10 0
BBX 10 11 0 -2
BITMAP
1000
1000
1F00
1100
2100
4100
0200
0200
0C00
3000
0000
ENDCHAR
STARTCHAR 0x2530
ENCODING 12464
SWIDTH 960 0
DWIDTH 10 0
BBX 10 11 0 -2
BITMAP
0280
1280
1F00
1100
2100
4100
0200
0200
0C00
3000
0000
ENDCHAR
STARTCHAR 0x2531
ENCODING 12465
SWIDTH 960 0
DWIDTH 10 0
BBX 10 11 0 -2
BITMAP
2000
2000
2000
3F80
4400
4400
0400
0400
0800
3000
0000
ENDCHAR
STARTCHAR 0x2532
ENCODING 12466
SWIDTH 960 0
DWIDTH 10 0
BBX 10 11 0 -2
BITMAP
2280
2280
2000
3F80
4400
4400
0400
0400
0800
3000
0000
ENDCHAR
STARTCHAR 0x2533
ENCODING 12467
SWIDTH 960 0
DWIDTH 10 0
BBX 10 11 0 -2
BITMAP
0000
0000
7F00
0100
0100
0100
0100
0100
7F00
0100
0000
ENDCHAR
STARTCHAR 0x2534
ENCODING 12468
SWIDTH 960 0
DWIDTH 10 0
BBX 10 11 0 -2
BITMAP
0280
0280
7F00
0100
0100
0100
0100
0100
7F00
0100
0000
ENDCHAR
STARTCHAR 0x2535
ENCODING 12469
SWIDTH 960 0
DWIDTH 10 0
BBX 10 11 0 -2
BITMAP
0200
2200
2200
FF80
2200
2200
0200
0200
0400
1800
0000
ENDCHAR
STARTCHAR 0x2536
ENCODING 12470
SWIDTH 960 0
DWIDTH 10 0
BBX 10 11 0 -2
BITMAP
0280
2280
2200
FF80
2200
2200
0200
0200
0400
1800
0000
ENDCHAR
STARTCHAR 0x2537
ENCODING 12471
SWIDTH 960 0
DWIDTH 10 0
BBX 10 11 0 -2
BITMAP
0000
3000
0C00
0080
6080
1900
0100
0200
0C00
3000
0000
ENDCHAR
STARTCHAR 0x2538
ENCODING 12472
SWIDTH 960 0
DWIDTH 10 0
BBX 10 11 0 -2
BITMAP
0280
6280
1800
0080
6080
1900
0100
0200
0C00
3000
0000
ENDCHAR
STARTCHAR 0x2539
ENCODING 12473
SWIDTH 960 0
DWIDTH 10 0
BBX 10 11 0 -2
BITMAP
0000
0000
7E00
0200
0200
0400
0400
0A00
3100
C100
0000
ENDCHAR
STARTCHAR 0x253A
ENCODING 12474
SWIDTH 960 0
DWIDTH 10 0
BBX 10 11 0 -2
BITMAP
0280
0280
7E00
0200
0200
0400
0400
0A00
3100
C100
0000
ENDCHAR
STARTCHAR 0x253B
ENCODING 12475
SWIDTH 960 0
DWIDTH 10 0
BBX 10 11 0 -2
BITMAP
1000
1000
1000
1780
F880
1100
1200
1000
1000
0F00
0000
ENDCHAR
STARTCHAR 0x253C
ENCODING 12476
SWIDTH 960 0
DWIDTH 10 0
BBX 10 11 0 -2
BITMAP
1280
1280
1000
1780
F880
1100
1200
1000
1000
0F00
0000
ENDCHAR
STARTCHAR 0x253D
ENCODING 12477
SWIDTH 960 0
DWIDTH 10 0
BBX 10 11 0 -2
BITMAP
0000
0080
4080
4080
2080
2100
0100
0200
0C00
3000
0000
ENDCHAR
STARTCHAR 0x253E
ENCODING 12478
SWIDTH 960 0
DWIDTH 10 0
BBX 10 11 0 -2
BITMAP
0280
0280
8000
8100
4100
4200
0200
0400
1800
6000
0000
ENDCHAR
STARTCHAR 0x253F
ENCODING 12479
SWIDTH 960 0
DWIDTH 10 0
BBX 10 11 0 -2
BITMAP
1000
1000
1F00
1100
2900
4500
0200
0200
0C00
7000
0000
ENDCHAR
STARTCHAR 0x2540
ENCODING 12480
SWIDTH 960 0
DWIDTH 10 0
BBX 10 11 0 -2
BITMAP
0280
1280
1F00
1100
2900
4500
0200
0200
0C00
7000
0000
ENDCHAR
STARTCHAR 0x2541
ENCODING 12481
SWIDTH 960 0
DWIDTH 10 0
BBX 10 11 0 -2
BITMAP
0000
0700
7800
0800
0800
FF80
0800
0800
1000
6000
0000
ENDCHAR
STARTCHAR 0x2542
ENCODING 12482
SWIDTH 960 0
DWIDTH 10 0
BBX 10 11 0 -2
BITMAP
0280
0280
7C00
0800
0800
FF80
0800
0800
1000
6000
0000
ENDCHAR
STARTCHAR 0x2543
ENCODING 12483
SWIDTH 960 0
DWIDTH 10 0
BBX 10 11 0 -2
BITMAP
0000
0000
0000
0000
2900
2900
2900
0100
0200
1C00
0000
ENDCHAR
STARTCHAR 0x2544
ENCODING 12484
SWIDTH 960 0
DWIDTH 10 0
BBX 10 11 0 -2
BITMAP
0000
0000
4880
4880
4880
0080
0100
0100
0600
3800
0000
ENDCHAR
STARTCHAR 0x2545
ENCODING 12485
SWIDTH 960 0
DWIDTH 10 0
BBX 10 11 0 -2
BITMAP
0280
0280
4800
4880
4880
0080
0100
0100
0600
3800
0000
ENDCHAR
STARTCHAR 0x2546
ENCODING 12486
SWIDTH 960 0
DWIDTH 10 0
BBX 10 11 0 -2
BITMAP
0000
7F00
0000
0000
FF80
0800
0800
0800
1000
6000
0000
ENDCHAR
STARTCHAR 0x2547
ENCODING 12487
SWIDTH 960 0
DWIDTH 10 0
BBX 10 11 0 -2
BITMAP
0280
7E80
0000
0000
FF80
0800
0800
0800
1000
6000
0000
ENDCHAR
STARTCHAR 0x2548
ENCODING 12488
SWIDTH 960 0
DWIDTH 10 0
BBX 10 11 0 -2
BITMAP
0000
2000
2000
2000
3000
2C00
2300
2000
2000
2000
0000
ENDCHAR
STARTCHAR 0x2549
ENCODING 12489
SWIDTH 960 0
DWIDTH 10 0
BBX 10 11 0 -2
BITMAP
0000
2280
2280
2000
3000
2C00
2300
2000
2000
2000
0000
ENDCHAR
STARTCHAR 0x254A
ENCODING 12490
SWIDTH 960 0
DWIDTH 10 0
BBX 10 11 0 -2
BITMAP
0400
0400
0400
7F80
0400
0400
0400
0400
0800
3000
0000
ENDCHAR
STARTCHAR 0x254B
ENCODING 12491
SWIDTH 960 0
DWIDTH 10 0
BBX 10 11 0 -2
BITMAP
0000
0000
3F00
0000
0000
0000
0000
0000
7F80
0000
0000
ENDCHAR
STARTCHAR 0x254C
ENCODING 12492
SWIDTH 960 0
DWIDTH 10 0
BBX 10 11 0 -2
BITMAP
0000
0000
7F00
0100
0100
1200
0A00
0400
1A00
6100
0000
ENDCHAR
STARTCHAR 0x254D
ENCODING 12493
SWIDTH 960 0
DWIDTH 10 0
BBX 10 11 0 -2
BITMAP
0800
0800
0800
7F00
0200
0400
1A00
E900
0880
0800
0000
ENDCHAR
STARTCHAR 0x254E
ENCODING 12494
SWIDTH 960 0
DWIDTH 10 0
BBX 10 11 0 -2
BITMAP
0000
0000
0100
0100
0100
0200
0200
0400
1800
6000
0000
ENDCHAR
STARTCHAR 0x254F
ENCODING 12495
SWIDTH 960 0
DWIDTH 10 0
BBX 10 11 0 -2
BITMAP
0000
0000
1000
1100
1100
2100
2080
2080
4080
4080
0000
ENDCHAR
STARTCHAR 0x2550
ENCODING 12496
SWIDTH 960 0
DWIDTH 10 0
BBX 10 11 0 -2
BITMAP
0000
0280
1280
1000
1000
2100
2100
2080
4080
4080
0000
ENDCHAR
STARTCHAR 0x2551
ENCODING 12497
SWIDTH 960 0
DWIDTH 10 0
BBX 10 11 0 -2
BITMAP
0300
0480
2480
2300
2000
4200
4200
4100
8100
8100
0000
ENDCHAR
STARTCHAR 0x2552
ENCODING 12498
SWIDTH 960 0
DWIDTH 10 0
BBX 10 11 0 -2
BITMAP
0000
4000
4000
4300
7C00
4000
4000
4000
4000
3F00
0000
ENDCHAR
STARTCHAR 0x2553
ENCODING 12499
SWIDTH 960 0
DWIDTH 10 0
BBX 10 11 0 -2
BITMAP
0280
4280
4000
4000
4700
7800
4000
4000
4000
3F00
0000
ENDCHAR
STARTCHAR 0x2554
ENCODING 12500
SWIDTH 960 0
DWIDTH 10 0
BBX 10 11 0 -2
BITMAP
0300
4480
4480
4300
4C00
7000
4000
4000
4000
3F00
0000
ENDCHAR
STARTCHAR 0x2555
ENCODING 12501
SWIDTH 960 0
DWIDTH 10 0
BBX 10 11 0 -2
BITMAP
0000
0000
7F80
0080
0080
0080
0100
0100
0600
3800
0000
ENDCHAR
STARTCHAR 0x2556
ENCODING 12502
SWIDTH 960 0
DWIDTH 10 0
BBX 10 11 0 -2
BITMAP
0280
0280
FE00
0100
0100
0100
0200
0200
0C00
7000
0000
ENDCHAR
STARTCHAR 0x2557
ENCODING 12503
SWIDTH 960 0
DWIDTH 10 0
BBX 10 11 0 -2
BITMAP
0300
0480
FC80
0300
0200
0200
0400
0400
1800
6000
0000
ENDCHAR
STARTCHAR 0x2558
ENCODING 12504
SWIDTH 960 0
DWIDTH 10 0
BBX 10 11 0 -2
BITMAP
0000
0000
0000
3000
4800
8400
0200
0180
0000
0000
0000
ENDCHAR
STARTCHAR 0x2559
ENCODING 12505
SWIDTH 960 0
DWIDTH 10 0
BBX 10 11 0 -2
BITMAP
0000
0280
0280
0000
3000
4800
8400
0200
0180
0000
0000
ENDCHAR
STARTCHAR 0x255A
ENCODING 12506
SWIDTH 960 0
DWIDTH 10 0
BBX 10 11 0 -2
BITMAP
0000
0300
0480
0480
3300
4800
8400
0200
0180
0000
0000
ENDCHAR
STARTCHAR 0x255B
ENCODING 12507
SWIDTH 960 0
DWIDTH 10 0
BBX 10 11 0 -2
BITMAP
0800
0800
0800
FF80
0800
0800
4900
8880
0800
1800
0000
ENDCHAR
STARTCHAR 0x255C
ENCODING 12508
SWIDTH 960 0
DWIDTH 10 0
BBX 10 11 0 -2
BITMAP
0A80
0A80
0800
FF80
0800
0800
4900
8880
0800
1800
0000
ENDCHAR
STARTCHAR 0x255D
ENCODING 12509
SWIDTH 960 0
DWIDTH 10 0
BBX 10 11 0 -2
BITMAP
0980
0A40
0A40
FF80
0800
0800
4900
8880
0800
1800
0000
ENDCHAR
STARTCHAR 0x255E
ENCODING 12510
SWIDTH 960 0
DWIDTH 10 0
BBX 10 11 0 -2
BITMAP
0000
0000
7F80
0080
0100
2200
1400
0800
0400
0200
0000
ENDCHAR
STARTCHAR 0x255F
ENCODING 12511
SWIDTH 960 0
DWIDTH 10 0
BBX 10 11 0 -2
BITMAP
0000
3800
0700
0000
1800
0600
0000
0000
3800
0700
0000
ENDCHAR
STARTCHAR 0x2560
ENCODING 12512
SWIDTH 960 0
DWIDTH 10 0
BBX 10 11 0 -2
BITMAP
0000
1000
1000
1000
2100
2100
2100
4680
7880
0080
0000
ENDCHAR
STARTCHAR 0x2561
ENCODING 12513
SWIDTH 960 0
DWIDTH 10 0
BBX 10 11 0 -2
BITMAP
0000
0100
0100
1100
0900
0600
0200
0500
1880
6000
0000
ENDCHAR
STARTCHAR 0x2562
ENCODING 12514
SWIDTH 960 0
DWIDTH 10 0
BBX 10 11 0 -2
BITMAP
0000
0000
7F00
1000
1000
FF80
1000
1000
1000
0F00
0000
ENDCHAR
STARTCHAR 0x2563
ENCODING 12515
SWIDTH 960 0
DWIDTH 10 0
BBX 10 11 0 -2
BITMAP
0000
0000
0000
1000
1000
1700
3900
0A00
0800
0800
0000
ENDCHAR
STARTCHAR 0x2564
ENCODING 12516
SWIDTH 960 0
DWIDTH 10 0
BBX 10 11 0 -2
BITMAP
0000
1000
1380
1C80
F080
1100
0900
0800
0800
0800
0000
ENDCHAR
STARTCHAR 0x2565
ENCODING 12517
SWIDTH 960 0
DWIDTH 10 0
BBX 10 11 0 -2
BITMAP
0000
0000
0000
0000
3C00
0400
0400
0400
7F00
0000
0000
ENDCHAR
STARTCHAR 0x2566
ENCODING 12518
SWIDTH 960 0
DWIDTH 10 0
BBX 10 11 0 -2
BITMAP
0000
0000
7E00
0200
0200
0200
0200
0200
FF80
0000
0000
ENDCHAR
STARTCHAR 0x2567
ENCODING 12519
SWIDTH 960 0
DWIDTH 10 0
BBX 10 11 0 -2
BITMAP
0000
0000
0000
0000
0000
3E00
0200
3E00
0200
3E00
0000
ENDCHAR
STARTCHAR 0x2568
ENCODING 12520
SWIDTH 960 0
DWIDTH 10 0
BBX 10 11 0 -2
BITMAP
0000
0000
7F00
0100
0100
7F00
0100
0100
7F00
0100
0000
ENDCHAR
STARTCHAR 0x2569
ENCODING 12521
SWIDTH 960 0
DWIDTH 10 0
BBX 10 11 0 -2
BITMAP
0000
3F00
0000
0000
7F80
0080
0080
0100
0600
1800
0000
ENDCHAR
STARTCHAR 0x256A
ENCODING 12522
SWIDTH 960 0
DWIDTH 10 0
BBX 10 11 0 -2
BITMAP
0000
2200
2200
2200
2200
2200
0200
0200
0400
1800
0000
ENDCHAR
STARTCHAR 0x256B
ENCODING 12523
SWIDTH 960 0
DWIDTH 10 0
BBX 10 11 0 -2
BITMAP
0000
0800
4800
4800
4880
4880
4900
4900
8A00
8C00
0000
ENDCHAR
STARTCHAR 0x256C
ENCODING 12524
SWIDTH 960 0
DWIDTH 10 0
BBX 10 11 0 -2
BITMAP
0000
2000
2000
2000
2000
2000
2080
2100
2600
3800
0000
ENDCHAR
STARTCHAR 0x256D
ENCODING 12525
SWIDTH 960 0
DWIDTH 10 0
BBX 10 11 0 -2
BITMAP
0000
0000
7F80
4080
4080
4080
4080
4080
7F80
4080
0000
ENDCHAR
STARTCHAR 0x256E
ENCODING 12526
SWIDTH 960 0
DWIDTH 10 0
BBX 10 11 0 -2
BITMAP
0000
0000
0000
0000
3F00
2100
2100
0100
0200
0C00
0000
ENDCHAR
STARTCHAR 0x256F
ENCODING 12527
SWIDTH 960 0
DWIDTH 10 0
BBX 10 11 0 -2
BITMAP
0000
0000
7F80
4080
4080
4080
0100
0100
0600
1800
0000
ENDCHAR
STARTCHAR 0x2570
ENCODING 12528
SWIDTH 960 0
DWIDTH 10 0
BBX 10 11 0 -2
BITMAP
0000
0400
0400
7F00
2400
2400
2400
FF80
0400
0400
0000
ENDCHAR
STARTCHAR 0x2571
ENCODING 12529
SWIDTH 960 0
DWIDTH 10 0
BBX 10 11 0 -2
BITMAP
0000
0000
7F00
0100
0200
0C00
0800
0800
FF80
0000
0000
ENDCHAR
STARTCHAR 0x2572
ENCODING 12530
SWIDTH 960 0
DWIDTH 10 0
BBX 10 11 0 -2
BITMAP
0000
0000
7F00
0100
0100
7F00
0100
0200
0C00
3000
0000
ENDCHAR
STARTCHAR 0x2573
ENCODING 12531
SWIDTH 960 0
DWIDTH 10 0
BBX 10 11 0 -2
BITMAP
0000
0000
6000
1880
0080
0100
0100
0200
0C00
3000
0000
ENDCHAR
STARTCHAR 0x2574
ENCODING 12532
SWIDTH 960 0
DWIDTH 10 0
BBX 10 11 0 -2
BITMAP
1280
1280
1000
FF00
8100
8100
0200
0200
0C00
3000
0000
ENDCHAR
STARTCHAR 0x2575
ENCODING 12533
SWIDTH 960 0
DWIDTH 10 0
BBX 10 11 0 -2
BITMAP
0000
0000
0000
0800
0800
7F00
1100
1100
2100
2600
0000
ENDCHAR
STARTCHAR 0x2576
ENCODING 12534
SWIDTH 960 0
DWIDTH 10 0
BBX 10 11 0 -2
BITMAP
0000
0000
0000
2000
2000
3F00
4400
0400
0800
3000
0000
ENDCHAR
STARTCHAR 0x2621
ENCODING 913
SWIDTH 960 0
DWIDTH 10 0
BBX 10 11 0 -2
BITMAP
0000
3800
0800
1400
1400
2200
3E00
4100
4100
0000
0000
ENDCHAR
STARTCHAR 0x2622
ENCODING 914
SWIDTH 960 0
DWIDTH 10 0
BBX 10 11 0 -2
BITMAP
0000
7C00
2200
2200
3E00
2100
2100
2100
7E00
0000
0000
ENDCHAR
STARTCHAR 0x2623
ENCODING 915
SWIDTH 960 0
DWIDTH 10 0
BBX 10 11 0 -2
BITMAP
0000
3F00
1100
1000
1000
1000
1000
1000
3C00
0000
0000
ENDCHAR
STARTCHAR 0x2624
ENCODING 916
SWIDTH 960 0
DWIDTH 10 0
BBX 10 11 0 -2
BITMAP
0000
0800
0800
1400
1400
2200
2200
4100
7F00
0000
0000
ENDCHAR
STARTCHAR 0x2625
ENCODING 917
SWIDTH 960 0
DWIDTH 10 0
BBX 10 11 0 -2
BITMAP
0000
7F00
2100
2400
3C00
2400
2000
2100
7F00
0000
0000
ENDCHAR
STARTCHAR 0x2626
ENCODING 918
SWIDTH 960 0
DWIDTH 10 0
BBX 10 11 0 -2
BITMAP
0000
3F00
2100
0200
0400
0800
1100
2100
3F00
0000
0000
ENDCHAR
STARTCHAR 0x2627
ENCODING 919
SWIDTH 960 0
DWIDTH 10 0
BBX 10 11 0 -2
BITMAP
0000
7380
2100
2100
3F00
2100
2100
2100
7380
0000
0000
ENDCHAR
STARTCHAR 0x2628
ENCODING 920
SWIDTH 960 0
DWIDTH 10 0
BBX 10 11 0 -2
BITMAP
0000
1E00
2100
5280
5E80
5280
4080
2100
1E00
0000
0000
ENDCHAR
STARTCHAR 0x2629
ENCODING 921
SWIDTH 960 0
DWIDTH 10 0
BBX 10 11 0 -2
BITMAP
0000
1C00
0800
0800
0800
0800
0800
0800
1C00
0000
0000
ENDCHAR
STARTCHAR 0x262A
ENCODING 922
SWIDTH 960 0
DWIDTH 10 0
BBX 10 11 0 -2
BITMAP
0000
7700
2400
2800
3000
2800
2400
2200
7700
0000
0000
ENDCHAR
STARTCHAR 0x262B
ENCODING 923
SWIDTH 960 0
DWIDTH 10 0
BBX 10 11 0 -2
BITMAP
0000
3800
0800
1400
1400
2200
2200
4100
4700
0000
0000
ENDCHAR
STARTCHAR 0x262C
ENCODING 924
SWIDTH 960 0
DWIDTH 10 0
BBX 10 11 0 -2
BITMAP
0000
E380
6300
5500
5500
4900
4900
4100
E380
0000
0000
ENDCHAR
STARTCHAR 0x262D
ENCODING 925
SWIDTH 960 0
DWIDTH 10 0
BBX 10 11 0 -2
BITMAP
0000
7380
3100
2900
2900
2500
2500
2300
7300
0000
0000
ENDCHAR
STARTCHAR 0x262E
ENCODING 926
SWIDTH 960 0
DWIDTH 10 0
BBX 10 11 0 -2
BITMAP
0000
1F80
2100
0000
1E00
0000
0000
2100
7E00
0000
0000
ENDCHAR
STARTCHAR 0x262F
ENCODING 927
SWIDTH 960 0
DWIDTH 10 0
BBX 10 11 0 -2
BITMAP
0000
1C00
2200
4100
4100
4100
4100
2200
1C00
0000
0000
ENDCHAR
STARTCHAR 0x2630
ENCODING 928
SWIDTH 960 0
DWIDTH 10 0
BBX 10 11 0 -2
BITMAP
0000
7F00
2200
2200
2200
2200
2200
2200
7700
0000
0000
ENDCHAR
STARTCHAR 0x2631
ENCODING 929
SWIDTH 960 0
DWIDTH 10 0
BBX 10 11 0 -2
BITMAP
0000
3E00
1100
1100
1100
1E00
1000
1000
3800
0000
0000
ENDCHAR
STARTCHAR 0x2632
ENCODING 931
SWIDTH 960 0
DWIDTH 10 0
BBX 10 11 0 -2
BITMAP
0000
3F00
1100
0800
0400
0800
1100
2100
3F00
0000
0000
ENDCHAR
STARTCHAR 0x2633
ENCODING 932
SWIDTH 960 0
DWIDTH 10 0
BBX 10 11 0 -2
BITMAP
0000
7F00
4900
4900
0800
0800
0800
0800
1C00
0000
0000
ENDCHAR
STARTCHAR 0x2634
ENCODING 933
SWIDTH 960 0
DWIDTH 10 0
BBX 10 11 0 -2
BITMAP
0000
6300
9480
0800
0800
0800
0800
0800
1C00
0000
0000
ENDCHAR
STARTCHAR 0x2635
ENCODING 934
SWIDTH 960 0
DWIDTH 10 0
BBX 10 11 0 -2
BITMAP
0000
3E00
0800
3E00
4900
4900
3E00
0800
3E00
0000
0000
ENDCHAR
STARTCHAR 0x2636
ENCODING 935
SWIDTH 960 0
DWIDTH 10 0
BBX 10 11 0 -2
BITMAP
0000
7700
2200
1400
0800
0800
1400
2200
7700
0000
0000
ENDCHAR
STARTCHAR 0x2637
ENCODING 936
SWIDTH 960 0
DWIDTH 10 0
BBX 10 11 0 -2
BITMAP
0000
1C00
4900
AA80
2A00
1C00
0800
0800
1C00
0000
0000
ENDCHAR
STARTCHAR 0x2638
ENCODING 937
SWIDTH 960 0
DWIDTH 10 0
BBX 10 11 0 -2
BITMAP
0000
1C00
2200
4100
4100
4100
2200
5500
7700
0000
0000
ENDCHAR
STARTCHAR 0x2641
ENCODING 945
SWIDTH 960 0
DWIDTH 10 0
BBX 10 11 0 -2
BITMAP
0000
0000
0000
1880
2500
4600
4400
4C00
3200
0000
0000
ENDCHAR
STARTCHAR 0x2642
ENCODING 946
SWIDTH 960 0
DWIDTH 10 0
BBX 10 11 0 -2
BITMAP
0000
0E00
1100
1100
2E00
2200
2100
5100
4E00
4000
4000
ENDCHAR
STARTCHAR 0x2643
ENCODING 947
SWIDTH 960 0
DWIDTH 10 0
BBX 10 11 0 -2
BITMAP
0000
0000
0000
3300
4C00
0800
1000
1000
2000
2000
0000
ENDCHAR
STARTCHAR 0x2644
ENCODING 948
SWIDTH 960 0
DWIDTH 10 0
BBX 10 11 0 -2
BITMAP
0000
0E00
1100
0800
1400
2200
4200
4400
3800
0000
0000
ENDCHAR
STARTCHAR 0x2645
ENCODING 949
SWIDTH 960 0
DWIDTH 10 0
BBX 10 11 0 -2
BITMAP
0000
0000
0000
0E00
1100
1C00
2000
2100
1E00
0000
0000
ENDCHAR
STARTCHAR 0x2646
ENCODING 950
SWIDTH 960 0
DWIDTH 10 0
BBX 10 11 0 -2
BITMAP
0000
1300
2400
1800
1000
2000
2000
1000
0800
0400
3800
ENDCHAR
STARTCHAR 0x2647
ENCODING 951
SWIDTH 960 0
DWIDTH 10 0
BBX 10 11 0 -2
BITMAP
0000
0000
0000
3600
5900
1100
2200
2200
4400
0400
0400
ENDCHAR
STARTCHAR 0x2648
ENCODING 952
SWIDTH 960 0
DWIDTH 10 0
BBX 10 11 0 -2
BITMAP
0000
0E00
1100
2100
3F00
4200
4200
4400
3800
0000
0000
ENDCHAR
STARTCHAR 0x2649
ENCODING 953
SWIDTH 960 0
DWIDTH 10 0
BBX 10 11 0 -2
BITMAP
0000
0000
1000
1000
2000
2000
4100
4600
3800
0000
0000
ENDCHAR
STARTCHAR 0x264A
ENCODING 954
SWIDTH 960 0
DWIDTH 10 0
BBX 10 11 0 -2
BITMAP
0000
0000
0000
1180
1200
2400
3800
4900
4600
0000
0000
ENDCHAR
STARTCHAR 0x264B
ENCODING 955
SWIDTH 960 0
DWIDTH 10 0
BBX 10 11 0 -2
BITMAP
0000
1800
0400
0400
0400
1C00
2400
4200
8180
0000
0000
ENDCHAR
STARTCHAR 0x264C
ENCODING 956
SWIDTH 960 0
DWIDTH 10 0
BBX 10 11 0 -2
BITMAP
0000
0000
0000
1100
1100
2200
2200
2480
5B00
4000
4000
ENDCHAR
STARTCHAR 0x264D
ENCODING 957
SWIDTH 960 0
DWIDTH 10 0
BBX 10 11 0 -2
BITMAP
0000
0000
0000
6080
1080
1100
2200
2C00
3000
0000
0000
ENDCHAR
STARTCHAR 0x264E
ENCODING 958
SWIDTH 960 0
DWIDTH 10 0
BBX 10 11 0 -2
BITMAP
0000
0700
0800
1F00
2000
3E00
4000
3800
0400
0400
3800
ENDCHAR
STARTCHAR 0x264F
ENCODING 959
SWIDTH 960 0
DWIDTH 10 0
BBX 10 11 0 -2
BITMAP
0000
0000
0000
0E00
1100
2100
2100
2200
1C00
0000
0000
ENDCHAR
STARTCHAR 0x2650
ENCODING 960
SWIDTH 960 0
DWIDTH 10 0
BBX 10 11 0 -2
BITMAP
0000
0000
0080
3F00
5200
1200
2400
2480
4300
0000
0000
ENDCHAR
STARTCHAR 0x2651
ENCODING 961
SWIDTH 960 0
DWIDTH 10 0
BBX 10 11 0 -2
BITMAP
0000
0000
0000
0E00
1100
2100
2100
2200
5C00
4000
4000
ENDCHAR
STARTCHAR 0x2652
ENCODING 963
SWIDTH 960 0
DWIDTH 10 0
BBX 10 11 0 -2
BITMAP
0000
0000
0080
1F00
2200
4200
4200
4400
3800
0000
0000
ENDCHAR
STARTCHAR 0x2653
ENCODING 964
SWIDTH 960 0
DWIDTH 10 0
BBX 10 11 0 -2
BITMAP
0000
0000
0080
3F00
4800
0800
1080
1100
0E00
0000
0000
ENDCHAR
STARTCHAR 0x2654
ENCODING 965
SWIDTH 960 0
DWIDTH 10 0
BBX 10 11 0 -2
BITMAP
0000
0000
2200
2100
2100
4200
4200
4400
3800
0000
0000
ENDCHAR
STARTCHAR 0x2655
ENCODING 966
SWIDTH 960 0
DWIDTH 10 0
BBX 10 11 0 -2
BITMAP
0000
0400
0400
1E00
2900
4900
4900
4A00
3C00
1000
1000
ENDCHAR
STARTCHAR 0x2656
ENCODING 967
SWIDTH 960 0
DWIDTH 10 0
BBX 10 11 0 -2
BITMAP
0000
0000
0000
3080
0900
0A00
0C00
1800
2800
4400
8300
ENDCHAR
STARTCHAR 0x2657
ENCODING 968
SWIDTH 960 0
DWIDTH 10 0
BBX 10 11 0 -2
BITMAP
0000
0400
0400
C480
2880
2900
4900
4A00
3C00
1000
1000
ENDCHAR
STARTCHAR 0x2658
ENCODING 969
SWIDTH 960 0
DWIDTH 10 0
BBX 10 11 0 -2
BITMAP
0000
0000
0000
2100
4880
4880
8880
9480
6300
0000
0000
ENDCHAR
STARTCHAR 0x2721
ENCODING 1040
SWIDTH 960 0
DWIDTH 10 0
BBX 10 11 0 -2
BITMAP
0000
3800
0800
1400
1400
2200
3E00
4100
4100
0000
0000
ENDCHAR
STARTCHAR 0x2722
ENCODING 1041
SWIDTH 960 0
DWIDTH 10 0
BBX 10 11 0 -2
BITMAP
0000
7E00
2100
2000
3E00
2100
2100
2100
7E00
0000
0000
ENDCHAR
STARTCHAR 0x2723
ENCODING 1042
SWIDTH 960 0
DWIDTH 10 0
BBX 10 11 0 -2
BITMAP
0000
7C00
2200
2200
3E00
2100
2100
2100
7E00
0000
0000
ENDCHAR
STARTCHAR 0x2724
ENCODING 1043
SWIDTH 960 0
DWIDTH 10 0
BBX 10 11 0 -2
BITMAP
0000
3F00
1100
1080
1000
1000
1000
1000
3C00
0000
0000
ENDCHAR
STARTCHAR 0x2725
ENCODING 1044
SWIDTH 960 0
DWIDTH 10 0
BBX 10 11 0 -2
BITMAP
0000
3F00
1200
1200
1200
1200
2200
2200
7F00
8080
0000
ENDCHAR
STARTCHAR 0x2726
ENCODING 1045
SWIDTH 960 0
DWIDTH 10 0
BBX 10 11 0 -2
BITMAP
0000
7E00
2100
2400
3C00
2400
2000
2100
7F00
0000
0000
ENDCHAR
STARTCHAR 0x2727
ENCODING 1025
SWIDTH 960 0
DWIDTH 10 0
BBX 10 11 0 -2
BITMAP
3300
0000
7E00
2100
2400
3C00
2400
2100
7F00
0000
0000
ENDCHAR
STARTCHAR 0x2728
ENCODING 1046
SWIDTH 960 0
DWIDTH 10 0
BBX 10 11 0 -2
BITMAP
0000
1C00
4900
AA80
2A00
1C00
2A00
4900
DD80
0000
0000
ENDCHAR
STARTCHAR 0x2729
ENCODING 1047
SWIDTH 960 0
DWIDTH 10 0
BBX 10 11 0 -2
BITMAP
0000
1E00
6100
4100
0E00
0200
4100
6100
1E00
0000
0000
ENDCHAR
STARTCHAR 0x272A
ENCODING 1048
SWIDTH 960 0
DWIDTH 10 0
BBX 10 11 0 -2
BITMAP
0000
7380
2100
2300
2500
2900
3100
2100
7380
0000
0000
ENDCHAR
STARTCHAR 0x272B
ENCODING 1049
SWIDTH 960 0
DWIDTH 10 0
BBX 10 11 0 -2
BITMAP
1200
0C00
7380
2100
2300
2D00
3100
2100
7380
0000
0000
ENDCHAR
STARTCHAR 0x272C
ENCODING 1050
SWIDTH 960 0
DWIDTH 10 0
BBX 10 11 0 -2
BITMAP
0000
7100
2280
2400
3800
2400
2200
2100
7380
0000
0000
ENDCHAR
STARTCHAR 0x272D
ENCODING 1051
SWIDTH 960 0
DWIDTH 10 0
BBX 10 11 0 -2
BITMAP
0000
3F80
0900
0900
0900
0900
8900
9100
6380
0000
0000
ENDCHAR
STARTCHAR 0x272E
ENCODING 1052
SWIDTH 960 0
DWIDTH 10 0
BBX 10 11 0 -2
BITMAP
0000
6300
2200
2200
3600
5500
4900
4900
E380
0000
0000
ENDCHAR
STARTCHAR 0x272F
ENCODING 1053
SWIDTH 960 0
DWIDTH 10 0
BBX 10 11 0 -2
BITMAP
0000
7380
2100
2100
3F00
2100
2100
2100
7380
0000
0000
ENDCHAR
STARTCHAR 0x2730
ENCODING 1054
SWIDTH 960 0
DWIDTH 10 0
BBX 10 11 0 -2
BITMAP
0000
1C00
2200
4100
4100
4100
4100
2200
1C00
0000
0000
ENDCHAR
STARTCHAR 0x2731
ENCODING 1055
SWIDTH 960 0
DWIDTH 10 0
BBX 10 11 0 -2
BITMAP
0000
7F80
2100
2100
2100
2100
2100
2100
7380
0000
0000
ENDCHAR
STARTCHAR 0x2732
ENCODING 1056
SWIDTH 960 0
DWIDTH 10 0
BBX 10 11 0 -2
BITMAP
0000
7E00
2100
2100
2100
3E00
2000
2000
7000
0000
0000
ENDCHAR
STARTCHAR 0x2733
ENCODING 1057
SWIDTH 960 0
DWIDTH 10 0
BBX 10 11 0 -2
BITMAP
0000
1D00
2300
4100
4000
4000
4000
2100
1E00
0000
0000
ENDCHAR
STARTCHAR 0x2734
ENCODING 1058
SWIDTH 960 0
DWIDTH 10 0
BBX 10 11 0 -2
BITMAP
0000
7F00
4900
8880
0800
0800
0800
0800
1C00
0000
0000
ENDCHAR
STARTCHAR 0x2735
ENCODING 1059
SWIDTH 960 0
DWIDTH 10 0
BBX 10 11 0 -2
BITMAP
0000
7380
2100
1100
1200
0A00
0A00
2400
2400
1800
0000
ENDCHAR
STARTCHAR 0x2736
ENCODING 1060
SWIDTH 960 0
DWIDTH 10 0
BBX 10 11 0 -2
BITMAP
0000
3E00
0800
7F00
8880
8880
7F00
0800
3E00
0000
0000
ENDCHAR
STARTCHAR 0x2737
ENCODING 1061
SWIDTH 960 0
DWIDTH 10 0
BBX 10 11 0 -2
BITMAP
0000
7380
2100
1200
0C00
1200
2100
2100
7380
0000
0000
ENDCHAR
STARTCHAR 0x2738
ENCODING 1062
SWIDTH 960 0
DWIDTH 10 0
BBX 10 11 0 -2
BITMAP
0000
E700
4200
4200
4200
4200
4200
4200
FF00
0080
0000
ENDCHAR
STARTCHAR 0x2739
ENCODING 1063
SWIDTH 960 0
DWIDTH 10 0
BBX 10 11 0 -2
BITMAP
0000
7380
2100
2100
2100
2300
1D00
0100
0380
0000
0000
ENDCHAR
STARTCHAR 0x273A
ENCODING 1064
SWIDTH 960 0
DWIDTH 10 0
BBX 10 11 0 -2
BITMAP
0000
DB80
4900
4900
4900
4900
4900
4900
FF80
0000
0000
ENDCHAR
STARTCHAR 0x273B
ENCODING 1065
SWIDTH 960 0
DWIDTH 10 0
BBX 10 11 0 -2
BITMAP
0000
DB80
4900
4900
4900
4900
4900
4900
FF80
0040
0000
ENDCHAR
STARTCHAR 0x273C
ENCODING 1066
SWIDTH 960 0
DWIDTH 10 0
BBX 10 11 0 -2
BITMAP
0000
7C00
5000
9000
1F00
1080
1080
1080
3F00
0000
0000
ENDCHAR
STARTCHAR 0x273D
ENCODING 1067
SWIDTH 960 0
DWIDTH 10 0
BBX 10 11 0 -2
BITMAP
0000
E380
4100
4100
7900
4500
4500
4500
FB80
0000
0000
ENDCHAR
STARTCHAR 0x273E
ENCODING 1068
SWIDTH 960 0
DWIDTH 10 0
BBX 10 11 0 -2
BITMAP
0000
7800
2000
2000
3E00
2100
2100
2100
7E00
0000
0000
ENDCHAR
STARTCHAR 0x273F
ENCODING 1069
SWIDTH 960 0
DWIDTH 10 0
BBX 10 11 0 -2
BITMAP
0000
5C00
6200
4100
1900
2700
0100
4200
3C00
0000
0000
ENDCHAR
STARTCHAR 0x2740
ENCODING 1070
SWIDTH 960 0
DWIDTH 10 0
BBX 10 11 0 -2
BITMAP
0000
E700
4880
4880
7880
4880
4880
4880
E700
0000
0000
ENDCHAR
STARTCHAR 0x2741
ENCODING 1071
SWIDTH 960 0
DWIDTH 10 0
BBX 10 11 0 -2
BITMAP
0000
3F00
4200
4200
4200
3E00
0A00
1200
6700
0000
0000
ENDCHAR
STARTCHAR 0x2751
ENCODING 1072
SWIDTH 960 0
DWIDTH 10 0
BBX 10 11 0 -2
BITMAP
0000
0000
0000
3C00
0200
3E00
4200
4600
3900
0000
0000
ENDCHAR
STARTCHAR 0x2752
ENCODING 1073
SWIDTH 960 0
DWIDTH 10 0
BBX 10 11 0 -2
BITMAP
0100
0E00
1000
2E00
3100
2100
2100
2100
1E00
0000
0000
ENDCHAR
STARTCHAR 0x2753
ENCODING 1074
SWIDTH 960 0
DWIDTH 10 0
BBX 10 11 0 -2
BITMAP
0000
0000
0000
7E00
2100
3E00
2100
2100
7E00
0000
0000
ENDCHAR
STARTCHAR 0x2754
ENCODING 1075
SWIDTH 960 0
DWIDTH 10 0
BBX 10 11 0 -2
BITMAP
0000
0000
0000
7E00
2200
2100
2000
2000
7000
0000
0000
ENDCHAR
STARTCHAR 0x2755
ENCODING 1076
SWIDTH 960 0
DWIDTH 10 0
BBX 10 11 0 -2
BITMAP
0000
0000
0000
3F00
1200
1200
1200
2200
7F00
8080
0000
ENDCHAR
STARTCHAR 0x2756
ENCODING 1077
SWIDTH 960 0
DWIDTH 10 0
BBX 10 11 0 -2
BITMAP
0000
0000
0000
1E00
2100
3F00
2000
2100
1E00
0000
0000
ENDCHAR
STARTCHAR 0x2757
ENCODING 1105
SWIDTH 960 0
DWIDTH 10 0
BBX 10 11 0 -2
BITMAP
3300
0000
0000
1E00
2100
3F00
2000
2100
1E00
0000
0000
ENDCHAR
STARTCHAR 0x2758
ENCODING 1078
SWIDTH 960 0
DWIDTH 10 0
BBX 10 11 0 -2
BITMAP
0000
0000
0000
4900
AA80
1C00
2A00
2A00
C980
0000
0000
ENDCHAR
STARTCHAR 0x2759
ENCODING 1079
SWIDTH 960 0
DWIDTH 10 0
BBX 10 11 0 -2
BITMAP
0000
0000
0000
3E00
4100
0E00
0100
4100
3E00
0000
0000
ENDCHAR
STARTCHAR 0x275A
ENCODING 1080
SWIDTH 960 0
DWIDTH 10 0
BBX 10 11 0 -2
BITMAP
0000
0000
0000
7180
2300
2500
2900
3100
6380
0000
0000
ENDCHAR
STARTCHAR 0x275B
ENCODING 1081
SWIDTH 960 0
DWIDTH 10 0
BBX 10 11 0 -2
BITMAP
1200
0C00
0000
6180
2300
2500
2900
3100
6380
0000
0000
ENDCHAR
STARTCHAR 0x275C
ENCODING 1082
SWIDTH 960 0
DWIDTH 10 0
BBX 10 11 0 -2
BITMAP
0000
0000
0000
7300
2480
3800
2600
2100
7380
0000
0000
ENDCHAR
STARTCHAR 0x275D
ENCODING 1083
SWIDTH 960 0
DWIDTH 10 0
BBX 10 11 0 -2
BITMAP
0000
0000
0000
3F80
1100
1100
9100
9100
6380
0000
0000
ENDCHAR
STARTCHAR 0x275E
ENCODING 1084
SWIDTH 960 0
DWIDTH 10 0
BBX 10 11 0 -2
BITMAP
0000
0000
0000
6180
2100
3300
2D00
2100
7380
0000
0000
ENDCHAR
STARTCHAR 0x275F
ENCODING 1085
SWIDTH 960 0
DWIDTH 10 0
BBX 10 11 0 -2
BITMAP
0000
0000
0000
7380
2100
3F00
2100
2100
7380
0000
0000
ENDCHAR
STARTCHAR 0x2760
ENCODING 1086
SWIDTH 960 0
DWIDTH 10 0
BBX 10 11 0 -2
BITMAP
0000
0000
0000
1E00
2100
2100
2100
2100
1E00
0000
0000
ENDCHAR
STARTCHAR 0x2761
ENCODING 1087
SWIDTH 960 0
DWIDTH 10 0
BBX 10 11 0 -2
BITMAP
0000
0000
0000
7F80
2100
2100
2100
2100
7380
0000
0000
ENDCHAR
STARTCHAR 0x2762
ENCODING 1088
SWIDTH 960 0
DWIDTH 10 0
BBX 10 11 0 -2
BITMAP
0000
0000
0000
6E00
3100
2100
2100
3100
2E00
2000
7000
ENDCHAR
STARTCHAR 0x2763
ENCODING 1089
SWIDTH 960 0
DWIDTH 10 0
BBX 10 11 0 -2
BITMAP
0000
0000
0000
1E00
2100
2000
2000
2100
1E00
0000
0000
ENDCHAR
STARTCHAR 0x2764
ENCODING 1090
SWIDTH 960 0
DWIDTH 10 0
BBX 10 11 0 -2
BITMAP
0000
0000
0000
7F00
4900
8880
0800
0800
3E00
0000
0000
ENDCHAR
STARTCHAR 0x2765
ENCODING 1091
SWIDTH 960 0
DWIDTH 10 0
BBX 10 11 0 -2
BITMAP
0000
0000
0000
7700
2200
2200
1400
1400
4800
4800
3000
ENDCHAR
STARTCHAR 0x2766
ENCODING 1092
SWIDTH 960 0
DWIDTH 10 0
BBX 10 11 0 -2
BITMAP
0000
1800
0800
6B00
9C80
8880
8880
9C80
6B00
0800
1C00
ENDCHAR
STARTCHAR 0x2767
ENCODING 1093
SWIDTH 960 0
DWIDTH 10 0
BBX 10 11 0 -2
BITMAP
0000
0000
0000
7380
1200
0C00
1200
2100
7380
0000
0000
ENDCHAR
STARTCHAR 0x2768
ENCODING 1094
SWIDTH 960 0
DWIDTH 10 0
BBX 10 11 0 -2
BITMAP
0000
0000
0000
E700
4200
4200
4200
4200
FF00
0080
0000
ENDCHAR
STARTCHAR 0x2769
ENCODING 1095
SWIDTH 960 0
DWIDTH 10 0
BBX 10 11 0 -2
BITMAP
0000
0000
0000
7380
2100
2100
2300
1D00
0180
0000
0000
ENDCHAR
STARTCHAR 0x276A
ENCODING 1096
SWIDTH 960 0
DWIDTH 10 0
BBX 10 11 0 -2
BITMAP
0000
0000
0000
DB80
4900
4900
4900
4900
FF80
0000
0000
ENDCHAR
STARTCHAR 0x276B
ENCODING 1097
SWIDTH 960 0
DWIDTH 10 0
BBX 10 11 0 -2
BITMAP
0000
0000
0000
DB80
4900
4900
4900
4900
FF80
0040
0000
ENDCHAR
STARTCHAR 0x276C
ENCODING 1098
SWIDTH 960 0
DWIDTH 10 0
BBX 10 11 0 -2
BITMAP
0000
0000
0000
7C00
5000
9F00
1080
1080
3F00
0000
0000
ENDCHAR
STARTCHAR 0x276D
ENCODING 1099
SWIDTH 960 0
DWIDTH 10 0
BBX 10 11 0 -2
BITMAP
0000
0000
0000
E380
4100
7900
4500
4500
FB80
0000
0000
ENDCHAR
STARTCHAR 0x276E
ENCODING 1100
SWIDTH 960 0
DWIDTH 10 0
BBX 10 11 0 -2
BITMAP
0000
0000
0000
7800
2000
3E00
2100
2100
7E00
0000
0000
ENDCHAR
STARTCHAR 0x276F
ENCODING 1101
SWIDTH 960 0
DWIDTH 10 0
BBX 10 11 0 -2
BITMAP
0000
0000
0000
1E00
2100
0D00
1300
2100
1E00
0000
0000
ENDCHAR
STARTCHAR 0x2770
ENCODING 1102
SWIDTH 960 0
DWIDTH 10 0
BBX 10 11 0 -2
BITMAP
0000
0000
0000
E700
4880
7880
4880
4880
E700
0000
0000
ENDCHAR
STARTCHAR 0x2771
ENCODING 1103
SWIDTH 960 0
DWIDTH 10 0
BBX 10 11 0 -2
BITMAP
0000
0000
0000
3F80
4100
4100
3F00
1100
6380
0000
0000
ENDCHAR
STARTCHAR 0x2821
ENCODING 9472
SWIDTH 960 0
DWIDTH 10 0
BBX 10 11 0 -2
BITMAP
0000
0000
0000
0000
0000
FFC0
0000
0000
0000
0000
0000
ENDCHAR
STARTCHAR 0x2822
ENCODING 9474
SWIDTH 960 0
DWIDTH 10 0
BBX 10 11 0 -2
BITMAP
0800
0800
0800
0800
0800
0800
0800
0800
0800
0800
0800
ENDCHAR
STARTCHAR 0x2823
ENCODING 9484
SWIDTH 960 0
DWIDTH 10 0
BBX 10 11 0 -2
BITMAP
0000
0000
0000
0000
0000
0FC0
0800
0800
0800
0800
0800
ENDCHAR
STARTCHAR 0x2824
ENCODING 9488
SWIDTH 960 0
DWIDTH 10 0
BBX 10 11 0 -2
BITMAP
0000
0000
0000
0000
0000
F800
0800
0800
0800
0800
0800
ENDCHAR
STARTCHAR 0x2825
ENCODING 9496
SWIDTH 960 0
DWIDTH 10 0
BBX 10 11 0 -2
BITMAP
0800
0800
0800
0800
0800
F800
0000
0000
0000
0000
0000
ENDCHAR
STARTCHAR 0x2826
ENCODING 9492
SWIDTH 960 0
DWIDTH 10 0
BBX 10 11 0 -2
BITMAP
0800
0800
0800
0800
0800
0FC0
0000
0000
0000
0000
0000
ENDCHAR
STARTCHAR 0x2827
ENCODING 9500
SWIDTH 960 0
DWIDTH 10 0
BBX 10 11 0 -2
BITMAP
0800
0800
0800
0800
0800
0FC0
0800
0800
0800
0800
0800
ENDCHAR
STARTCHAR 0x2828
ENCODING 9516
SWIDTH 960 0
DWIDTH 10 0
BBX 10 11 0 -2
BITMAP
0000
0000
0000
0000
0000
FFC0
0800
0800
0800
0800
0800
ENDCHAR
STARTCHAR 0x2829
ENCODING 9508
SWIDTH 960 0
DWIDTH 10 0
BBX 10 11 0 -2
BITMAP
0800
0800
0800
0800
0800
F800
0800
0800
0800
0800
0800
ENDCHAR
STARTCHAR 0x282A
ENCODING 9524
SWIDTH 960 0
DWIDTH 10 0
BBX 10 11 0 -2
BITMAP
0800
0800
0800
0800
0800
FFC0
0000
0000
0000
0000
0000
ENDCHAR
STARTCHAR 0x282B
ENCODING 9532
SWIDTH 960 0
DWIDTH 10 0
BBX 10 11 0 -2
BITMAP
0800
0800
0800
0800
0800
FFC0
0800
0800
0800
0800
0800
ENDCHAR
STARTCHAR 0x282C
ENCODING 9473
SWIDTH 960 0
DWIDTH 10 0
BBX 10 11 0 -2
BITMAP
0000
0000
0000
0000
0000
FFC0
FFC0
0000
0000
0000
0000
ENDCHAR
STARTCHAR 0x282D
ENCODING 9475
SWIDTH 960 0
DWIDTH 10 0
BBX 10 11 0 -2
BITMAP
0C00
0C00
0C00
0C00
0C00
0C00
0C00
0C00
0C00
0C00
0C00
ENDCHAR
STARTCHAR 0x282E
ENCODING 9487
SWIDTH 960 0
DWIDTH 10 0
BBX 10 11 0 -2
BITMAP
0000
0000
0000
0000
0000
0FC0
0FC0
0C00
0C00
0C00
0C00
ENDCHAR
STARTCHAR 0x282F
ENCODING 9491
SWIDTH 960 0
DWIDTH 10 0
BBX 10 11 0 -2
BITMAP
0000
0000
0000
0000
0000
FC00
FC00
0C00
0C00
0C00
0C00
ENDCHAR
STARTCHAR 0x2830
ENCODING 9499
SWIDTH 960 0
DWIDTH 10 0
BBX 10 11 0 -2
BITMAP
0C00
0C00
0C00
0C00
0C00
FC00
FC00
0000
0000
0000
0000
ENDCHAR
STARTCHAR 0x2831
ENCODING 9495
SWIDTH 960 0
DWIDTH 10 0
BBX 10 11 0 -2
BITMAP
0C00
0C00
0C00
0C00
0C00
0FC0
0FC0
0000
0000
0000
0000
ENDCHAR
STARTCHAR 0x2832
ENCODING 9507
SWIDTH 960 0
DWIDTH 10 0
BBX 10 11 0 -2
BITMAP
0C00
0C00
0C00
0C00
0C00
0FC0
0FC0
0C00
0C00
0C00
0C00
ENDCHAR
STARTCHAR 0x2833
ENCODING 9523
SWIDTH 960 0
DWIDTH 10 0
BBX 10 11 0 -2
BITMAP
0000
0000
0000
0000
0000
FFC0
FFC0
0C00
0C00
0C00
0C00
ENDCHAR
STARTCHAR 0x2834
ENCODING 9515
SWIDTH 960 0
DWIDTH 10 0
BBX 10 11 0 -2
BITMAP
0C00
0C00
0C00
0C00
0C00
FC00
FC00
0C00
0C00
0C00
0C00
ENDCHAR
STARTCHAR 0x2835
ENCODING 9531
SWIDTH 960 0
DWIDTH 10 0
BBX 10 11 0 -2
BITMAP
0C00
0C00
0C00
0C00
0C00
FFC0
FFC0
0000
0000
0000
0000
ENDCHAR
STARTCHAR 0x2836
ENCODING 9547
SWIDTH 960 0
DWIDTH 10 0
BBX 10 11 0 -2
BITMAP
0C00
0C00
0C00
0C00
0C00
FFC0
FFC0
0C00
0C00
0C00
0C00
ENDCHAR
STARTCHAR 0x2837
ENCODING 9504
SWIDTH 960 0
DWIDTH 10 0
BBX 10 11 0 -2
BITMAP
0C00
0C00
0C00
0C00
0C00
0FC0
0C00
0C00
0C00
0C00
0C00
ENDCHAR
STARTCHAR 0x2838
ENCODING 9519
SWIDTH 960 0
DWIDTH 10 0
BBX 10 11 0 -2
BITMAP
0000
0000
0000
0000
0000
FFC0
FFC0
0800
0800
0800
0800
ENDCHAR
STARTCHAR 0x2839
ENCODING 9512
SWIDTH 960 0
DWIDTH 10 0
BBX 10 11 0 -2
BITMAP
0C00
0C00
0C00
0C00
0C00
FC00
0C00
0C00
0C00
0C00
0C00
ENDCHAR
STARTCHAR 0x283A
ENCODING 9527
SWIDTH 960 0
DWIDTH 10 0
BBX 10 11 0 -2
BITMAP
0800
0800
0800
0800
0800
FFC0
FFC0
0000
0000
0000
0000
ENDCHAR
STARTCHAR 0x283B
ENCODING 9535
SWIDTH 960 0
DWIDTH 10 0
BBX 10 11 0 -2
BITMAP
0800
0800
0800
0800
0800
FFC0
FFC0
0800
0800
0800
0800
ENDCHAR
STARTCHAR 0x283C
ENCODING 9501
SWIDTH 960 0
DWIDTH 10 0
BBX 10 11 0 -2
BITMAP
0800
0800
0800
0800
0800
0FC0
0FC0
0800
0800
0800
0800
ENDCHAR
STARTCHAR 0x283D
ENCODING 9520
SWIDTH 960 0
DWIDTH 10 0
BBX 10 11 0 -2
BITMAP
0000
0000
0000
0000
0000
FFC0
0C00
0C00
0C00
0C00
0C00
ENDCHAR
STARTCHAR 0x283E
ENCODING 9509
SWIDTH 960 0
DWIDTH 10 0
BBX 10 11 0 -2
BITMAP
0800
0800
0800
0800
0800
F800
F800
0800
0800
0800
0800
ENDCHAR
STARTCHAR 0x283F
ENCODING 9528
SWIDTH 960 0
DWIDTH 10 0
BBX 10 11 0 -2
BITMAP
0C00
0C00
0C00
0C00
0C00
FFC0
0000
0000
0000
0000
0000
ENDCHAR
STARTCHAR 0x2840
ENCODING 9538
SWIDTH 960 0
DWIDTH 10 0
BBX 10 11 0 -2
BITMAP
0C00
0C00
0C00
0C00
0C00
FFC0
0C00
0C00
0C00
0C00
0C00
ENDCHAR
STARTCHAR 0x2D21
ENCODING 9312
SWIDTH 960 0
DWIDTH 10 0
BBX 10 11 0 -2
BITMAP
0000
3E00
4100
9880
8880
8880
8880
8880
4100
3E00
0000
ENDCHAR
STARTCHAR 0x2D22
ENCODING 9313
SWIDTH 960 0
DWIDTH 10 0
BBX 10 11 0 -2
BITMAP
0000
3E00
4100
9C80
8480
9C80
9080
9C80
4100
3E00
0000
ENDCHAR
STARTCHAR 0x2D23
ENCODING 9314
SWIDTH 960 0
DWIDTH 10 0
BBX 10 11 0 -2
BITMAP
0000
3E00
4100
9C80
8480
9C80
8480
9C80
4100
3E00
0000
ENDCHAR
STARTCHAR 0x2D24
ENCODING 9315
SWIDTH 960 0
DWIDTH 10 0
BBX 10 11 0 -2
BITMAP
0000
3E00
4100
9480
9480
9480
9C80
8480
4100
3E00
0000
ENDCHAR
STARTCHAR 0x2D25
ENCODING 9316
SWIDTH 960 0
DWIDTH 10 0
BBX 10 11 0 -2
BITMAP
0000
3E00
4100
9C80
9080
9C80
8480
9C80
4100
3E00
0000
ENDCHAR
STARTCHAR 0x2D26
ENCODING 9317
SWIDTH 960 0
DWIDTH 10 0
BBX 10 11 0 -2
BITMAP
0000
3E00
4100
9C80
9080
9C80
9480
9C80
4100
3E00
0000
ENDCHAR
STARTCHAR 0x2D27
ENCODING 9318
SWIDTH 960 0
DWIDTH 10 0
BBX 10 11 0 -2
BITMAP
0000
3E00
4100
9C80
8480
8480
8880
8880
4100
3E00
0000
ENDCHAR
STARTCHAR 0x2D28
ENCODING 9319
SWIDTH 960 0
DWIDTH 10 0
BBX 10 11 0 -2
BITMAP
0000
3E00
4100
9C80
9480
9C80
9480
9C80
4100
3E00
0000
ENDCHAR
STARTCHAR 0x2D29
ENCODING 9320
SWIDTH 960 0
DWIDTH 10 0
BBX 10 11 0 -2
BITMAP
0000
3E00
4100
9C80
9480
9C80
8480
9C80
4100
3E00
0000
ENDCHAR
STARTCHAR 0x2D2A
ENCODING 9321
SWIDTH 960 0
DWIDTH 10 0
BBX 10 11 0 -2
BITMAP
0000
3E00
4100
AE80
AA80
AA80
AA80
AE80
4100
3E00
0000
ENDCHAR
STARTCHAR 0x2D2B
ENCODING 9322
SWIDTH 960 0
DWIDTH 10 0
BBX 10 11 0 -2
BITMAP
0000
3E00
4100
B680
9280
9280
9280
9280
4100
3E00
0000
ENDCHAR
STARTCHAR 0x2D2C
ENCODING 9323
SWIDTH 960 0
DWIDTH 10 0
BBX 10 11 0 -2
BITMAP
0000
3E00
4100
AE80
A280
AE80
A880
AE80
4100
3E00
0000
ENDCHAR
STARTCHAR 0x2D2D
ENCODING 9324
SWIDTH 960 0
DWIDTH 10 0
BBX 10 11 0 -2
BITMAP
0000
3E00
4100
AE80
A280
AE80
A280
AE80
4100
3E00
0000
ENDCHAR
STARTCHAR 0x2D2E
ENCODING 9325
SWIDTH 960 0
DWIDTH 10 0
BBX 10 11 0 -2
BITMAP
0000
3E00
4100
AA80
AA80
AA80
AE80
A280
4100
3E00
0000
ENDCHAR
STARTCHAR 0x2D2F
ENCODING 9326
SWIDTH 960 0
DWIDTH 10 0
BBX 10 11 0 -2
BITMAP
0000
3E00
4100
AE80
A880
AE80
A280
AE80
4100
3E00
0000
ENDCHAR
STARTCHAR 0x2D30
ENCODING 9327
SWIDTH 960 0
DWIDTH 10 0
BBX 10 11 0 -2
BITMAP
0000
3E00
4100
AE80
A880
AE80
AA80
AE80
4100
3E00
0000
ENDCHAR
STARTCHAR 0x2D31
ENCODING 9328
SWIDTH 960 0
DWIDTH 10 0
BBX 10 11 0 -2
BITMAP
0000
3E00
4100
AE80
A280
A280
A480
A480
4100
3E00
0000
ENDCHAR
STARTCHAR 0x2D32
ENCODING 9329
SWIDTH 960 0
DWIDTH 10 0
BBX 10 11 0 -2
BITMAP
0000
3E00
4100
AE80
AA80
AE80
AA80
AE80
4100
3E00
0000
ENDCHAR
STARTCHAR 0x2D33
ENCODING 9330
SWIDTH 960 0
DWIDTH 10 0
BBX 10 11 0 -2
BITMAP
0000
3E00
4100
AE80
AA80
AE80
A280
AE80
4100
3E00
0000
ENDCHAR
STARTCHAR 0x2D34
ENCODING 9331
SWIDTH 960 0
DWIDTH 10 0
BBX 10 11 0 -2
BITMAP
0000
3E00
4100
BB80
8A80
BA80
A280
BB80
4100
3E00
0000
ENDCHAR
STARTCHAR 0x2D35
ENCODING 8544
SWIDTH 960 0
DWIDTH 10 0
BBX 10 11 0 -2
BITMAP
0000
1C00
0800
0800
0800
0800
0800
0800
1C00
0000
0000
ENDCHAR
STARTCHAR 0x2D36
ENCODING 8545
SWIDTH 960 0
DWIDTH 10 0
BBX 10 11 0 -2
BITMAP
0000
3E00
1400
1400
1400
1400
1400
1400
3E00
0000
0000
ENDCHAR
STARTCHAR 0x2D37
ENCODING 8546
SWIDTH 960 0
DWIDTH 10 0
BBX 10 11 0 -2
BITMAP
0000
7F00
2A00
2A00
2A00
2A00
2A00
2A00
7F00
0000
0000
ENDCHAR
STARTCHAR 0x2D38
ENCODING 8547
SWIDTH 960 0
DWIDTH 10 0
BBX 10 11 0 -2
BITMAP
0000
7B00
2A00
2A00
2A00
2A00
2400
2400
7400
0000
0000
ENDCHAR
STARTCHAR 0x2D39
ENCODING 8548
SWIDTH 960 0
DWIDTH 10 0
BBX 10 11 0 -2
BITMAP
0000
7700
2200
2200
1400
1400
1400
0800
0800
0000
0000
ENDCHAR
STARTCHAR 0x2D3A
ENCODING 8549
SWIDTH 960 0
DWIDTH 10 0
BBX 10 11 0 -2
BITMAP
0000
6F00
2A00
2A00
2A00
2A00
1200
1200
1700
0000
0000
ENDCHAR
STARTCHAR 0x2D3B
ENCODING 8550
SWIDTH 960 0
DWIDTH 10 0
BBX 10 11 0 -2
BITMAP
0000
DF80
5500
5500
5500
5500
2500
2500
2F80
0000
0000
ENDCHAR
STARTCHAR 0x2D3C
ENCODING 8551
SWIDTH 960 0
DWIDTH 10 0
BBX 10 11 0 -2
BITMAP
0000
DF80
4A80
4A80
5A80
5A80
2A80
2A80
2F80
0000
0000
ENDCHAR
STARTCHAR 0x2D3D
ENCODING 8552
SWIDTH 960 0
DWIDTH 10 0
BBX 10 11 0 -2
BITMAP
0000
7B00
2A00
2A00
2400
2400
2A00
2A00
7B00
0000
0000
ENDCHAR
STARTCHAR 0x2D3E
ENCODING 8553
SWIDTH 960 0
DWIDTH 10 0
BBX 10 11 0 -2
BITMAP
0000
7700
2200
1400
0800
0800
1400
2200
7700
0000
0000
ENDCHAR
STARTCHAR 0x2D40
ENCODING 13129
SWIDTH 960 0
DWIDTH 10 0
BBX 10 11 0 -2
BITMAP
0000
C000
3000
C000
3480
C480
3480
0480
0080
0300
0000
ENDCHAR
STARTCHAR 0x2D41
ENCODING 13076
SWIDTH 960 0
DWIDTH 10 0
BBX 10 11 0 -2
BITMAP
0000
2000
F800
2000
F800
1780
1480
0480
0480
0780
0000
ENDCHAR
STARTCHAR 0x2D42
ENCODING 13090
SWIDTH 960 0
DWIDTH 10 0
BBX 10 11 0 -2
BITMAP
0000
4400
F200
5080
4080
3700
0200
0F80
0200
0400
0000
ENDCHAR
STARTCHAR 0x2D43
ENCODING 13133
SWIDTH 960 0
DWIDTH 10 0
BBX 10 11 0 -2
BITMAP
0000
1000
5780
3000
C800
0000
8500
F500
8500
8980
0000
ENDCHAR
STARTCHAR 0x2D44
ENCODING 13080
SWIDTH 960 0
DWIDTH 10 0
BBX 10 11 0 -2
BITMAP
0000
5B80
7000
9780
1080
2080
CB00
0800
1100
1F00
0000
ENDCHAR
STARTCHAR 0x2D45
ENCODING 13095
SWIDTH 960 0
DWIDTH 10 0
BBX 10 11 0 -2
BITMAP
0000
8000
8000
F000
8000
8800
8480
0080
0100
0E00
0000
ENDCHAR
STARTCHAR 0x2D46
ENCODING 13059
SWIDTH 960 0
DWIDTH 10 0
BBX 10 11 0 -2
BITMAP
0000
F800
0800
2000
2780
C000
1000
5200
5200
9C00
0000
ENDCHAR
STARTCHAR 0x2D47
ENCODING 13110
SWIDTH 960 0
DWIDTH 10 0
BBX 10 11 0 -2
BITMAP
0000
6380
9280
0880
0300
E000
A500
FD00
2500
C580
0000
ENDCHAR
STARTCHAR 0x2D48
ENCODING 13137
SWIDTH 960 0
DWIDTH 10 0
BBX 10 11 0 -2
BITMAP
0000
9680
9680
1080
6300
0000
8500
F500
8500
8980
0000
ENDCHAR
STARTCHAR 0x2D49
ENCODING 13143
SWIDTH 960 0
DWIDTH 10 0
BBX 10 11 0 -2
BITMAP
0000
F800
8800
0E80
7680
0080
4700
7800
4000
4000
0000
ENDCHAR
STARTCHAR 0x2D4A
ENCODING 13069
SWIDTH 960 0
DWIDTH 10 0
BBX 10 11 0 -2
BITMAP
0000
4380
FA80
4A80
9A80
0380
9000
9000
1780
6000
0000
ENDCHAR
STARTCHAR 0x2D4B
ENCODING 13094
SWIDTH 960 0
DWIDTH 10 0
BBX 10 11 0 -2
BITMAP
0000
5400
5400
4000
7800
4500
4500
4500
0900
0980
0000
ENDCHAR
STARTCHAR 0x2D4C
ENCODING 13091
SWIDTH 960 0
DWIDTH 10 0
BBX 10 11 0 -2
BITMAP
0000
4400
F200
5080
4080
3700
1000
1E00
1000
1000
0000
ENDCHAR
STARTCHAR 0x2D4D
ENCODING 13099
SWIDTH 960 0
DWIDTH 10 0
BBX 10 11 0 -2
BITMAP
1000
A800
9380
9000
0000
9900
E100
A580
8500
D900
0000
ENDCHAR
STARTCHAR 0x2D4E
ENCODING 13130
SWIDTH 960 0
DWIDTH 10 0
BBX 10 11 0 -2
BITMAP
0000
F480
0480
F480
0080
F300
5500
A500
BD00
A580
0000
ENDCHAR
STARTCHAR 0x2D4F
ENCODING 13115
SWIDTH 960 0
DWIDTH 10 0
BBX 10 11 0 -2
BITMAP
0800
1400
6800
9380
0800
C280
0A80
C800
1000
E000
0000
ENDCHAR
STARTCHAR 0x2D50
ENCODING 13212
SWIDTH 960 0
DWIDTH 10 0
BBX 10 11 0 -2
BITMAP
0000
0000
0000
F700
AA80
AA80
AA80
AA80
AA80
0000
0000
ENDCHAR
STARTCHAR 0x2D51
ENCODING 13213
SWIDTH 960 0
DWIDTH 10 0
BBX 10 11 0 -2
BITMAP
0000
0000
0000
6F00
8A80
8A80
8A80
8A80
6A80
0000
0000
ENDCHAR
STARTCHAR 0x2D52
ENCODING 13214
SWIDTH 960 0
DWIDTH 10 0
BBX 10 11 0 -2
BITMAP
0000
8000
8000
9F00
AA80
CA80
AA80
9A80
8A80
0000
0000
ENDCHAR
STARTCHAR 0x2D53
ENCODING 13198
SWIDTH 960 0
DWIDTH 10 0
BBX 10 11 0 -2
BITMAP
0000
0000
0080
F700
A880
AF00
A800
AF00
A880
0700
0000
ENDCHAR
STARTCHAR 0x2D54
ENCODING 13199
SWIDTH 960 0
DWIDTH 10 0
BBX 10 11 0 -2
BITMAP
8000
8000
8080
9700
A880
C700
A800
9700
8880
0700
0000
ENDCHAR
STARTCHAR 0x2D55
ENCODING 13252
SWIDTH 960 0
DWIDTH 10 0
BBX 10 11 0 -2
BITMAP
0000
0000
0000
6300
9480
8400
8400
8400
7380
0000
0000
ENDCHAR
STARTCHAR 0x2D56
ENCODING 13217
SWIDTH 960 0
DWIDTH 10 0
BBX 10 11 0 -2
BITMAP
0000
0300
0080
F100
AA00
AB80
A800
A800
A800
0000
0000
ENDCHAR
STARTCHAR 0x2D5F
ENCODING 13179
SWIDTH 960 0
DWIDTH 10 0
BBX 10 11 0 -2
BITMAP
0200
FA80
2F80
AA00
AA80
2E80
FB00
2B00
2E80
2880
0000
ENDCHAR
STARTCHAR 0x2D60
ENCODING 12317
SWIDTH 960 0
DWIDTH 10 0
BBX 10 11 0 -2
BITMAP
0500
0500
0A00
0A00
0000
0000
0000
0000
0000
0000
0000
ENDCHAR
STARTCHAR 0x2D61
ENCODING 12319
SWIDTH 960 0
DWIDTH 10 0
BBX 10 11 0 -2
BITMAP
0000
0000
0000
0000
0000
2800
2800
5000
5000
0000
0000
ENDCHAR
STARTCHAR 0x2D62
ENCODING 8470
SWIDTH 960 0
DWIDTH 10 0
BBX 10 11 0 -2
BITMAP
0000
8800
C900
AA80
9A80
8A80
8900
8800
8B80
0000
0000
ENDCHAR
STARTCHAR 0x2D63
ENCODING 13261
SWIDTH 960 0
DWIDTH 10 0
BBX 10 11 0 -2
BITMAP
0000
9480
9480
A500
C600
A500
A500
9480
9480
0000
0000
ENDCHAR
STARTCHAR 0x2D64
ENCODING 8481
SWIDTH 960 0
DWIDTH 10 0
BBX 10 11 0 -2
BITMAP
0000
F900
4100
5D00
5100
5D00
5100
5100
5D80
0000
0000
ENDCHAR
STARTCHAR 0x2D65
ENCODING 12964
SWIDTH 960 0
DWIDTH 10 0
BBX 10 11 0 -2
BITMAP
0000
3E00
4900
8880
8E80
8880
8880
BE80
4100
3E00
0000
ENDCHAR
STARTCHAR 0x2D66
ENCODING 12965
SWIDTH 960 0
DWIDTH 10 0
BBX 10 11 0 -2
BITMAP
0000
3E00
4900
BE80
AA80
AA80
BE80
8880
4900
3E00
0000
ENDCHAR
STARTCHAR 0x2D67
ENCODING 12966
SWIDTH 960 0
DWIDTH 10 0
BBX 10 11 0 -2
BITMAP
0000
3E00
4100
BE80
8880
8C80
8A80
8880
4900
3E00
0000
ENDCHAR
STARTCHAR 0x2D68
ENCODING 12967
SWIDTH 960 0
DWIDTH 10 0
BBX 10 11 0 -2
BITMAP
0000
3E00
5100
BE80
9080
AE80
C480
9E80
4100
3E00
0000
ENDCHAR
STARTCHAR 0x2D69
ENCODING 12968
SWIDTH 960 0
DWIDTH 10 0
BBX 10 11 0 -2
BITMAP
0000
3E00
4900
BE80
9080
BE80
D280
9E80
4100
3E00
0000
ENDCHAR
STARTCHAR 0x2D6A
ENCODING 12849
SWIDTH 960 0
DWIDTH 10 0
BBX 10 11 0 -2
BITMAP
0000
6500
B480
FF80
A480
BF80
E480
AE80
B580
6500
0000
ENDCHAR
STARTCHAR 0x2D6B
ENCODING 12850
SWIDTH 960 0
DWIDTH 10 0
BBX 10 11 0 -2
BITMAP
0000
4900
BE80
8880
9E80
B280
DE80
9280
9E80
5300
0000
ENDCHAR
STARTCHAR 0x2D6C
ENCODING 12857
SWIDTH 960 0
DWIDTH 10 0
BBX 10 11 0 -2
BITMAP
0000
5500
9580
A480
BF80
E480
A480
A480
A280
6300
0000
ENDCHAR
STARTCHAR 0x2D6D
ENCODING 13182
SWIDTH 960 0
DWIDTH 10 0
BBX 10 11 0 -2
BITMAP
0000
3900
EE00
BA80
EB80
AC00
BB80
EA80
4E80
5B80
0000
ENDCHAR
STARTCHAR 0x2D6E
ENCODING 13181
SWIDTH 960 0
DWIDTH 10 0
BBX 10 11 0 -2
BITMAP
0000
2F80
2100
F900
2500
2580
5500
5500
9500
9780
0000
ENDCHAR
STARTCHAR 0x2D6F
ENCODING 13180
SWIDTH 960 0
DWIDTH 10 0
BBX 10 11 0 -2
BITMAP
0000
7F00
2A00
EF80
BA80
E280
BE80
AA80
EA80
3B80
0000
ENDCHAR
STARTCHAR 0x2D70
SWIDTH 960 0
DWIDTH 10 0
BBX 10 11 0 -2
BITMAP
0000
2000
7000
2000
7F00
0000
7F00
0200
0700
0200
0000
ENDCHAR
STARTCHAR 0x2D71
SWIDTH 960 0
DWIDTH 10 0
BBX 10 11 0 -2
BITMAP
0000
0000
0000
7F00
0000
7F00
0000
7F00
0000
0000
0000
ENDCHAR
STARTCHAR 0x2D72
SWIDTH 960 0
DWIDTH 10 0
BBX 10 11 0 -2
BITMAP
0000
0C00
1400
1000
1000
0800
0400
0400
1400
1800
0000
ENDCHAR
STARTCHAR 0x2D73
ENCODING 8750
SWIDTH 960 0
DWIDTH 10 0
BBX 10 11 0 -2
BITMAP
0000
0C00
1000
1C00
2A00
2A00
2A00
1C00
0400
1800
0000
ENDCHAR
STARTCHAR 0x2D74
ENCODING 8721
SWIDTH 960 0
DWIDTH 10 0
BBX 10 11 0 -2
BITMAP
0000
0000
7F00
2000
1000
0800
1000
2000
7F00
0000
0000
ENDCHAR
STARTCHAR 0x2D75
SWIDTH 960 0
DWIDTH 10 0
BBX 10 11 0 -2
BITMAP
0000
0780
0400
0400
4800
4800
A800
A800
1000
1000
0000
ENDCHAR
STARTCHAR 0x2D76
SWIDTH 960 0
DWIDTH 10 0
BBX 10 11 0 -2
BITMAP
0000
0800
0800
0800
0800
0800
0800
0800
FF80
0000
0000
ENDCHAR
STARTCHAR 0x2D77
SWIDTH 960 0
DWIDTH 10 0
BBX 10 11 0 -2
BITMAP
0000
0100
0200
0400
0800
1000
2000
4000
FF80
0000
0000
ENDCHAR
STARTCHAR 0x2D78
ENCODING 8735
SWIDTH 960 0
DWIDTH 10 0
BBX 10 11 0 -2
BITMAP
0000
4000
4000
4000
4000
4000
4000
4000
7F80
0000
0000
ENDCHAR
STARTCHAR 0x2D79
ENCODING 8895
SWIDTH 960 0
DWIDTH 10 0
BBX 10 11 0 -2
BITMAP
0000
0100
0300
0500
0900
1100
2100
4100
FF00
0000
0000
ENDCHAR
STARTCHAR 0x2D7A
SWIDTH 960 0
DWIDTH 10 0
BBX 10 11 0 -2
BITMAP
0000
0000
2200
7700
2200
0000
0800
1C00
0800
0000
0000
ENDCHAR
STARTCHAR 0x2D7B
SWIDTH 960 0
DWIDTH 10 0
BBX 10 11 0 -2
BITMAP
0000
1C00
2200
4100
4100
4100
4100
4100
4100
0000
0000
ENDCHAR
STARTCHAR 0x2D7C
SWIDTH 960 0
DWIDTH 10 0
BBX 10 11 0 -2
BITMAP
0000
4100
4100
4100
4100
4100
4100
2200
1C00
0000
0000
ENDCHAR
STARTCHAR 0x3021
ENCODING 20124
SWIDTH 960 0
DWIDTH 10 0
BBX 10 11 0 -2
BITMAP
0000
FF80
1400
7F00
5500
5500
7F00
1400
1400
FF80
0000
ENDCHAR
STARTCHAR 0x3022
ENCODING 21782
SWIDTH 960 0
DWIDTH 10 0
BBX 10 11 0 -2
BITMAP
0000
3F80
CA00
BF80
AA80
AA80
BF80
AA00
CA00
3F80
0000
ENDCHAR
STARTCHAR 0x3023
ENCODING 23043
SWIDTH 960 0
DWIDTH 10 0
BBX 10 11 0 -2
BITMAP
0200
4200
4F80
F200
5F80
5200
AF80
E200
5200
4F80
0000
ENDCHAR
STARTCHAR 0x3024
ENCODING 38463
SWIDTH 960 0
DWIDTH 10 0
BBX 10 11 0 -2
BITMAP
0000
FF80
A080
AE80
CA80
AA80
AA80
CE80
8080
8180
0000
ENDCHAR
STARTCHAR 0x3025
ENCODING 21696
SWIDTH 960 0
DWIDTH 10 0
BBX 10 11 0 -2
BITMAP
0800
0800
FF80
2200
2200
3E00
1480
E500
2200
7980
0000
ENDCHAR
STARTCHAR 0x3026
ENCODING 24859
SWIDTH 960 0
DWIDTH 10 0
BBX 10 11 0 -2
BITMAP
0000
7F00
4900
2200
FF80
9080
5F00
A280
1C00
E380
0000
ENDCHAR
STARTCHAR 0x3027
ENCODING 25384
SWIDTH 960 0
DWIDTH 10 0
BBX 10 11 0 -2
BITMAP
0400
4400
4880
FF80
4800
5F80
6200
DF80
4500
D880
0000
ENDCHAR
STARTCHAR 0x3028
ENCODING 23030
SWIDTH 960 0
DWIDTH 10 0
BBX 10 11 0 -2
BITMAP
0000
4700
4880
F000
5F80
5000
AF80
E880
5880
4F80
0000
ENDCHAR
STARTCHAR 0x3029
ENCODING 36898
SWIDTH 960 0
DWIDTH 10 0
BBX 10 11 0 -2
BITMAP
0000
8F80
5900
0600
3980
CF00
4200
5F80
A200
9F80
0000
ENDCHAR
STARTCHAR 0x302A
ENCODING 33909
SWIDTH 960 0
DWIDTH 10 0
BBX 10 11 0 -2
BITMAP
2200
2200
FF80
9500
5280
3F00
C880
7F00
1400
E380
0000
ENDCHAR
STARTCHAR 0x302B
ENCODING 33564
SWIDTH 960 0
DWIDTH 10 0
BBX 10 11 0 -2
BITMAP
2200
2200
FF80
1400
FF80
5500
5500
6700
4100
7F00
0000
ENDCHAR
STARTCHAR 0x302C
ENCODING 31312
SWIDTH 960 0
DWIDTH 10 0
BBX 10 11 0 -2
BITMAP
0000
3780
C900
5F80
EA80
5F80
7280
DF80
5200
4380
0000
ENDCHAR
STARTCHAR 0x302D
ENCODING 24746
SWIDTH 960 0
DWIDTH 10 0
BBX 10 11 0 -2
BITMAP
0000
FF80
1400
7F00
5500
7F00
1400
FF80
5100
9E80
0000
ENDCHAR
STARTCHAR 0x302E
ENCODING 25569
SWIDTH 960 0
DWIDTH 10 0
BBX 10 11 0 -2
BITMAP
0000
5F80
5080
FF80
5500
5F80
7200
DF80
4200
DF80
0000
ENDCHAR
STARTCHAR 0x302F
ENCODING 28197
SWIDTH 960 0
DWIDTH 10 0
BBX 10 11 0 -2
BITMAP
0000
9F80
5080
1F80
9500
5F80
1200
3F80
4200
9F80
0000
ENDCHAR
STARTCHAR 0x3030
ENCODING 26093
SWIDTH 960 0
DWIDTH 10 0
BBX 10 11 0 -2
BITMAP
0000
4780
4480
F780
5480
5480
5780
5000
9080
9F80
0000
ENDCHAR
STARTCHAR 0x3031
ENCODING 33894
SWIDTH 960 0
DWIDTH 10 0
BBX 10 11 0 -2
BITMAP
2200
2200
FF80
0800
7F00
1100
FF80
2400
FF80
0400
0000
ENDCHAR
STARTCHAR 0x3032
ENCODING 33446
SWIDTH 960 0
DWIDTH 10 0
BBX 10 11 0 -2
BITMAP
2200
2200
FF80
2200
FF80
2100
2100
3F00
4000
4000
0000
ENDCHAR
STARTCHAR 0x3033
ENCODING 39925
SWIDTH 960 0
DWIDTH 10 0
BBX 10 11 0 -2
BITMAP
0200
7480
9F80
F200
AF80
F500
AA80
F400
0180
AE00
0000
ENDCHAR
STARTCHAR 0x3034
ENCODING 26771
SWIDTH 960 0
DWIDTH 10 0
BBX 10 11 0 -2
BITMAP
0200
2200
3F80
E900
2900
7F80
6200
BF80
A200
2200
0000
ENDCHAR
STARTCHAR 0x3035
ENCODING 22311
SWIDTH 960 0
DWIDTH 10 0
BBX 10 11 0 -2
BITMAP
0000
7F80
4000
4200
4200
5F80
4200
8200
8200
3F80
0000
ENDCHAR
STARTCHAR 0x3036
ENCODING 26017
SWIDTH 960 0
DWIDTH 10 0
BBX 10 11 0 -2
BITMAP
0000
4600
F900
4480
F100
9900
F500
9180
F700
4100
0000
ENDCHAR
STARTCHAR 0x3037
ENCODING 25201
SWIDTH 960 0
DWIDTH 10 0
BBX 10 11 0 -2
BITMAP
0000
5F80
4900
EA00
4B80
4880
7480
D300
4500
D880
0000
ENDCHAR
STARTCHAR 0x3038
ENCODING 23451
SWIDTH 960 0
DWIDTH 10 0
BBX 10 11 0 -2
BITMAP
0800
0800
FF80
8080
F780
5500
7500
9700
2480
C780
0000
ENDCHAR
STARTCHAR 0x3039
ENCODING 22992
SWIDTH 960 0
DWIDTH 10 0
BBX 10 11 0 -2
BITMAP
0000
4780
4480
F780
5480
5480
A780
F480
4480
4F80
0000
ENDCHAR
STARTCHAR 0x303A
ENCODING 34427
SWIDTH 960 0
DWIDTH 10 0
BBX 10 11 0 -2
BITMAP
0200
2200
2200
FF80
AA00
AA00
FA00
2200
2A00
FB80
0000
ENDCHAR
STARTCHAR 0x303B
ENCODING 39156
SWIDTH 960 0
DWIDTH 10 0
BBX 10 11 0 -2
BITMAP
0200
7200
8480
F480
9780
F000
9780
F480
A480
D780
0000
ENDCHAR
STARTCHAR 0x303C
ENCODING 32098
SWIDTH 960 0
DWIDTH 10 0
BBX 10 11 0 -2
BITMAP
0800
4800
8F80
F080
2E80
4A80
FE80
2A80
AE80
A300
0000
ENDCHAR
STARTCHAR 0x303D
ENCODING 32190
SWIDTH 960 0
DWIDTH 10 0
BBX 10 11 0 -2
BITMAP
0200
4200
9F80
E200
3F80
4900
F680
2900
A600
B980
0000
ENDCHAR
STARTCHAR 0x303E
ENCODING 39822
SWIDTH 960 0
DWIDTH 10 0
BBX 10 11 0 -2
BITMAP
0200
7200
9200
FB80
AA00
FA00
AF80
F880
0880
AF80
0000
ENDCHAR
STARTCHAR 0x303F
ENCODING 25110
SWIDTH 960 0
DWIDTH 10 0
BBX 10 11 0 -2
BITMAP
0400
0480
FF80
0200
7A80
4A80
7900
0300
E480
1880
0000
ENDCHAR
STARTCHAR 0x3040
ENCODING 31903
SWIDTH 960 0
DWIDTH 10 0
BBX 10 11 0 -2
BITMAP
0000
FF80
1400
7F00
5500
7F00
2A00
FF80
2A00
C980
0000
ENDCHAR
STARTCHAR 0x3041
ENCODING 34999
SWIDTH 960 0
DWIDTH 10 0
BBX 10 11 0 -2
BITMAP
0000
4700
4880
F000
1F80
2000
4F80
E880
5880
4F80
0000
ENDCHAR
STARTCHAR 0x3042
ENCODING 23433
SWIDTH 960 0
DWIDTH 10 0
BBX 10 11 0 -2
BITMAP
0800
0800
FF80
8080
1000
FF80
2200
2200
3C00
C380
0000
ENDCHAR
STARTCHAR 0x3043
ENCODING 24245
SWIDTH 960 0
DWIDTH 10 0
BBX 10 11 0 -2
BITMAP
0400
0400
7F80
4A00
5280
7F80
5280
5F80
9200
8380
0000
ENDCHAR
STARTCHAR 0x3044
ENCODING 25353
SWIDTH 960 0
DWIDTH 10 0
BBX 10 11 0 -2
BITMAP
0400
4400
5F80
F080
4400
5F80
6900
C900
4600
D980
0000
ENDCHAR
STARTCHAR 0x3045
ENCODING 26263
SWIDTH 960 0
DWIDTH 10 0
BBX 10 11 0 -2
BITMAP
0200
0200
FF80
A500
A500
FF80
A880
AF80
E880
0F80
0000
ENDCHAR
STARTCHAR 0x3046
ENCODING 26696
SWIDTH 960 0
DWIDTH 10 0
BBX 10 11 0 -2
BITMAP
0800
0800
FF80
9080
7F00
1200
2900
FF80
2A00
C980
0000
ENDCHAR
STARTCHAR 0x3047
ENCODING 38343
SWIDTH 960 0
DWIDTH 10 0
BBX 10 11 0 -2
BITMAP
0000
F780
9480
F780
9480
FF80
9480
BE80
9480
9D80
0000
ENDCHAR
STARTCHAR 0x3048
ENCODING 38797
SWIDTH 960 0
DWIDTH 10 0
BBX 10 11 0 -2
BITMAP
0200
5200
FF80
5080
F400
AF80
F900
2900
E600
3980
0000
ENDCHAR
STARTCHAR 0x3049
ENCODING 26447
SWIDTH 960 0
DWIDTH 10 0
BBX 10 11 0 -2
BITMAP
0800
0800
FF80
1A00
2900
C880
0800
7F00
4100
7F00
0000
ENDCHAR
STARTCHAR 0x304A
ENCODING 20197
SWIDTH 960 0
DWIDTH 10 0
BBX 10 11 0 -2
BITMAP
0000
4100
5100
4900
4100
4100
5200
E200
0D00
3080
0000
ENDCHAR
STARTCHAR 0x304B
ENCODING 20234
SWIDTH 960 0
DWIDTH 10 0
BBX 10 11 0 -2
BITMAP
0000
2F80
2280
5F80
C280
4280
4F80
4200
4200
4C00
0000
ENDCHAR
STARTCHAR 0x304C
ENCODING 20301
SWIDTH 960 0
DWIDTH 10 0
BBX 10 11 0 -2
BITMAP
0400
2400
3F80
4000
C900
4900
4900
4A00
4200
5F80
0000
ENDCHAR
STARTCHAR 0x304D
ENCODING 20381
SWIDTH 960 0
DWIDTH 10 0
BBX 10 11 0 -2
BITMAP
0400
2400
3F80
4400
CA80
4A80
5900
6900
4A80
5C80
0000
ENDCHAR
STARTCHAR 0x304E
ENCODING 20553
SWIDTH 960 0
DWIDTH 10 0
BBX 10 11 0 -2
BITMAP
0200
2200
3F80
4480
DF80
4900
5F80
5200
7F80
4200
0000
ENDCHAR
STARTCHAR 0x304F
ENCODING 22258
SWIDTH 960 0
DWIDTH 10 0
BBX 10 11 0 -2
BITMAP
0000
FF80
9480
BE80
9480
9480
FF80
9480
A480
FF80
0000
ENDCHAR
STARTCHAR 0x3050
ENCODING 22839
SWIDTH 960 0
DWIDTH 10 0
BBX 10 11 0 -2
BITMAP
0800
0800
FF80
0900
7F00
4800
FF80
0880
3600
C180
0000
ENDCHAR
STARTCHAR 0x3051
ENCODING 22996
SWIDTH 960 0
DWIDTH 10 0
BBX 10 11 0 -2
BITMAP
0000
7F00
0800
FF80
2A00
4900
FF80
2100
3E00
C180
0000
ENDCHAR
STARTCHAR 0x3052
ENCODING 23041
SWIDTH 960 0
DWIDTH 10 0
BBX 10 11 0 -2
BITMAP
0400
0480
7F80
4200
7E80
5280
7D00
A900
B280
CC80
0000
ENDCHAR
STARTCHAR 0x3053
ENCODING 23561
SWIDTH 960 0
DWIDTH 10 0
BBX 10 11 0 -2
BITMAP
0080
F880
8F80
F880
8080
F480
2280
A880
A880
6180
0000
ENDCHAR
STARTCHAR 0x3054
ENCODING 24799
SWIDTH 960 0
DWIDTH 10 0
BBX 10 11 0 -2
BITMAP
0400
2500
2F80
A900
BF80
A900
AF80
A900
2900
2F80
0000
ENDCHAR
STARTCHAR 0x3055
ENCODING 24847
SWIDTH 960 0
DWIDTH 10 0
BBX 10 11 0 -2
BITMAP
0800
0800
FF80
1200
FF80
2100
3F00
0400
5100
9E80
0000
ENDCHAR
STARTCHAR 0x3056
ENCODING 24944
SWIDTH 960 0
DWIDTH 10 0
BBX 10 11 0 -2
BITMAP
0080
F880
8F80
FA80
A280
6880
A580
0000
5100
9E80
0000
ENDCHAR
STARTCHAR 0x3057
ENCODING 26131
SWIDTH 960 0
DWIDTH 10 0
BBX 10 11 0 -2
BITMAP
0000
7E00
4200
7E00
4200
7E00
2000
FF80
4880
9300
0000
ENDCHAR
STARTCHAR 0x3058
ENCODING 26885
SWIDTH 960 0
DWIDTH 10 0
BBX 10 11 0 -2
BITMAP
0200
2200
3F80
E500
2880
7F80
6A80
AA80
AE80
2180
0000
ENDCHAR
STARTCHAR 0x3059
ENCODING 28858
SWIDTH 960 0
DWIDTH 10 0
BBX 10 11 0 -2
BITMAP
2200
1200
0400
7E00
1200
3F00
4100
FF80
0080
5580
0000
ENDCHAR
STARTCHAR 0x305A
ENCODING 30031
SWIDTH 960 0
DWIDTH 10 0
BBX 10 11 0 -2
BITMAP
0000
7F00
4900
7F00
4900
7F00
0000
FF80
2200
F980
0000
ENDCHAR
STARTCHAR 0x305B
ENCODING 30064
SWIDTH 960 0
DWIDTH 10 0
BBX 10 11 0 -2
BITMAP
0000
7F00
4900
7F00
4900
FF80
2200
FF80
2200
C180
0000
ENDCHAR
STARTCHAR 0x305C
ENCODING 31227
SWIDTH 960 0
DWIDTH 10 0
BBX 10 11 0 -2
BITMAP
0000
3780
C880
4500
F200
4780
D880
6500
4600
5800
0000
ENDCHAR
STARTCHAR 0x305D
ENCODING 32173
SWIDTH 960 0
DWIDTH 10 0
BBX 10 11 0 -2
BITMAP
0400
4500
8F80
F900
2F80
4900
FF80
2900
A900
AF80
0000
ENDCHAR
STARTCHAR 0x305E
ENCODING 32239
SWIDTH 960 0
DWIDTH 10 0
BBX 10 11 0 -2
BITMAP
0200
4200
9F80
E480
3F80
4900
FF80
2A00
BF80
A200
0000
ENDCHAR
STARTCHAR 0x305F
ENCODING 32963
SWIDTH 960 0
DWIDTH 10 0
BBX 10 11 0 -2
BITMAP
0000
7F80
4880
7F80
4880
7F80
2100
3F00
2100
2300
0000
ENDCHAR
STARTCHAR 0x3060
ENCODING 33806
SWIDTH 960 0
DWIDTH 10 0
BBX 10 11 0 -2
BITMAP
2200
2200
FF80
0800
FF80
1A00
E980
2200
1C00
E380
0000
ENDCHAR
STARTCHAR 0x3061
ENCODING 34915
SWIDTH 960 0
DWIDTH 10 0
BBX 10 11 0 -2
BITMAP
0800
0800
FF80
1000
2400
6480
A500
2200
2100
7880
0000
ENDCHAR
STARTCHAR 0x3062
ENCODING 35586
SWIDTH 960 0
DWIDTH 10 0
BBX 10 11 0 -2
BITMAP
0000
FF80
1280
FF80
1280
FF80
0880
EF80
A880
E980
0000
ENDCHAR
STARTCHAR 0x3063
ENCODING 36949
SWIDTH 960 0
DWIDTH 10 0
BBX 10 11 0 -2
BITMAP
0400
8400
5F80
0480
3F80
C900
5F80
4200
A000
9F80
0000
ENDCHAR
STARTCHAR 0x3064
ENCODING 36986
SWIDTH 960 0
DWIDTH 10 0
BBX 10 11 0 -2
BITMAP
0200
8200
5F80
1280
3F80
C900
4F00
5980
A000
9F80
0000
ENDCHAR
STARTCHAR 0x3065
ENCODING 21307
SWIDTH 960 0
DWIDTH 10 0
BBX 10 11 0 -2
BITMAP
0000
FF80
9000
9F00
A400
FF80
8A00
9100
A080
FF80
0000
ENDCHAR
STARTCHAR 0x3066
ENCODING 20117
SWIDTH 960 0
DWIDTH 10 0
BBX 10 11 0 -2
BITMAP
2200
2200
2200
FF80
2200
2200
FF80
2200
4200
4200
0000
ENDCHAR
STARTCHAR 0x3067
ENCODING 20133
SWIDTH 960 0
DWIDTH 10 0
BBX 10 11 0 -2
BITMAP
0800
0800
FF80
1200
2400
1900
6200
0400
1A00
E100
0000
ENDCHAR
STARTCHAR 0x3068
ENCODING 22495
SWIDTH 960 0
DWIDTH 10 0
BBX 10 11 0 -2
BITMAP
0200
4280
5F80
E200
5E80
5680
5500
5D00
E280
0C80
0000
ENDCHAR
STARTCHAR 0x3069
ENCODING 32946
SWIDTH 960 0
DWIDTH 10 0
BBX 10 11 0 -2
BITMAP
0800
0800
FF80
2200
FF00
4180
7F00
4100
7F00
4100
0000
ENDCHAR
STARTCHAR 0x306A
ENCODING 37057
SWIDTH 960 0
DWIDTH 10 0
BBX 10 11 0 -2
BITMAP
2000
2380
FE80
2280
7B00
CA80
7A80
4A80
7B00
4A00
0000
ENDCHAR
STARTCHAR 0x306B
ENCODING 30959
SWIDTH 960 0
DWIDTH 10 0
BBX 10 11 0 -2
BITMAP
0200
EB00
5680
4B00
9680
E200
BF80
AA80
B300
EC80
0000
ENDCHAR
STARTCHAR 0x306C
ENCODING 19968
SWIDTH 960 0
DWIDTH 10 0
BBX 10 11 0 -2
BITMAP
0000
0000
0000
0000
0000
FF80
0000
0000
0000
0000
0000
ENDCHAR
STARTCHAR 0x306D
ENCODING 22769
SWIDTH 960 0
DWIDTH 10 0
BBX 10 11 0 -2
BITMAP
0800
0800
FF80
0800
FF80
A080
A680
3800
2100
3F00
0000
ENDCHAR
STARTCHAR 0x306E
ENCODING 28322
SWIDTH 960 0
DWIDTH 10 0
BBX 10 11 0 -2
BITMAP
0900
8A00
4000
3F80
8900
5080
3F00
1500
5500
BF80
0000
ENDCHAR
STARTCHAR 0x306F
ENCODING 36920
SWIDTH 960 0
DWIDTH 10 0
BBX 10 11 0 -2
BITMAP
0000
8F00
5200
3F80
1280
DF80
4A00
5380
A000
9F80
0000
ENDCHAR
STARTCHAR 0x3070
ENCODING 31282
SWIDTH 960 0
DWIDTH 10 0
BBX 10 11 0 -2
BITMAP
0000
3E80
C480
5280
E800
4780
D480
7780
5480
5780
0000
ENDCHAR
STARTCHAR 0x3071
ENCODING 33576
SWIDTH 960 0
DWIDTH 10 0
BBX 10 11 0 -2
BITMAP
2200
2200
FF80
2200
8800
4F80
1280
0200
4500
9880
0000
ENDCHAR
STARTCHAR 0x3072
ENCODING 33419
SWIDTH 960 0
DWIDTH 10 0
BBX 10 11 0 -2
BITMAP
2200
2200
FF80
2200
0000
7F00
0800
FF80
0800
1800
0000
ENDCHAR
STARTCHAR 0x3073
ENCODING 39983
SWIDTH 960 0
DWIDTH 10 0
BBX 10 11 0 -2
BITMAP
0000
7F80
9480
FD80
A900
FD80
B680
ED80
1680
AD80
0000
ENDCHAR
STARTCHAR 0x3074
ENCODING 20801
SWIDTH 960 0
DWIDTH 10 0
BBX 10 11 0 -2
BITMAP
0000
1000
2200
4100
FF80
1400
1400
1480
2480
C780
0000
ENDCHAR
STARTCHAR 0x3075
ENCODING 21360
SWIDTH 960 0
DWIDTH 10 0
BBX 10 11 0 -2
BITMAP
0000
3780
C480
8480
F480
8480
8480
8480
F580
0400
0000
ENDCHAR
STARTCHAR 0x3076
ENCODING 21693
SWIDTH 960 0
DWIDTH 10 0
BBX 10 11 0 -2
BITMAP
0000
3F80
E480
A480
BF80
A480
AA80
B180
E080
3F80
0000
ENDCHAR
STARTCHAR 0x3077
ENCODING 21729
SWIDTH 960 0
DWIDTH 10 0
BBX 10 11 0 -2
BITMAP
0000
3F00
2100
7F80
4080
7F80
4080
7F80
1200
6180
0000
ENDCHAR
STARTCHAR 0x3078
ENCODING 22240
SWIDTH 960 0
DWIDTH 10 0
BBX 10 11 0 -2
BITMAP
0000
FF80
8880
8880
FF80
8880
9480
A280
8080
FF80
0000
ENDCHAR
STARTCHAR 0x3079
ENCODING 23035
SWIDTH 960 0
DWIDTH 10 0
BBX 10 11 0 -2
BITMAP
0000
5F80
5280
F280
5F80
5280
9680
F980
5080
5F80
0000
ENDCHAR
STARTCHAR 0x307A
ENCODING 24341
SWIDTH 960 0
DWIDTH 10 0
BBX 10 11 0 -2
BITMAP
0000
F100
1100
1100
F100
8100
F100
1100
1100
6100
0000
ENDCHAR
STARTCHAR 0x307B
ENCODING 39154
SWIDTH 960 0
DWIDTH 10 0
BBX 10 11 0 -2
BITMAP
0400
7400
8780
FA80
8A80
FA00
8A00
FA00
9500
E880
0000
ENDCHAR
STARTCHAR 0x307C
ENCODING 28139
SWIDTH 960 0
DWIDTH 10 0
BBX 10 11 0 -2
BITMAP
0000
9E80
4480
1280
8800
5F80
0200
1F80
4200
9F80
0000
ENDCHAR
STARTCHAR 0x307D
ENCODING 32996
SWIDTH 960 0
DWIDTH 10 0
BBX 10 11 0 -2
BITMAP
1000
A500
BD00
9100
A500
BD00
A500
BD00
A480
AC80
0000
ENDCHAR
STARTCHAR 0x307E
ENCODING 34093
SWIDTH 960 0
DWIDTH 10 0
BBX 10 11 0 -2
BITMAP
2200
2200
FF80
1100
EF80
A200
DF80
A400
E880
9F80
0000
ENDCHAR
STARTCHAR 0x3121
ENCODING 38498
SWIDTH 960 0
DWIDTH 10 0
BBX 10 11 0 -2
BITMAP
0400
E400
BF80
A080
CF80
A000
BF80
CA00
8A80
B380
0000
ENDCHAR
STARTCHAR 0x3122
ENCODING 38512
SWIDTH 960 0
DWIDTH 10 0
BBX 10 11 0 -2
BITMAP
0000
EF00
B080
AF80
C000
AF80
A100
DF80
8900
9E80
0000
ENDCHAR
STARTCHAR 0x3123
ENCODING 38560
SWIDTH 960 0
DWIDTH 10 0
BBX 10 11 0 -2
BITMAP
0000
FF80
AA80
A100
CF80
A080
AF80
C200
A880
AE80
0000
ENDCHAR
STARTCHAR 0x3124
ENCODING 38907
SWIDTH 960 0
DWIDTH 10 0
BBX 10 11 0 -2
BITMAP
2000
2F00
F900
5F80
5080
FF80
9080
FF80
8900
F080
0000
ENDCHAR
STARTCHAR 0x3125
ENCODING 21515
SWIDTH 960 0
DWIDTH 10 0
BBX 10 11 0 -2
BITMAP
0100
E100
A100
BF80
A100
A900
A500
A100
E100
0300
0000
ENDCHAR
STARTCHAR 0x3126
ENCODING 21491
SWIDTH 960 0
DWIDTH 10 0
BBX 10 11 0 -2
BITMAP
0800
0800
FF80
1000
1000
3F00
6100
A100
2100
3F00
0000
ENDCHAR
STARTCHAR 0x3127
ENCODING 23431
SWIDTH 960 0
DWIDTH 10 0
BBX 10 11 0 -2
BITMAP
0800
0800
FF80
8080
BE80
0800
0800
FF80
0800
1800
0000
ENDCHAR
STARTCHAR 0x3128
ENCODING 28879
SWIDTH 960 0
DWIDTH 10 0
BBX 10 11 0 -2
BITMAP
0800
1000
7E00
4200
7F80
4000
7F80
0080
5480
AB00
0000
ENDCHAR
STARTCHAR 0x3129
ENCODING 32701
SWIDTH 960 0
DWIDTH 10 0
BBX 10 11 0 -2
BITMAP
0000
F780
1080
9480
5280
1080
3180
5280
9480
3180
0000
ENDCHAR
STARTCHAR 0x312A
ENCODING 36802
SWIDTH 960 0
DWIDTH 10 0
BBX 10 11 0 -2
BITMAP
0000
9F80
4200
0200
1F80
C200
4200
4600
A000
9F80
0000
ENDCHAR
STARTCHAR 0x312B
ENCODING 38632
SWIDTH 960 0
DWIDTH 10 0
BBX 10 11 0 -2
BITMAP
0000
FF80
0800
FF80
8880
AA80
9980
8880
AA80
9980
0000
ENDCHAR
STARTCHAR 0x312C
ENCODING 21359
SWIDTH 960 0
DWIDTH 10 0
BBX 10 11 0 -2
BITMAP
0000
3780
C480
9480
9480
9480
F480
9480
2580
2400
0000
ENDCHAR
STARTCHAR 0x312D
ENCODING 40284
SWIDTH 960 0
DWIDTH 10 0
BBX 10 11 0 -2
BITMAP
0200
A400
2F00
F900
4F00
F900
CF80
7880
CA80
5580
0000
ENDCHAR
STARTCHAR 0x312E
ENCODING 31418
SWIDTH 960 0
DWIDTH 10 0
BBX 10 11 0 -2
BITMAP
0800
0800
FF80
A480
4F00
F900
4F00
F900
4F00
B080
0000
ENDCHAR
STARTCHAR 0x312F
ENCODING 19985
SWIDTH 960 0
DWIDTH 10 0
BBX 10 11 0 -2
BITMAP
0000
7E00
1200
1200
1200
FF80
2200
2200
2200
FF80
0000
ENDCHAR
STARTCHAR 0x3130
ENCODING 30867
SWIDTH 960 0
DWIDTH 10 0
BBX 10 11 0 -2
BITMAP
0400
E500
4F80
4900
9F80
E900
AF80
A900
A900
EF80
0000
ENDCHAR
STARTCHAR 0x3131
ENCODING 33276
SWIDTH 960 0
DWIDTH 10 0
BBX 10 11 0 -2
BITMAP
0800
1000
6780
4080
4080
7780
4080
4080
4080
7F80
0000
ENDCHAR
STARTCHAR 0x3132
ENCODING 28198
SWIDTH 960 0
DWIDTH 10 0
BBX 10 11 0 -2
BITMAP
0000
9F00
5100
1700
9500
7F80
2A80
2A80
6E80
A180
0000
ENDCHAR
STARTCHAR 0x3133
ENCODING 22040
SWIDTH 960 0
DWIDTH 10 0
BBX 10 11 0 -2
BITMAP
0600
0400
FF80
A880
BF00
A800
AF80
B500
E500
5F80
0000
ENDCHAR
STARTCHAR 0x3134
ENCODING 21764
SWIDTH 960 0
DWIDTH 10 0
BBX 10 11 0 -2
BITMAP
0000
0F80
E880
AF80
A880
A880
AF80
E000
0500
1880
0000
ENDCHAR
STARTCHAR 0x3135
ENCODING 27421
SWIDTH 960 0
DWIDTH 10 0
BBX 10 11 0 -2
BITMAP
4100
5500
EB80
5500
FF80
9480
FF80
9080
B480
D580
0000
ENDCHAR
STARTCHAR 0x3136
ENCODING 34074
SWIDTH 960 0
DWIDTH 10 0
BBX 10 11 0 -2
BITMAP
2200
2200
FF80
2200
F880
8F80
F880
8480
FA80
A980
0000
ENDCHAR
STARTCHAR 0x3137
ENCODING 39995
SWIDTH 960 0
DWIDTH 10 0
BBX 10 11 0 -2
BITMAP
0000
7700
9700
FD00
AF80
FA80
AF80
F900
0600
A980
0000
ENDCHAR
STARTCHAR 0x3138
ENCODING 23013
SWIDTH 960 0
DWIDTH 10 0
BBX 10 11 0 -2
BITMAP
0400
4400
4F80
F480
5500
5F80
A400
EF80
5400
4780
0000
ENDCHAR
STARTCHAR 0x3139
ENCODING 21417
SWIDTH 960 0
DWIDTH 10 0
BBX 10 11 0 -2
BITMAP
0000
FF80
8000
F780
9500
F500
9F80
F300
A500
D980
0000
ENDCHAR
STARTCHAR 0x313A
ENCODING 28006
SWIDTH 960 0
DWIDTH 10 0
BBX 10 11 0 -2
BITMAP
0200
8280
5F80
0200
9F80
5280
1F80
1280
5F80
9280
0000
ENDCHAR
STARTCHAR 0x313B
ENCODING 29916
SWIDTH 960 0
DWIDTH 10 0
BBX 10 11 0 -2
BITMAP
0000
7F80
4900
4900
4900
4900
4900
4A80
BE80
8080
0000
ENDCHAR
STARTCHAR 0x313C
ENCODING 38287
SWIDTH 960 0
DWIDTH 10 0
BBX 10 11 0 -2
BITMAP
0000
F780
9480
F780
9480
FF80
8880
BE80
8880
BE80
0000
ENDCHAR
STARTCHAR 0x313D
ENCODING 22082
SWIDTH 960 0
DWIDTH 10 0
BBX 10 11 0 -2
BITMAP
0900
0200
FF80
AA80
AD80
A880
BF80
A080
E880
0580
0000
ENDCHAR
STARTCHAR 0x313E
ENCODING 20113
SWIDTH 960 0
DWIDTH 10 0
BBX 10 11 0 -2
BITMAP
0000
7F00
0000
0000
FF80
1000
1200
2200
4500
7900
0000
ENDCHAR
STARTCHAR 0x313F
ENCODING 36939
SWIDTH 960 0
DWIDTH 10 0
BBX 10 11 0 -2
BITMAP
0000
1F80
9280
5F80
0A80
CF80
4A80
5F80
A200
9F80
0000
ENDCHAR
STARTCHAR 0x3140
ENCODING 38642
SWIDTH 960 0
DWIDTH 10 0
BBX 10 11 0 -2
BITMAP
0000
7F00
0800
FF80
AA80
7F00
0000
FF80
2200
7D00
0000
ENDCHAR
STARTCHAR 0x3141
ENCODING 33615
SWIDTH 960 0
DWIDTH 10 0
BBX 10 11 0 -2
BITMAP
2200
2200
FF80
2000
2F80
4200
DF80
4200
4200
5F80
0000
ENDCHAR
STARTCHAR 0x3142
ENCODING 39180
SWIDTH 960 0
DWIDTH 10 0
BBX 10 11 0 -2
BITMAP
0000
6F80
8480
F780
9480
F780
9480
F480
AF80
D080
0000
ENDCHAR
STARTCHAR 0x3143
ENCODING 21473
SWIDTH 960 0
DWIDTH 10 0
BBX 10 11 0 -2
BITMAP
3000
2380
FC80
B480
4A80
F280
8D00
F900
8A80
FC80
0000
ENDCHAR
STARTCHAR 0x3144
ENCODING 21942
SWIDTH 960 0
DWIDTH 10 0
BBX 10 11 0 -2
BITMAP
0800
2A00
FF80
A280
BE80
1000
7F00
4100
4100
7F00
0000
ENDCHAR
STARTCHAR 0x3145
ENCODING 23344
SWIDTH 960 0
DWIDTH 10 0
BBX 10 11 0 -2
BITMAP
0000
F780
9480
F780
9480
F780
5D00
E380
3C00
C380
0000
ENDCHAR
STARTCHAR 0x3146
ENCODING 24433
SWIDTH 960 0
DWIDTH 10 0
BBX 10 11 0 -2
BITMAP
0000
F880
8900
FA00
8880
F900
4A00
7880
9500
B200
0000
ENDCHAR
STARTCHAR 0x3147
ENCODING 26144
SWIDTH 960 0
DWIDTH 10 0
BBX 10 11 0 -2
BITMAP
0200
0200
EF80
AA80
AA80
EA80
BF80
A200
E500
1880
0000
ENDCHAR
STARTCHAR 0x3148
ENCODING 26355
SWIDTH 960 0
DWIDTH 10 0
BBX 10 11 0 -2
BITMAP
0800
0800
7F00
4900
7F00
4900
7F00
0A00
0C80
F380
0000
ENDCHAR
STARTCHAR 0x3149
ENCODING 26628
SWIDTH 960 0
DWIDTH 10 0
BBX 10 11 0 -2
BITMAP
1100
4A00
2400
FF80
8880
0800
FF80
1A00
2900
C880
0000
ENDCHAR
STARTCHAR 0x314A
ENCODING 27704
SWIDTH 960 0
DWIDTH 10 0
BBX 10 11 0 -2
BITMAP
3000
0C00
0000
7900
0A00
EC00
2A00
4900
8880
1800
0000
ENDCHAR
STARTCHAR 0x314B
ENCODING 27891
SWIDTH 960 0
DWIDTH 10 0
BBX 10 11 0 -2
BITMAP
0C00
8300
4000
1E00
8280
5B00
0A00
0B00
5280
8600
0000
ENDCHAR
STARTCHAR 0x314C
ENCODING 27945
SWIDTH 960 0
DWIDTH 10 0
BBX 10 11 0 -2
BITMAP
0200
8200
5F80
1280
9F80
5280
1F80
0200
4680
9980
0000
ENDCHAR
STARTCHAR 0x314D
ENCODING 29787
SWIDTH 960 0
DWIDTH 10 0
BBX 10 11 0 -2
BITMAP
0900
0900
FF80
4900
5F80
F280
5280
5F80
E500
1880
0000
ENDCHAR
STARTCHAR 0x314E
ENCODING 30408
SWIDTH 960 0
DWIDTH 10 0
BBX 10 11 0 -2
BITMAP
0000
FF00
4200
7B80
A880
9580
7F00
5500
5500
FF80
0000
ENDCHAR
STARTCHAR 0x314F
ENCODING 31310
SWIDTH 960 0
DWIDTH 10 0
BBX 10 11 0 -2
BITMAP
0000
8F80
F200
8F80
F880
2F80
F880
2F80
6500
A880
0000
ENDCHAR
STARTCHAR 0x3150
ENCODING 38964
SWIDTH 960 0
DWIDTH 10 0
BBX 10 11 0 -2
BITMAP
0000
8F80
F200
8F80
F880
0F80
F880
2F80
A500
B880
0000
ENDCHAR
STARTCHAR 0x3151
ENCODING 33521
SWIDTH 960 0
DWIDTH 10 0
BBX 10 11 0 -2
BITMAP
2200
2200
FF80
0800
7F00
4900
4900
FF80
2200
C180
0000
ENDCHAR
STARTCHAR 0x3152
ENCODING 34907
SWIDTH 960 0
DWIDTH 10 0
BBX 10 11 0 -2
BITMAP
0800
4980
BE00
0A00
3F80
5280
DE80
4880
7E80
4980
0000
ENDCHAR
STARTCHAR 0x3153
ENCODING 35424
SWIDTH 960 0
DWIDTH 10 0
BBX 10 11 0 -2
BITMAP
0C00
E300
0000
EE00
0280
FB00
0A00
EB00
B280
E600
0000
ENDCHAR
STARTCHAR 0x3154
ENCODING 37613
SWIDTH 960 0
DWIDTH 10 0
BBX 10 11 0 -2
BITMAP
0480
7500
8000
FF80
2880
F880
2F80
A500
2900
F180
0000
ENDCHAR
STARTCHAR 0x3155
ENCODING 28082
SWIDTH 960 0
DWIDTH 10 0
BBX 10 11 0 -2
BITMAP
0400
8400
7F80
1400
9780
5A80
3480
1500
5300
9C80
0000
ENDCHAR
STARTCHAR 0x3156
ENCODING 30123
SWIDTH 960 0
DWIDTH 10 0
BBX 10 11 0 -2
BITMAP
0400
0400
7F80
CA00
4A00
D180
7F00
5100
8E00
B180
0000
ENDCHAR
STARTCHAR 0x3157
ENCODING 30410
SWIDTH 960 0
DWIDTH 10 0
BBX 10 11 0 -2
BITMAP
2200
1400
0000
FF80
2200
4100
FF80
5500
5500
FF80
0000
ENDCHAR
STARTCHAR 0x3158
ENCODING 39365
SWIDTH 960 0
DWIDTH 10 0
BBX 10 11 0 -2
BITMAP
0000
F780
A480
F480
A480
A780
F500
1500
D880
3080
0000
ENDCHAR
STARTCHAR 0x3159
ENCODING 24742
SWIDTH 960 0
DWIDTH 10 0
BBX 10 11 0 -2
BITMAP
0900
2A00
2000
AF80
A880
A880
AF80
A500
2900
3180
0000
ENDCHAR
STARTCHAR 0x315A
ENCODING 35585
SWIDTH 960 0
DWIDTH 10 0
BBX 10 11 0 -2
BITMAP
0000
EF00
0900
EF00
0900
EF80
1880
EA80
AC80
E300
0000
ENDCHAR
STARTCHAR 0x315B
ENCODING 36234
SWIDTH 960 0
DWIDTH 10 0
BBX 10 11 0 -2
BITMAP
2100
2100
F780
2500
FD80
2500
B680
AC80
E000
9F80
0000
ENDCHAR
STARTCHAR 0x315C
ENCODING 38322
SWIDTH 960 0
DWIDTH 10 0
BBX 10 11 0 -2
BITMAP
0000
F780
9480
F780
9480
FF80
A280
BE80
9480
A680
0000
ENDCHAR
STARTCHAR 0x315D
ENCODING 27022
SWIDTH 960 0
DWIDTH 10 0
BBX 10 11 0 -2
BITMAP
0000
2F80
2200
FF80
2880
6F80
6880
AF80
B300
2C80
0000
ENDCHAR
STARTCHAR 0x315E
ENCODING 21421
SWIDTH 960 0
DWIDTH 10 0
BBX 10 11 0 -2
BITMAP
0000
FF80
9200
F280
8F80
F200
9200
F200
9500
B880
0000
ENDCHAR
STARTCHAR 0x315F
ENCODING 20870
SWIDTH 960 0
DWIDTH 10 0
BBX 10 11 0 -2
BITMAP
0000
FF80
8880
8880
8880
FF80
8080
8080
8080
8380
0000
ENDCHAR
STARTCHAR 0x3160
ENCODING 22290
SWIDTH 960 0
DWIDTH 10 0
BBX 10 11 0 -2
BITMAP
0000
FF80
8880
BE80
8880
FF80
A280
BF80
9480
FF80
0000
ENDCHAR
STARTCHAR 0x3161
ENCODING 22576
SWIDTH 960 0
DWIDTH 10 0
BBX 10 11 0 -2
BITMAP
0000
5F80
5480
F780
5480
5F80
5480
5300
F480
1F80
0000
ENDCHAR
STARTCHAR 0x3162
ENCODING 22852
SWIDTH 960 0
DWIDTH 10 0
BBX 10 11 0 -2
BITMAP
0800
0800
FF80
2A00
4900
FF80
4900
7F00
4880
0F80
0000
ENDCHAR
STARTCHAR 0x3163
ENCODING 23476
SWIDTH 960 0
DWIDTH 10 0
BBX 10 11 0 -2
BITMAP
0800
0800
FF80
A280
3E00
2200
FF80
2100
3E00
C180
0000
ENDCHAR
STARTCHAR 0x3164
ENCODING 24310
SWIDTH 960 0
DWIDTH 10 0
BBX 10 11 0 -2
BITMAP
0000
E180
2E00
4200
E380
2A00
AA00
4F80
B000
8F80
0000
ENDCHAR
STARTCHAR 0x3165
ENCODING 24616
SWIDTH 960 0
DWIDTH 10 0
BBX 10 11 0 -2
BITMAP
0000
7780
5480
9580
5400
2780
C800
0500
5080
9F00
0000
ENDCHAR
STARTCHAR 0x3166
ENCODING 25513
SWIDTH 960 0
DWIDTH 10 0
BBX 10 11 0 -2
BITMAP
0400
4400
7F80
CD00
5480
7F80
D480
5F80
5400
C780
0000
ENDCHAR
STARTCHAR 0x3167
ENCODING 25588
SWIDTH 960 0
DWIDTH 10 0
BBX 10 11 0 -2
BITMAP
0000
5F80
4A80
E100
5F80
4400
7F80
C900
4E00
F180
0000
ENDCHAR
STARTCHAR 0x3168
ENCODING 27839
SWIDTH 960 0
DWIDTH 10 0
BBX 10 11 0 -2
BITMAP
0000
8700
4100
0880
9080
4000
0F80
2880
4880
8F80
0000
ENDCHAR
STARTCHAR 0x3169
ENCODING 28436
SWIDTH 960 0
DWIDTH 10 0
BBX 10 11 0 -2
BITMAP
0400
8400
7F80
2480
9F00
5500
1F00
1500
8F00
B180
0000
ENDCHAR
STARTCHAR 0x316A
ENCODING 28814
SWIDTH 960 0
DWIDTH 10 0
BBX 10 11 0 -2
BITMAP
0800
4900
4900
3600
C180
0800
4900
4900
3600
C180
0000
ENDCHAR
STARTCHAR 0x316B
ENCODING 28948
SWIDTH 960 0
DWIDTH 10 0
BBX 10 11 0 -2
BITMAP
0000
2780
A880
B100
A780
3480
5780
5480
9480
9780
0000
ENDCHAR
STARTCHAR 0x316C
ENCODING 29017
SWIDTH 960 0
DWIDTH 10 0
BBX 10 11 0 -2
BITMAP
0000
3F80
8A00
BF80
AA80
3F80
4400
5F80
8400
BF80
0000
ENDCHAR
STARTCHAR 0x316D
ENCODING 29141
SWIDTH 960 0
DWIDTH 10 0
BBX 10 11 0 -2
BITMAP
2200
FF80
2200
7F00
D580
5500
DD80
0000
5500
8A80
0000
ENDCHAR
STARTCHAR 0x316E
ENCODING 29503
SWIDTH 960 0
DWIDTH 10 0
BBX 10 11 0 -2
BITMAP
0200
2200
BF80
4200
BF80
2880
6F80
A480
3900
CC80
0000
ENDCHAR
STARTCHAR 0x316F
ENCODING 32257
SWIDTH 960 0
DWIDTH 10 0
BBX 10 11 0 -2
BITMAP
0000
4F00
8100
EF00
4100
9F80
EA00
3680
AB00
B680
0000
ENDCHAR
STARTCHAR 0x3170
ENCODING 33398
SWIDTH 960 0
DWIDTH 10 0
BBX 10 11 0 -2
BITMAP
2000
F700
A900
FF80
AA80
FA80
4F80
7800
2880
FF80
0000
ENDCHAR
STARTCHAR 0x3171
ENCODING 33489
SWIDTH 960 0
DWIDTH 10 0
BBX 10 11 0 -2
BITMAP
2200
2200
FF80
2200
F780
9480
F780
9400
2480
C780
0000
ENDCHAR
STARTCHAR 0x3172
ENCODING 34199
SWIDTH 960 0
DWIDTH 10 0
BBX 10 11 0 -2
BITMAP
2200
2200
FF80
2200
FF80
9280
BE80
D580
9280
FF80
0000
ENDCHAR
STARTCHAR 0x3173
ENCODING 36960
SWIDTH 960 0
DWIDTH 10 0
BBX 10 11 0 -2
BITMAP
0200
8200
5F80
0200
1F80
C900
4F00
4A80
A200
9F80
0000
ENDCHAR
STARTCHAR 0x3174
ENCODING 37467
SWIDTH 960 0
DWIDTH 10 0
BBX 10 11 0 -2
BITMAP
0000
7700
8100
F480
2880
F000
2F80
A880
2880
FF80
0000
ENDCHAR
STARTCHAR 0x3175
ENCODING 40219
SWIDTH 960 0
DWIDTH 10 0
BBX 10 11 0 -2
BITMAP
0000
7780
5480
BF00
6180
BF00
2100
3F80
4080
AA80
0000
ENDCHAR
STARTCHAR 0x3176
ENCODING 22633
SWIDTH 960 0
DWIDTH 10 0
BBX 10 11 0 -2
BITMAP
0800
4800
5F80
E900
4F00
4000
5F80
4A80
EA80
1F80
0000
ENDCHAR
STARTCHAR 0x3177
ENCODING 26044
SWIDTH 960 0
DWIDTH 10 0
BBX 10 11 0 -2
BITMAP
0000
4700
F880
4000
4600
7180
9000
9000
1600
6180
0000
ENDCHAR
STARTCHAR 0x3178
ENCODING 27738
SWIDTH 960 0
DWIDTH 10 0
BBX 10 11 0 -2
BITMAP
0000
9F80
4400
0400
9F80
4800
0F80
1080
5080
8300
0000
ENDCHAR
STARTCHAR 0x3179
ENCODING 29989
SWIDTH 960 0
DWIDTH 10 0
BBX 10 11 0 -2
BITMAP
0000
2F80
AA80
FF80
2A80
FF80
2200
3F80
E480
1980
0000
ENDCHAR
STARTCHAR 0x317A
ENCODING 20985
SWIDTH 960 0
DWIDTH 10 0
BBX 10 11 0 -2
BITMAP
0000
F780
9480
9480
9480
9C80
8080
8080
8080
FF80
0000
ENDCHAR
STARTCHAR 0x317B
ENCODING 22830
SWIDTH 960 0
DWIDTH 10 0
BBX 10 11 0 -2
BITMAP
0800
0800
7F00
4900
4900
4900
FF80
1400
2200
C180
0000
ENDCHAR
STARTCHAR 0x317C
ENCODING 22885
SWIDTH 960 0
DWIDTH 10 0
BBX 10 11 0 -2
BITMAP
0800
1000
7F00
5500
7F00
4900
5500
FF80
2200
C180
0000
ENDCHAR
STARTCHAR 0x317D
ENCODING 24448
SWIDTH 960 0
DWIDTH 10 0
BBX 10 11 0 -2
BITMAP
0400
4200
8000
1F80
2200
4200
CF80
4200
4200
5F80
0000
ENDCHAR
STARTCHAR 0x317E
ENCODING 24540
SWIDTH 960 0
DWIDTH 10 0
BBX 10 11 0 -2
BITMAP
0400
0400
7F80
4800
4400
4100
4880
5800
A880
8F80
0000
ENDCHAR
STARTCHAR 0x3221
ENCODING 25276
SWIDTH 960 0
DWIDTH 10 0
BBX 10 11 0 -2
BITMAP
0000
5F80
5280
F280
5F80
5280
7280
DF80
4200
C200
0000
ENDCHAR
STARTCHAR 0x3222
ENCODING 26106
SWIDTH 960 0
DWIDTH 10 0
BBX 10 11 0 -2
BITMAP
0000
1F80
E200
A200
A200
EF80
A200
A200
E200
1F80
0000
ENDCHAR
STARTCHAR 0x3223
ENCODING 27178
SWIDTH 960 0
DWIDTH 10 0
BBX 10 11 0 -2
BITMAP
0500
2500
3F80
E500
3F80
6A80
6F80
AA80
AF00
3080
0000
ENDCHAR
STARTCHAR 0x3224
ENCODING 27431
SWIDTH 960 0
DWIDTH 10 0
BBX 10 11 0 -2
BITMAP
0800
F800
8F80
DA80
A280
A200
D200
8200
E500
1880
0000
ENDCHAR
STARTCHAR 0x3225
ENCODING 27572
SWIDTH 960 0
DWIDTH 10 0
BBX 10 11 0 -2
BITMAP
0000
F780
8480
D480
AC80
A000
DF80
8480
F300
0C80
0000
ENDCHAR
STARTCHAR 0x3226
ENCODING 29579
SWIDTH 960 0
DWIDTH 10 0
BBX 10 11 0 -2
BITMAP
0000
FF80
0800
0800
0800
7F00
0800
0800
0800
FF80
0000
ENDCHAR
STARTCHAR 0x3227
ENCODING 32705
SWIDTH 960 0
DWIDTH 10 0
BBX 10 11 0 -2
BITMAP
0000
2600
5100
BE80
0000
F780
1080
B580
5280
B580
0000
ENDCHAR
STARTCHAR 0x3228
ENCODING 35158
SWIDTH 960 0
DWIDTH 10 0
BBX 10 11 0 -2
BITMAP
0200
4400
5F80
F580
1A80
3780
4A80
DF80
6500
5880
0000
ENDCHAR
STARTCHAR 0x3229
ENCODING 40236
SWIDTH 960 0
DWIDTH 10 0
BBX 10 11 0 -2
BITMAP
0800
2A00
FF80
9080
BE80
2200
3F80
0080
5480
9580
0000
ENDCHAR
STARTCHAR 0x322A
ENCODING 40206
SWIDTH 960 0
DWIDTH 10 0
BBX 10 11 0 -2
BITMAP
0200
F400
8F00
D900
AF00
A900
DF80
8080
EA80
1580
0000
ENDCHAR
STARTCHAR 0x322B
ENCODING 40644
SWIDTH 960 0
DWIDTH 10 0
BBX 10 11 0 -2
BITMAP
1200
1200
7F80
1200
FF80
2900
3F00
2900
3F00
C080
0000
ENDCHAR
STARTCHAR 0x322C
ENCODING 23713
SWIDTH 960 0
DWIDTH 10 0
BBX 10 11 0 -2
BITMAP
0000
FF80
8080
A280
9480
FF80
8880
AA80
BE80
8180
0000
ENDCHAR
STARTCHAR 0x322D
ENCODING 27798
SWIDTH 960 0
DWIDTH 10 0
BBX 10 11 0 -2
BITMAP
0200
8200
5F80
1280
9280
5280
1F80
0200
4200
8200
0000
ENDCHAR
STARTCHAR 0x322E
ENCODING 33659
SWIDTH 960 0
DWIDTH 10 0
BBX 10 11 0 -2
BITMAP
2200
2200
FF80
A200
4A80
AB00
6200
A200
2500
D880
0000
ENDCHAR
STARTCHAR 0x322F
ENCODING 20740
SWIDTH 960 0
DWIDTH 10 0
BBX 10 11 0 -2
BITMAP
0200
2200
3F80
4900
DF80
4880
4F80
4200
2880
4E80
0000
ENDCHAR
STARTCHAR 0x3230
ENCODING 23627
SWIDTH 960 0
DWIDTH 10 0
BBX 10 11 0 -2
BITMAP
0000
7F80
4080
7F80
5100
7F00
4480
9F00
8400
3F80
0000
ENDCHAR
STARTCHAR 0x3231
ENCODING 25014
SWIDTH 960 0
DWIDTH 10 0
BBX 10 11 0 -2
BITMAP
0200
2200
3F80
A900
BF80
A880
AF80
0200
2880
4E80
0000
ENDCHAR
STARTCHAR 0x3232
ENCODING 33222
SWIDTH 960 0
DWIDTH 10 0
BBX 10 11 0 -2
BITMAP
0200
E200
BF80
A900
FF80
A880
AF80
E200
A880
AE80
0000
ENDCHAR
STARTCHAR 0x3233
ENCODING 26742
SWIDTH 960 0
DWIDTH 10 0
BBX 10 11 0 -2
BITMAP
0000
5F00
4100
FF80
5280
5F80
D280
7F80
5280
5280
0000
ENDCHAR
STARTCHAR 0x3234
ENCODING 29281
SWIDTH 960 0
DWIDTH 10 0
BBX 10 11 0 -2
BITMAP
0200
2200
A200
F200
AF80
A200
3200
E200
2200
2F80
0000
ENDCHAR
STARTCHAR 0x3235
ENCODING 20057
SWIDTH 960 0
DWIDTH 10 0
BBX 10 11 0 -2
BITMAP
0000
7F00
0200
0400
0800
1000
2080
4080
4080
3F00
0000
ENDCHAR
STARTCHAR 0x3236
ENCODING 20474
SWIDTH 960 0
DWIDTH 10 0
BBX 10 11 0 -2
BITMAP
0400
2400
3F80
4D00
D480
7F80
5480
5F80
5400
4780
0000
ENDCHAR
STARTCHAR 0x3237
ENCODING 21368
SWIDTH 960 0
DWIDTH 10 0
BBX 10 11 0 -2
BITMAP
4000
4780
7C80
A480
FC80
2480
3480
A480
A580
FC00
0000
ENDCHAR
STARTCHAR 0x3238
ENCODING 24681
SWIDTH 960 0
DWIDTH 10 0
BBX 10 11 0 -2
BITMAP
0000
7F00
4900
7F00
5500
6300
7F00
0400
5100
9E80
0000
ENDCHAR
STARTCHAR 0x3239
ENCODING 28201
SWIDTH 960 0
DWIDTH 10 0
BBX 10 11 0 -2
BITMAP
0000
9F00
5100
1F00
9100
5F00
0000
3F80
6A80
BF80
0000
ENDCHAR
STARTCHAR 0x323A
ENCODING 31311
SWIDTH 960 0
DWIDTH 10 0
BBX 10 11 0 -2
BITMAP
0000
1F80
EA80
2100
FF80
2080
2F80
7200
A880
2E80
0000
ENDCHAR
STARTCHAR 0x323B
ENCODING 38899
SWIDTH 960 0
DWIDTH 10 0
BBX 10 11 0 -2
BITMAP
0800
0800
7F80
1200
1200
FF80
2100
3F00
2100
3F00
0000
ENDCHAR
STARTCHAR 0x323C
ENCODING 19979
SWIDTH 960 0
DWIDTH 10 0
BBX 10 11 0 -2
BITMAP
0000
FF80
0800
0800
0C00
0A00
0900
0800
0800
0800
0000
ENDCHAR
STARTCHAR 0x323D
ENCODING 21270
SWIDTH 960 0
DWIDTH 10 0
BBX 10 11 0 -2
BITMAP
0800
2800
2880
4900
CA00
4C00
4800
4880
4880
4F80
0000
ENDCHAR
STARTCHAR 0x323E
ENCODING 20206
SWIDTH 960 0
DWIDTH 10 0
BBX 10 11 0 -2
BITMAP
0000
2F80
2800
4800
CF80
4880
5480
5500
4300
4C80
0000
ENDCHAR
STARTCHAR 0x323F
ENCODING 20309
SWIDTH 960 0
DWIDTH 10 0
BBX 10 11 0 -2
BITMAP
0000
3F80
2080
5E80
D280
5280
5280
5E80
4080
4180
0000
ENDCHAR
STARTCHAR 0x3240
ENCODING 20285
SWIDTH 960 0
DWIDTH 10 0
BBX 10 11 0 -2
BITMAP
0800
2B80
2A80
5E80
CA80
4A80
5280
5280
4280
4F80
0000
ENDCHAR
STARTCHAR 0x3241
ENCODING 20385
SWIDTH 960 0
DWIDTH 10 0
BBX 10 11 0 -2
BITMAP
0000
7F80
4A00
4A00
BF80
AA80
AA80
AA80
AA80
BF80
0000
ENDCHAR
STARTCHAR 0x3242
ENCODING 20339
SWIDTH 960 0
DWIDTH 10 0
BBX 10 11 0 -2
BITMAP
0200
2200
2F80
4200
DF80
4200
4F80
4200
4200
5F80
0000
ENDCHAR
STARTCHAR 0x3243
ENCODING 21152
SWIDTH 960 0
DWIDTH 10 0
BBX 10 11 0 -2
BITMAP
2000
2000
2380
FA80
4A80
4A80
4A80
8A80
8A80
3380
0000
ENDCHAR
STARTCHAR 0x3244
ENCODING 21487
SWIDTH 960 0
DWIDTH 10 0
BBX 10 11 0 -2
BITMAP
0000
FF80
0100
7900
4900
4900
4900
7900
0100
0300
0000
ENDCHAR
STARTCHAR 0x3245
ENCODING 22025
SWIDTH 960 0
DWIDTH 10 0
BBX 10 11 0 -2
BITMAP
0800
0800
FF80
0800
7F00
2200
FF80
5480
9480
B780
0000
ENDCHAR
STARTCHAR 0x3246
ENCODING 22799
SWIDTH 960 0
DWIDTH 10 0
BBX 10 11 0 -2
BITMAP
0000
FF80
0800
3F00
2100
3F00
2100
D300
1E00
E180
0000
ENDCHAR
STARTCHAR 0x3247
ENCODING 23233
SWIDTH 960 0
DWIDTH 10 0
BBX 10 11 0 -2
BITMAP
0200
4200
5F80
F080
5F00
5480
AA80
E500
5900
4680
0000
ENDCHAR
STARTCHAR 0x3248
ENCODING 23478
SWIDTH 960 0
DWIDTH 10 0
BBX 10 11 0 -2
BITMAP
0800
0800
FF80
8080
7F00
2880
CD00
3600
C580
1800
0000
ENDCHAR
STARTCHAR 0x3249
ENCODING 23521
SWIDTH 960 0
DWIDTH 10 0
BBX 10 11 0 -2
BITMAP
0800
0800
FF80
A280
BE80
2200
7F00
9280
1200
6600
0000
ENDCHAR
STARTCHAR 0x324A
ENCODING 31185
SWIDTH 960 0
DWIDTH 10 0
BBX 10 11 0 -2
BITMAP
0000
3500
C300
4900
F500
4100
6180
C700
5900
4100
0000
ENDCHAR
STARTCHAR 0x324B
ENCODING 26247
SWIDTH 960 0
DWIDTH 10 0
BBX 10 11 0 -2
BITMAP
0000
3F80
E880
AB80
B800
E380
BC80
A280
FB00
2480
0000
ENDCHAR
STARTCHAR 0x324C
ENCODING 26524
SWIDTH 960 0
DWIDTH 10 0
BBX 10 11 0 -2
BITMAP
0000
7F00
4900
7F00
4900
7F00
0800
FF80
2A00
C980
0000
ENDCHAR
STARTCHAR 0x324D
ENCODING 26550
SWIDTH 960 0
DWIDTH 10 0
BBX 10 11 0 -2
BITMAP
4000
4780
F480
5480
B780
0800
FF80
1A00
2900
C880
0000
ENDCHAR
STARTCHAR 0x324E
ENCODING 27468
SWIDTH 960 0
DWIDTH 10 0
BBX 10 11 0 -2
BITMAP
0800
F800
AF80
AA80
EA80
0200
FA00
AA00
ED00
1880
0000
ENDCHAR
STARTCHAR 0x324F
ENCODING 27827
SWIDTH 960 0
DWIDTH 10 0
BBX 10 11 0 -2
BITMAP
0000
BF80
4100
1D00
9500
5500
1500
1D00
4100
8300
0000
ENDCHAR
STARTCHAR 0x3250
ENCODING 28779
SWIDTH 960 0
DWIDTH 10 0
BBX 10 11 0 -2
BITMAP
0800
0800
0880
4900
8A00
0800
0C00
1200
2100
C080
0000
ENDCHAR
STARTCHAR 0x3251
ENCODING 29634
SWIDTH 960 0
DWIDTH 10 0
BBX 10 11 0 -2
BITMAP
0000
1F80
E080
4E80
4A80
EA80
4A80
4E80
E080
0380
0000
ENDCHAR
STARTCHAR 0x3252
ENCODING 31117
SWIDTH 960 0
DWIDTH 10 0
BBX 10 11 0 -2
BITMAP
0000
5F00
5100
F700
1500
3F80
5280
D280
5E80
4180
0000
ENDCHAR
STARTCHAR 0x3253
ENCODING 31166
SWIDTH 960 0
DWIDTH 10 0
BBX 10 11 0 -2
BITMAP
0000
0700
7800
0800
0800
FF80
0800
1A00
2900
C880
0000
ENDCHAR
STARTCHAR 0x3254
ENCODING 31292
SWIDTH 960 0
DWIDTH 10 0
BBX 10 11 0 -2
BITMAP
0200
3200
DF80
5080
FF00
4480
6A80
C500
5900
4680
0000
ENDCHAR
STARTCHAR 0x3255
ENCODING 31623
SWIDTH 960 0
DWIDTH 10 0
BBX 10 11 0 -2
BITMAP
0400
4400
7780
A900
FF80
8880
BE80
9480
9480
FF80
0000
ENDCHAR
STARTCHAR 0x3256
ENCODING 33457
SWIDTH 960 0
DWIDTH 10 0
BBX 10 11 0 -2
BITMAP
2200
2200
FF80
2200
2800
4980
CE00
4800
4880
4F80
0000
ENDCHAR
STARTCHAR 0x3257
ENCODING 33499
SWIDTH 960 0
DWIDTH 10 0
BBX 10 11 0 -2
BITMAP
2200
2200
FF80
2200
FF80
0100
7900
4900
7900
0700
0000
ENDCHAR
STARTCHAR 0x3258
ENCODING 33540
SWIDTH 960 0
DWIDTH 10 0
BBX 10 11 0 -2
BITMAP
2200
2200
FF80
2200
4000
FB80
4A80
4A80
8A80
B380
0000
ENDCHAR
STARTCHAR 0x3259
ENCODING 33655
SWIDTH 960 0
DWIDTH 10 0
BBX 10 11 0 -2
BITMAP
2200
2200
FF80
2200
3F80
4080
DE80
5280
5E80
4180
0000
ENDCHAR
STARTCHAR 0x325A
ENCODING 33775
SWIDTH 960 0
DWIDTH 10 0
BBX 10 11 0 -2
BITMAP
2200
2200
FF80
2200
FF80
4900
FF80
4900
FF80
0800
0000
ENDCHAR
STARTCHAR 0x325B
ENCODING 33747
SWIDTH 960 0
DWIDTH 10 0
BBX 10 11 0 -2
BITMAP
2200
2200
FF80
4900
7F00
4900
FF80
1A00
2900
C880
0000
ENDCHAR
STARTCHAR 0x325C
ENCODING 34662
SWIDTH 960 0
DWIDTH 10 0
BBX 10 11 0 -2
BITMAP
0000
5F80
5480
F580
DC00
D380
FC80
5280
5B00
F480
0000
ENDCHAR
STARTCHAR 0x325D
ENCODING 35506
SWIDTH 960 0
DWIDTH 10 0
BBX 10 11 0 -2
BITMAP
0000
EF80
0A80
EF80
0A80
EF80
0200
FF80
A600
EA80
0000
ENDCHAR
STARTCHAR 0x325E
ENCODING 22057
SWIDTH 960 0
DWIDTH 10 0
BBX 10 11 0 -2
BITMAP
0500
0500
FF80
A500
BF80
AA80
BF80
AA80
FF80
0200
0000
ENDCHAR
STARTCHAR 0x325F
ENCODING 36008
SWIDTH 960 0
DWIDTH 10 0
BBX 10 11 0 -2
BITMAP
0000
2980
4E00
C880
7F80
2200
3E00
2200
3E00
C180
0000
ENDCHAR
STARTCHAR 0x3260
ENCODING 36838
SWIDTH 960 0
DWIDTH 10 0
BBX 10 11 0 -2
BITMAP
0800
8800
4B80
1E80
0A80
CA80
5280
5780
A000
9F80
0000
ENDCHAR
STARTCHAR 0x3261
ENCODING 36942
SWIDTH 960 0
DWIDTH 10 0
BBX 10 11 0 -2
BITMAP
0000
8F00
4900
0B00
0A00
DF80
5480
5780
A000
9F80
0000
ENDCHAR
STARTCHAR 0x3262
ENCODING 38686
SWIDTH 960 0
DWIDTH 10 0
BBX 10 11 0 -2
BITMAP
0000
7F00
0800
FF80
AA80
0800
F780
8480
F300
8C80
0000
ENDCHAR
STARTCHAR 0x3263
ENCODING 34442
SWIDTH 960 0
DWIDTH 10 0
BBX 10 11 0 -2
BITMAP
0200
2200
2200
FF80
A880
AA80
FA80
2100
2B00
FC80
0000
ENDCHAR
STARTCHAR 0x3264
ENCODING 20420
SWIDTH 960 0
DWIDTH 10 0
BBX 10 11 0 -2
BITMAP
0200
3E80
5280
D200
7F80
5200
5A80
7100
5280
5C80
0000
ENDCHAR
STARTCHAR 0x3265
ENCODING 23784
SWIDTH 960 0
DWIDTH 10 0
BBX 10 11 0 -2
BITMAP
0200
3E80
2A80
AA00
BF80
AA00
AE80
B900
EA80
1C80
0000
ENDCHAR
STARTCHAR 0x3266
ENCODING 25105
SWIDTH 960 0
DWIDTH 10 0
BBX 10 11 0 -2
BITMAP
0400
1D00
E480
2400
FF80
2200
3A80
E100
2280
6C80
0000
ENDCHAR
STARTCHAR 0x3267
ENCODING 29273
SWIDTH 960 0
DWIDTH 10 0
BBX 10 11 0 -2
BITMAP
0000
7F00
2200
2200
2200
FF80
0A00
1200
2200
C600
0000
ENDCHAR
STARTCHAR 0x3268
ENCODING 30011
SWIDTH 960 0
DWIDTH 10 0
BBX 10 11 0 -2
BITMAP
0000
FF80
0800
BE80
AA80
BE80
AA80
BE80
8080
FF80
0000
ENDCHAR
STARTCHAR 0x3269
ENCODING 33253
SWIDTH 960 0
DWIDTH 10 0
BBX 10 11 0 -2
BITMAP
0200
FA00
A200
F200
9200
F200
A500
A500
F880
0880
0000
ENDCHAR
STARTCHAR 0x326A
ENCODING 33469
SWIDTH 960 0
DWIDTH 10 0
BBX 10 11 0 -2
BITMAP
2200
2200
FF80
2200
7F00
2200
FF80
1200
2200
CE00
0000
ENDCHAR
STARTCHAR 0x326B
ENCODING 34558
SWIDTH 960 0
DWIDTH 10 0
BBX 10 11 0 -2
BITMAP
0200
3E80
2A80
EA00
BF80
AA00
EE80
3900
2A80
FC80
0000
ENDCHAR
STARTCHAR 0x326C
ENCODING 36032
SWIDTH 960 0
DWIDTH 10 0
BBX 10 11 0 -2
BITMAP
4000
4780
F480
5480
BF80
2200
3E00
2200
3E00
C180
0000
ENDCHAR
STARTCHAR 0x326D
ENCODING 38597
SWIDTH 960 0
DWIDTH 10 0
BBX 10 11 0 -2
BITMAP
0400
F500
AF80
A900
AF80
F900
2F80
6900
A900
6F80
0000
ENDCHAR
STARTCHAR 0x326E
ENCODING 39187
SWIDTH 960 0
DWIDTH 10 0
BBX 10 11 0 -2
BITMAP
0200
6680
9A80
EA00
BF80
EA00
AE80
F900
AA80
DC80
0000
ENDCHAR
STARTCHAR 0x326F
ENCODING 39381
SWIDTH 960 0
DWIDTH 10 0
BBX 10 11 0 -2
BITMAP
4000
4780
F480
5F80
A400
3F00
2400
3F80
4080
9580
0000
ENDCHAR
STARTCHAR 0x3270
ENCODING 20171
SWIDTH 960 0
DWIDTH 10 0
BBX 10 11 0 -2
BITMAP
0000
1C00
2200
4100
A280
2200
2200
2200
4200
4200
0000
ENDCHAR
STARTCHAR 0x3271
ENCODING 20250
SWIDTH 960 0
DWIDTH 10 0
BBX 10 11 0 -2
BITMAP
0000
1C00
2200
4100
BE80
0000
FF80
2200
4500
7900
0000
ENDCHAR
STARTCHAR 0x3272
ENCODING 35299
SWIDTH 960 0
DWIDTH 10 0
BBX 10 11 0 -2
BITMAP
0000
7780
9280
FA80
AD80
F900
AF80
F900
8F80
9900
0000
ENDCHAR
STARTCHAR 0x3273
ENCODING 22238
SWIDTH 960 0
DWIDTH 10 0
BBX 10 11 0 -2
BITMAP
0000
FF80
8080
BE80
A280
A280
A280
BE80
8080
FF80
0000
ENDCHAR
STARTCHAR 0x3274
ENCODING 22602
SWIDTH 960 0
DWIDTH 10 0
BBX 10 11 0 -2
BITMAP
0200
4400
5F80
F480
5F80
5480
5F80
4D00
D480
2780
0000
ENDCHAR
STARTCHAR 0x3275
ENCODING 22730
SWIDTH 960 0
DWIDTH 10 0
BBX 10 11 0 -2
BITMAP
0400
4400
5F80
EA80
5F80
4400
7F80
4A80
F100
1C80
0000
ENDCHAR
STARTCHAR 0x3276
ENCODING 24315
SWIDTH 960 0
DWIDTH 10 0
BBX 10 11 0 -2
BITMAP
0000
EF80
2880
4E80
EA80
2E80
A880
4F80
A000
9F80
0000
ENDCHAR
STARTCHAR 0x3277
ENCODING 24555
SWIDTH 960 0
DWIDTH 10 0
BBX 10 11 0 -2
BITMAP
0200
2200
2F80
A280
A280
BF80
A200
A200
2500
3880
0000
ENDCHAR
STARTCHAR 0x3278
ENCODING 24618
SWIDTH 960 0
DWIDTH 10 0
BBX 10 11 0 -2
BITMAP
0000
2F80
2080
A900
A600
B980
A200
AF80
2200
3F80
0000
ENDCHAR
STARTCHAR 0x3279
ENCODING 24724
SWIDTH 960 0
DWIDTH 10 0
BBX 10 11 0 -2
BITMAP
0800
2800
2F80
B000
AF80
AA80
BF80
AA80
2A80
2F80
0000
ENDCHAR
STARTCHAR 0x327A
ENCODING 24674
SWIDTH 960 0
DWIDTH 10 0
BBX 10 11 0 -2
BITMAP
0000
3F80
2200
AA80
AA80
AA80
A200
A200
2500
3880
0000
ENDCHAR
STARTCHAR 0x327B
ENCODING 25040
SWIDTH 960 0
DWIDTH 10 0
BBX 10 11 0 -2
BITMAP
0400
2400
3F80
AA80
BF80
A400
BF80
AA80
3900
2C80
0000
ENDCHAR
STARTCHAR 0x327C
ENCODING 25106
SWIDTH 960 0
DWIDTH 10 0
BBX 10 11 0 -2
BITMAP
0400
0480
FF80
0200
5280
FA80
5100
5100
8280
8C80
0000
ENDCHAR
STARTCHAR 0x327D
ENCODING 25296
SWIDTH 960 0
DWIDTH 10 0
BBX 10 11 0 -2
BITMAP
0000
4F80
4880
E880
4F80
4000
DF80
4480
4880
D300
0000
ENDCHAR
STARTCHAR 0x327E
ENCODING 25913
SWIDTH 960 0
DWIDTH 10 0
BBX 10 11 0 -2
BITMAP
0800
0800
EF80
2900
3100
E500
8500
A200
E600
1980
0000
ENDCHAR
STARTCHAR 0x3321
ENCODING 39745
SWIDTH 960 0
DWIDTH 10 0
BBX 10 11 0 -2
BITMAP
2000
4280
F980
AC80
FA80
A880
FB80
2C80
6000
BF80
0000
ENDCHAR
STARTCHAR 0x3322
ENCODING 26214
SWIDTH 960 0
DWIDTH 10 0
BBX 10 11 0 -2
BITMAP
0800
0800
EF80
B000
AF80
EA80
BF80
AA80
EA80
0F80
0000
ENDCHAR
STARTCHAR 0x3323
ENCODING 26800
SWIDTH 960 0
DWIDTH 10 0
BBX 10 11 0 -2
BITMAP
0200
2280
3F80
E200
2A80
7E80
6B00
A900
A280
2C80
0000
ENDCHAR
STARTCHAR 0x3324
ENCODING 28023
SWIDTH 960 0
DWIDTH 10 0
BBX 10 11 0 -2
BITMAP
0800
8800
4F80
1000
9F80
4A80
3F80
1280
5280
9F80
0000
ENDCHAR
STARTCHAR 0x3325
ENCODING 28784
SWIDTH 960 0
DWIDTH 10 0
BBX 10 11 0 -2
BITMAP
0000
7F80
4200
5280
5280
5280
4200
8500
8880
3080
0000
ENDCHAR
STARTCHAR 0x3326
ENCODING 30028
SWIDTH 960 0
DWIDTH 10 0
BBX 10 11 0 -2
BITMAP
0000
7F00
4900
7F00
4900
7F00
3200
D300
1280
6200
0000
ENDCHAR
STARTCHAR 0x3327
ENCODING 30342
SWIDTH 960 0
DWIDTH 10 0
BBX 10 11 0 -2
BITMAP
0400
4400
7780
4400
4480
FF80
4100
7F00
4100
7F00
0000
ENDCHAR
STARTCHAR 0x3328
ENCODING 32117
SWIDTH 960 0
DWIDTH 10 0
BBX 10 11 0 -2
BITMAP
0000
4700
8880
F000
2F80
4000
FF80
2400
A880
AF80
0000
ENDCHAR
STARTCHAR 0x3329
ENCODING 33445
SWIDTH 960 0
DWIDTH 10 0
BBX 10 11 0 -2
BITMAP
2200
2200
FF80
2200
1C00
2200
C180
2200
2200
C200
0000
ENDCHAR
STARTCHAR 0x332A
ENCODING 34809
SWIDTH 960 0
DWIDTH 10 0
BBX 10 11 0 -2
BITMAP
0000
7780
9280
FF80
AA00
FF80
4900
7F00
0880
FF80
0000
ENDCHAR
STARTCHAR 0x332B
ENCODING 38283
SWIDTH 960 0
DWIDTH 10 0
BBX 10 11 0 -2
BITMAP
0000
F780
9480
F780
9480
FF80
9480
BE80
9480
A580
0000
ENDCHAR
STARTCHAR 0x332C
ENCODING 38542
SWIDTH 960 0
DWIDTH 10 0
BBX 10 11 0 -2
BITMAP
0100
E900
AD80
A900
C900
AF80
A880
CF80
8880
8F80
0000
ENDCHAR
STARTCHAR 0x332D
ENCODING 35997
SWIDTH 960 0
DWIDTH 10 0
BBX 10 11 0 -2
BITMAP
0000
7F00
4100
7F00
4100
4100
7F00
0000
2200
C180
0000
ENDCHAR
STARTCHAR 0x332E
ENCODING 20977
SWIDTH 960 0
DWIDTH 10 0
BBX 10 11 0 -2
BITMAP
2000
AB80
FA80
0280
FA80
8A80
FA80
5280
5280
FC80
0000
ENDCHAR
STARTCHAR 0x332F
ENCODING 21182
SWIDTH 960 0
DWIDTH 10 0
BBX 10 11 0 -2
BITMAP
2200
2200
FA00
4F80
8A80
5280
2480
C880
3080
CB00
0000
ENDCHAR
STARTCHAR 0x3330
ENCODING 22806
SWIDTH 960 0
DWIDTH 10 0
BBX 10 11 0 -2
BITMAP
0200
4200
7A00
4A00
AE00
AB00
1280
1200
2200
C200
0000
ENDCHAR
STARTCHAR 0x3331
ENCODING 21683
SWIDTH 960 0
DWIDTH 10 0
BBX 10 11 0 -2
BITMAP
0200
0200
FF80
A480
A900
AA00
A480
A900
E600
1980
0000
ENDCHAR
STARTCHAR 0x3332
ENCODING 23475
SWIDTH 960 0
DWIDTH 10 0
BBX 10 11 0 -2
BITMAP
0800
0800
FF80
8880
7F00
0800
FF80
2200
2200
3E00
0000
ENDCHAR
STARTCHAR 0x3333
ENCODING 23830
SWIDTH 960 0
DWIDTH 10 0
BBX 10 11 0 -2
BITMAP
0800
8880
FF80
4400
7F80
4400
7F80
4400
8400
BF80
0000
ENDCHAR
STARTCHAR 0x3334
ENCODING 24936
SWIDTH 960 0
DWIDTH 10 0
BBX 10 11 0 -2
BITMAP
0000
5F80
5500
DD00
F780
DD00
D300
5500
5D00
4980
0000
ENDCHAR
STARTCHAR 0x3335
ENCODING 27010
SWIDTH 960 0
DWIDTH 10 0
BBX 10 11 0 -2
BITMAP
0000
5F80
5500
FD00
5780
5D00
D300
7500
5D00
4980
0000
ENDCHAR
STARTCHAR 0x3336
ENCODING 28079
SWIDTH 960 0
DWIDTH 10 0
BBX 10 11 0 -2
BITMAP
0000
9F80
5200
1780
9200
5F80
1200
1780
4200
9F80
0000
ENDCHAR
STARTCHAR 0x3337
ENCODING 30861
SWIDTH 960 0
DWIDTH 10 0
BBX 10 11 0 -2
BITMAP
0000
EF80
4880
4F80
8880
FF80
A080
A880
A480
E180
0000
ENDCHAR
STARTCHAR 0x3338
ENCODING 33995
SWIDTH 960 0
DWIDTH 10 0
BBX 10 11 0 -2
BITMAP
2200
2200
FF80
0800
FF80
2100
FF80
5500
5500
FF80
0000
ENDCHAR
STARTCHAR 0x3339
ENCODING 34903
SWIDTH 960 0
DWIDTH 10 0
BBX 10 11 0 -2
BITMAP
0800
4B80
9C00
0800
3D80
4880
DC80
4880
4880
5D80
0000
ENDCHAR
STARTCHAR 0x333A
ENCODING 35442
SWIDTH 960 0
DWIDTH 10 0
BBX 10 11 0 -2
BITMAP
0200
E200
1F80
E480
0900
EA00
0480
E900
A600
F980
0000
ENDCHAR
STARTCHAR 0x333B
ENCODING 37799
SWIDTH 960 0
DWIDTH 10 0
BBX 10 11 0 -2
BITMAP
0200
6A80
8F80
F000
2F80
F880
2F80
A500
2500
FF80
0000
ENDCHAR
STARTCHAR 0x333C
ENCODING 39608
SWIDTH 960 0
DWIDTH 10 0
BBX 10 11 0 -2
BITMAP
0200
7A00
4F80
5480
F500
8A00
7C80
5100
7600
5980
0000
ENDCHAR
STARTCHAR 0x333D
ENCODING 28012
SWIDTH 960 0
DWIDTH 10 0
BBX 10 11 0 -2
BITMAP
0000
9F80
5280
1F80
9280
5F80
0200
1F80
4200
9F80
0000
ENDCHAR
STARTCHAR 0x333E
ENCODING 39336
SWIDTH 960 0
DWIDTH 10 0
BBX 10 11 0 -2
BITMAP
2000
FF00
2980
F600
A980
FF00
AA00
7F00
C180
7F00
0000
ENDCHAR
STARTCHAR 0x333F
ENCODING 34521
SWIDTH 960 0
DWIDTH 10 0
BBX 10 11 0 -2
BITMAP
0200
2200
2F80
F200
AF80
A200
FF80
2200
2A00
FF80
0000
ENDCHAR
STARTCHAR 0x3340
ENCODING 22435
SWIDTH 960 0
DWIDTH 10 0
BBX 10 11 0 -2
BITMAP
0000
5F80
4000
EF80
4880
4F80
4880
4F80
E000
1F80
0000
ENDCHAR
STARTCHAR 0x3341
ENCODING 26623
SWIDTH 960 0
DWIDTH 10 0
BBX 10 11 0 -2
BITMAP
0200
2200
2F80
F200
2F80
6A80
6A80
BA80
AA80
2200
0000
ENDCHAR
STARTCHAR 0x3342
ENCODING 34510
SWIDTH 960 0
DWIDTH 10 0
BBX 10 11 0 -2
BITMAP
0000
5F80
5000
FF80
D400
D780
F480
5480
5880
F300
0000
ENDCHAR
STARTCHAR 0x3343
ENCODING 37390
SWIDTH 960 0
DWIDTH 10 0
BBX 10 11 0 -2
BITMAP
0400
7400
8780
F880
2480
F480
2880
AE80
2080
F300
0000
ENDCHAR
STARTCHAR 0x3344
ENCODING 21123
SWIDTH 960 0
DWIDTH 10 0
BBX 10 11 0 -2
BITMAP
0000
F880
4A80
FA80
4A80
FE80
AA80
FA80
A880
FD80
0000
ENDCHAR
STARTCHAR 0x3345
ENCODING 22151
SWIDTH 960 0
DWIDTH 10 0
BBX 10 11 0 -2
BITMAP
0A00
0A00
FF80
AA00
AA00
BF80
A500
9580
F500
2D00
0000
ENDCHAR
STARTCHAR 0x3346
ENCODING 21508
SWIDTH 960 0
DWIDTH 10 0
BBX 10 11 0 -2
BITMAP
1000
1000
1F00
2100
5200
0E00
3100
DE80
2100
3F00
0000
ENDCHAR
STARTCHAR 0x3347
ENCODING 24275
SWIDTH 960 0
DWIDTH 10 0
BBX 10 11 0 -2
BITMAP
0800
0800
FF80
AA80
BA80
8B00
9280
FE80
9300
B200
0000
ENDCHAR
STARTCHAR 0x3348
ENCODING 25313
SWIDTH 960 0
DWIDTH 10 0
BBX 10 11 0 -2
BITMAP
0200
4200
4F80
F800
4A00
4A00
7200
D480
5480
C780
0000
ENDCHAR
STARTCHAR 0x3349
ENCODING 25785
SWIDTH 960 0
DWIDTH 10 0
BBX 10 11 0 -2
BITMAP
0400
5500
7F80
D080
5F00
5100
7100
DF00
4A80
F380
0000
ENDCHAR
STARTCHAR 0x334A
ENCODING 26684
SWIDTH 960 0
DWIDTH 10 0
BBX 10 11 0 -2
BITMAP
0400
2400
2780
F880
2500
6300
7480
AF80
A880
2F80
0000
ENDCHAR
STARTCHAR 0x334B
ENCODING 26680
SWIDTH 960 0
DWIDTH 10 0
BBX 10 11 0 -2
BITMAP
0200
2200
3F80
E480
2900
6A00
6480
A900
A600
3980
0000
ENDCHAR
STARTCHAR 0x334C
ENCODING 27579
SWIDTH 960 0
DWIDTH 10 0
BBX 10 11 0 -2
BITMAP
2000
2780
FC80
2480
FC80
8800
7780
5480
9300
9C80
0000
ENDCHAR
STARTCHAR 0x334D
ENCODING 29554
SWIDTH 960 0
DWIDTH 10 0
BBX 10 11 0 -2
BITMAP
0400
2500
AF80
5900
AF80
2900
6F80
B900
2600
D980
0000
ENDCHAR
STARTCHAR 0x334E
ENCODING 30906
SWIDTH 960 0
DWIDTH 10 0
BBX 10 11 0 -2
BITMAP
0200
E200
5F80
5480
8500
EF80
BA00
AF80
AA00
EF80
0000
ENDCHAR
STARTCHAR 0x334F
ENCODING 31339
SWIDTH 960 0
DWIDTH 10 0
BBX 10 11 0 -2
BITMAP
0400
3500
CF80
5900
EF80
4900
6F80
D900
4600
5980
0000
ENDCHAR
STARTCHAR 0x3350
ENCODING 35226
SWIDTH 960 0
DWIDTH 10 0
BBX 10 11 0 -2
BITMAP
0800
2A00
FF80
A280
BE80
2200
2200
3E00
2480
C780
0000
ENDCHAR
STARTCHAR 0x3351
ENCODING 35282
SWIDTH 960 0
DWIDTH 10 0
BBX 10 11 0 -2
BITMAP
0000
3F00
4200
FF80
4880
7F80
4880
7F80
8080
8180
0000
ENDCHAR
STARTCHAR 0x3352
ENCODING 36203
SWIDTH 960 0
DWIDTH 10 0
BBX 10 11 0 -2
BITMAP
2200
2200
FF80
2200
2200
FF80
5500
5580
9500
B300
0000
ENDCHAR
STARTCHAR 0x3353
ENCODING 36611
SWIDTH 960 0
DWIDTH 10 0
BBX 10 11 0 -2
BITMAP
0200
2200
FF80
A900
F080
A800
F900
2500
E600
3980
0000
ENDCHAR
STARTCHAR 0x3354
ENCODING 37101
SWIDTH 960 0
DWIDTH 10 0
BBX 10 11 0 -2
BITMAP
2000
2780
FC80
9500
F600
1500
2480
FC80
2700
6400
0000
ENDCHAR
STARTCHAR 0x3355
ENCODING 38307
SWIDTH 960 0
DWIDTH 10 0
BBX 10 11 0 -2
BITMAP
0000
F780
9480
F780
9C80
F780
9C80
B680
D580
9C80
0000
ENDCHAR
STARTCHAR 0x3356
ENCODING 38548
SWIDTH 960 0
DWIDTH 10 0
BBX 10 11 0 -2
BITMAP
0000
FF80
A900
AF00
C000
BF80
AA80
F180
AE80
A480
0000
ENDCHAR
STARTCHAR 0x3357
ENCODING 38761
SWIDTH 960 0
DWIDTH 10 0
BBX 10 11 0 -2
BITMAP
2200
2200
FF80
2200
7F00
4900
7F00
0800
FF80
0800
0000
ENDCHAR
STARTCHAR 0x3358
ENCODING 23398
SWIDTH 960 0
DWIDTH 10 0
BBX 10 11 0 -2
BITMAP
0800
2A00
FF80
8080
BE80
0400
0800
FF80
0800
1800
0000
ENDCHAR
STARTCHAR 0x3359
ENCODING 23731
SWIDTH 960 0
DWIDTH 10 0
BBX 10 11 0 -2
BITMAP
0000
3F00
2000
3F80
2200
2200
FF80
0400
4480
7F80
0000
ENDCHAR
STARTCHAR 0x335A
ENCODING 27005
SWIDTH 960 0
DWIDTH 10 0
BBX 10 11 0 -2
BITMAP
0800
1000
BE80
6300
BE80
2200
FF80
1A00
2900
C880
0000
ENDCHAR
STARTCHAR 0x335B
ENCODING 38989
SWIDTH 960 0
DWIDTH 10 0
BBX 10 11 0 -2
BITMAP
4000
4F80
F200
AF80
4880
AF80
1880
EF80
A500
F880
0000
ENDCHAR
STARTCHAR 0x335C
ENCODING 38990
SWIDTH 960 0
DWIDTH 10 0
BBX 10 11 0 -2
BITMAP
0000
FF80
AA00
FF80
0880
FF80
4880
FF80
8900
3080
0000
ENDCHAR
STARTCHAR 0x335D
ENCODING 25499
SWIDTH 960 0
DWIDTH 10 0
BBX 10 11 0 -2
BITMAP
0800
4900
5D00
C900
7F00
4980
DD40
4900
4900
DD00
0000
ENDCHAR
STARTCHAR 0x335E
ENCODING 31520
SWIDTH 960 0
DWIDTH 10 0
BBX 10 11 0 -2
BITMAP
0400
4400
7780
A900
0800
7F00
2200
2200
0400
FF80
0000
ENDCHAR
STARTCHAR 0x335F
ENCODING 27179
SWIDTH 960 0
DWIDTH 10 0
BBX 10 11 0 -2
BITMAP
0000
5F80
5480
FE80
5300
5E80
D400
7F80
4200
5F80
0000
ENDCHAR
STARTCHAR 0x3360
ENCODING 27263
SWIDTH 960 0
DWIDTH 10 0
BBX 10 11 0 -2
BITMAP
0000
3F80
2A80
EF80
2000
7F80
6A80
AF80
AA80
3F80
0000
ENDCHAR
STARTCHAR 0x3361
ENCODING 26806
SWIDTH 960 0
DWIDTH 10 0
BBX 10 11 0 -2
BITMAP
0000
2F80
2880
FF80
2A00
6F80
6A00
AF80
B200
2380
0000
ENDCHAR
STARTCHAR 0x3362
ENCODING 39949
SWIDTH 960 0
DWIDTH 10 0
BBX 10 11 0 -2
BITMAP
0200
7E00
8A80
FA80
AE80
FB00
AA00
FA00
0D00
A880
0000
ENDCHAR
STARTCHAR 0x3363
ENCODING 28511
SWIDTH 960 0
DWIDTH 10 0
BBX 10 11 0 -2
BITMAP
0200
8400
5B00
1100
9B00
5100
1F80
0080
5480
9580
0000
ENDCHAR
STARTCHAR 0x3364
ENCODING 21106
SWIDTH 960 0
DWIDTH 10 0
BBX 10 11 0 -2
BITMAP
1000
1080
FE80
9280
7E80
1280
FE80
4480
4480
7D80
0000
ENDCHAR
STARTCHAR 0x3365
ENCODING 21917
SWIDTH 960 0
DWIDTH 10 0
BBX 10 11 0 -2
BITMAP
0000
1F00
F100
9F00
9100
9F80
8880
9280
FC80
0300
0000
ENDCHAR
STARTCHAR 0x3366
ENCODING 24688
SWIDTH 960 0
DWIDTH 10 0
BBX 10 11 0 -2
BITMAP
0000
2700
2880
B000
AF80
A000
AF80
A880
2880
2F80
0000
ENDCHAR
STARTCHAR 0x3367
ENCODING 25324
SWIDTH 960 0
DWIDTH 10 0
BBX 10 11 0 -2
BITMAP
0000
4F80
4200
E200
5F80
4200
6F80
C880
4880
CF80
0000
ENDCHAR
STARTCHAR 0x3368
ENCODING 27963
SWIDTH 960 0
DWIDTH 10 0
BBX 10 11 0 -2
BITMAP
0000
8F80
4200
0200
9F80
4200
0F80
2880
4880
8F80
0000
ENDCHAR
STARTCHAR 0x3369
ENCODING 28167
SWIDTH 960 0
DWIDTH 10 0
BBX 10 11 0 -2
BITMAP
0000
9F00
5100
1F00
9100
5F80
0880
1280
5C80
8300
0000
ENDCHAR
STARTCHAR 0x336A
ENCODING 28369
SWIDTH 960 0
DWIDTH 10 0
BBX 10 11 0 -2
BITMAP
0000
9F00
5100
1600
BF80
4080
1F00
1100
5F00
9100
0000
ENDCHAR
STARTCHAR 0x336B
ENCODING 33883
SWIDTH 960 0
DWIDTH 10 0
BBX 10 11 0 -2
BITMAP
1400
1400
FF80
2200
3E00
2200
3F80
5080
A480
3B00
0000
ENDCHAR
STARTCHAR 0x336C
ENCODING 35088
SWIDTH 960 0
DWIDTH 10 0
BBX 10 11 0 -2
BITMAP
0000
5F00
5100
FF00
1100
3F80
4880
D280
5C80
4300
0000
ENDCHAR
STARTCHAR 0x336D
ENCODING 36676
SWIDTH 960 0
DWIDTH 10 0
BBX 10 11 0 -2
BITMAP
0200
2200
FF80
AA80
F780
A200
FF80
2880
F880
2F80
0000
ENDCHAR
STARTCHAR 0x336E
ENCODING 19988
SWIDTH 960 0
DWIDTH 10 0
BBX 10 11 0 -2
BITMAP
0000
3F00
2100
3F00
2100
2100
3F00
2100
2100
7F80
0000
ENDCHAR
STARTCHAR 0x336F
ENCODING 39993
SWIDTH 960 0
DWIDTH 10 0
BBX 10 11 0 -2
BITMAP
0000
7F80
A880
FE80
A500
FD00
AA80
FF80
0200
AF80
0000
ENDCHAR
STARTCHAR 0x3370
ENCODING 21494
SWIDTH 960 0
DWIDTH 10 0
BBX 10 11 0 -2
BITMAP
0200
0200
E200
A200
BF80
A200
A200
A200
E200
0200
0000
ENDCHAR
STARTCHAR 0x3371
ENCODING 26907
SWIDTH 960 0
DWIDTH 10 0
BBX 10 11 0 -2
BITMAP
0900
2900
3F80
E900
2A00
7A80
6B00
AA00
AA80
2B80
0000
ENDCHAR
STARTCHAR 0x3372
ENCODING 27194
SWIDTH 960 0
DWIDTH 10 0
BBX 10 11 0 -2
BITMAP
0900
2900
3F80
E900
3F80
6900
7F80
A200
BF80
2200
0000
ENDCHAR
STARTCHAR 0x3373
ENCODING 38788
SWIDTH 960 0
DWIDTH 10 0
BBX 10 11 0 -2
BITMAP
0400
5400
F780
5880
F780
A900
FF00
2400
FC80
2780
0000
ENDCHAR
STARTCHAR 0x3374
ENCODING 26666
SWIDTH 960 0
DWIDTH 10 0
BBX 10 11 0 -2
BITMAP
0200
2A00
2F80
FA00
2200
7F80
6200
A700
AA80
3200
0000
ENDCHAR
STARTCHAR 0x3375
ENCODING 20828
SWIDTH 960 0
DWIDTH 10 0
BBX 10 11 0 -2
BITMAP
0800
1000
DD80
A280
BE80
A280
DD80
0000
2480
C780
0000
ENDCHAR
STARTCHAR 0x3376
ENCODING 31427
SWIDTH 960 0
DWIDTH 10 0
BBX 10 11 0 -2
BITMAP
0800
0800
FF80
9480
7F00
2A00
7F00
4900
7900
4F80
0000
ENDCHAR
STARTCHAR 0x3377
ENCODING 33970
SWIDTH 960 0
DWIDTH 10 0
BBX 10 11 0 -2
BITMAP
2200
2200
FF80
4200
3F80
9280
5F80
1280
5F80
9280
0000
ENDCHAR
STARTCHAR 0x3378
ENCODING 37340
SWIDTH 960 0
DWIDTH 10 0
BBX 10 11 0 -2
BITMAP
0000
3600
DD80
2200
7F00
8880
7F00
4900
2A00
FF80
0000
ENDCHAR
STARTCHAR 0x3379
ENCODING 37772
SWIDTH 960 0
DWIDTH 10 0
BBX 10 11 0 -2
BITMAP
0900
6200
9F80
EA80
5F80
EA80
5F80
CA00
5B00
EA80
0000
ENDCHAR
STARTCHAR 0x337A
ENCODING 22107
SWIDTH 960 0
DWIDTH 10 0
BBX 10 11 0 -2
BITMAP
0600
2400
FF80
B500
A480
BF80
AC80
B580
E480
3F80
0000
ENDCHAR
STARTCHAR 0x337B
ENCODING 40232
SWIDTH 960 0
DWIDTH 10 0
BBX 10 11 0 -2
BITMAP
0200
F400
AF00
A900
FF00
A900
AF80
F080
2A80
3580
0000
ENDCHAR
STARTCHAR 0x337C
ENCODING 26658
SWIDTH 960 0
DWIDTH 10 0
BBX 10 11 0 -2
BITMAP
0000
2F80
2200
F400
2F80
6880
6F80
B880
A880
2F80
0000
ENDCHAR
STARTCHAR 0x337D
ENCODING 33541
SWIDTH 960 0
DWIDTH 10 0
BBX 10 11 0 -2
BITMAP
2200
2200
FF80
2200
7F00
0200
FF80
1480
2500
CC00
0000
ENDCHAR
STARTCHAR 0x337E
ENCODING 33841
SWIDTH 960 0
DWIDTH 10 0
BBX 10 11 0 -2
BITMAP
2200
2200
FF80
0800
FF80
A280
BE80
2200
2200
FF80
0000
ENDCHAR
STARTCHAR 0x3421
ENCODING 31909
SWIDTH 960 0
DWIDTH 10 0
BBX 10 11 0 -2
BITMAP
0000
C980
6A80
DD80
8900
BF00
C980
5C80
6A80
C980
0000
ENDCHAR
STARTCHAR 0x3422
ENCODING 21000
SWIDTH 960 0
DWIDTH 10 0
BBX 10 11 0 -2
BITMAP
0000
1080
1480
9480
5480
2480
2480
5480
4880
8180
0000
ENDCHAR
STARTCHAR 0x3423
ENCODING 33477
SWIDTH 960 0
DWIDTH 10 0
BBX 10 11 0 -2
BITMAP
2200
2200
FF80
1000
9480
5480
2480
2480
5080
8980
0000
ENDCHAR
STARTCHAR 0x3424
ENCODING 29926
SWIDTH 960 0
DWIDTH 10 0
BBX 10 11 0 -2
BITMAP
0000
FF80
2000
3E00
2200
3200
2A00
2280
3E80
C380
0000
ENDCHAR
STARTCHAR 0x3425
ENCODING 20094
SWIDTH 960 0
DWIDTH 10 0
BBX 10 11 0 -2
BITMAP
0400
4400
F780
4800
F780
9100
F200
9480
F880
4F80
0000
ENDCHAR
STARTCHAR 0x3426
ENCODING 20355
SWIDTH 960 0
DWIDTH 10 0
BBX 10 11 0 -2
BITMAP
0000
2F80
2880
4880
CF80
4000
4A80
4A80
5280
6280
0000
ENDCHAR
STARTCHAR 0x3427
ENCODING 20896
SWIDTH 960 0
DWIDTH 10 0
BBX 10 11 0 -2
BITMAP
0000
FF80
8080
F100
0780
F900
5500
5300
9080
9F80
0000
ENDCHAR
STARTCHAR 0x3428
ENCODING 23506
SWIDTH 960 0
DWIDTH 10 0
BBX 10 11 0 -2
BITMAP
0800
0800
FF80
9480
7F00
1400
FF80
2500
D880
0600
0000
ENDCHAR
STARTCHAR 0x3429
ENCODING 21002
SWIDTH 960 0
DWIDTH 10 0
BBX 10 11 0 -2
BITMAP
0000
F880
2480
2480
2480
FC80
2480
2480
2080
2180
0000
ENDCHAR
STARTCHAR 0x342A
ENCODING 21208
SWIDTH 960 0
DWIDTH 10 0
BBX 10 11 0 -2
BITMAP
0200
4A00
FA00
4F80
7A80
4A80
FA80
AC80
8080
FB00
0000
ENDCHAR
STARTCHAR 0x342B
ENCODING 21223
SWIDTH 960 0
DWIDTH 10 0
BBX 10 11 0 -2
BITMAP
4200
4200
7A00
A780
FA80
A280
FC80
A480
A080
FB00
0000
ENDCHAR
STARTCHAR 0x342C
ENCODING 24059
SWIDTH 960 0
DWIDTH 10 0
BBX 10 11 0 -2
BITMAP
1100
4A00
2400
FF80
1200
FF80
4500
BC80
2100
3F00
0000
ENDCHAR
STARTCHAR 0x342D
ENCODING 21914
SWIDTH 960 0
DWIDTH 10 0
BBX 10 11 0 -2
BITMAP
0000
0F00
F100
BF80
AA80
B380
A480
BF80
C900
3080
0000
ENDCHAR
STARTCHAR 0x342E
ENCODING 22570
SWIDTH 960 0
DWIDTH 10 0
BBX 10 11 0 -2
BITMAP
0900
4900
5F80
E900
4F00
4900
5F00
5580
F000
1F80
0000
ENDCHAR
STARTCHAR 0x342F
ENCODING 23014
SWIDTH 960 0
DWIDTH 10 0
BBX 10 11 0 -2
BITMAP
0800
0800
FF80
1200
1C00
2200
FF80
4900
7600
9980
0000
ENDCHAR
STARTCHAR 0x3430
ENCODING 23436
SWIDTH 960 0
DWIDTH 10 0
BBX 10 11 0 -2
BITMAP
0800
0800
FF80
8080
3E00
0000
FF80
1400
2480
C780
0000
ENDCHAR
STARTCHAR 0x3431
ENCODING 23448
SWIDTH 960 0
DWIDTH 10 0
BBX 10 11 0 -2
BITMAP
0800
0800
FF80
A280
BE80
2000
3F00
2100
2100
3F00
0000
ENDCHAR
STARTCHAR 0x3432
ENCODING 23515
SWIDTH 960 0
DWIDTH 10 0
BBX 10 11 0 -2
BITMAP
0800
0800
FF80
9280
7F00
2200
3E00
2200
3E80
C380
0000
ENDCHAR
STARTCHAR 0x3433
ENCODING 24178
SWIDTH 960 0
DWIDTH 10 0
BBX 10 11 0 -2
BITMAP
0000
7F00
0800
0800
0800
FF80
0800
0800
0800
0800
0000
ENDCHAR
STARTCHAR 0x3434
ENCODING 24185
SWIDTH 960 0
DWIDTH 10 0
BBX 10 11 0 -2
BITMAP
0000
4700
F880
4000
FF80
9200
F200
9F80
F200
4200
0000
ENDCHAR
STARTCHAR 0x3435
ENCODING 24739
SWIDTH 960 0
DWIDTH 10 0
BBX 10 11 0 -2
BITMAP
0800
0800
3E00
2A00
7F00
4900
7F00
2400
A100
9E80
0000
ENDCHAR
STARTCHAR 0x3436
ENCODING 24863
SWIDTH 960 0
DWIDTH 10 0
BBX 10 11 0 -2
BITMAP
0400
0480
FF80
AA00
AA80
B900
8280
1400
5100
8E80
0000
ENDCHAR
STARTCHAR 0x3437
ENCODING 24931
SWIDTH 960 0
DWIDTH 10 0
BBX 10 11 0 -2
BITMAP
0000
2F80
2A80
BF80
AA80
AF80
A880
AF80
2500
3880
0000
ENDCHAR
STARTCHAR 0x3438
ENCODING 25022
SWIDTH 960 0
DWIDTH 10 0
BBX 10 11 0 -2
BITMAP
0200
2280
3F80
AA00
AA80
B900
A280
0400
5100
9E80
0000
ENDCHAR
STARTCHAR 0x3439
ENCODING 25563
SWIDTH 960 0
DWIDTH 10 0
BBX 10 11 0 -2
BITMAP
0000
4F00
5100
FF80
5480
5B80
D080
7F80
4500
D880
0000
ENDCHAR
STARTCHAR 0x343A
ENCODING 25954
SWIDTH 960 0
DWIDTH 10 0
BBX 10 11 0 -2
BITMAP
0400
FC00
2780
F900
9100
F500
9500
9200
F600
1980
0000
ENDCHAR
STARTCHAR 0x343B
ENCODING 26577
SWIDTH 960 0
DWIDTH 10 0
BBX 10 11 0 -2
BITMAP
0800
2880
2880
FF80
2880
6880
6F80
A880
A880
2F80
0000
ENDCHAR
STARTCHAR 0x343C
ENCODING 26707
SWIDTH 960 0
DWIDTH 10 0
BBX 10 11 0 -2
BITMAP
0000
2F80
2000
FF80
2880
6F80
6880
AF80
A000
2F80
0000
ENDCHAR
STARTCHAR 0x343D
ENCODING 26874
SWIDTH 960 0
DWIDTH 10 0
BBX 10 11 0 -2
BITMAP
0200
2200
3F80
E880
2F80
6800
6F80
B880
A880
2F80
0000
ENDCHAR
STARTCHAR 0x343E
ENCODING 27454
SWIDTH 960 0
DWIDTH 10 0
BBX 10 11 0 -2
BITMAP
0400
2400
FF80
2280
FA80
0200
FA00
2200
A500
B880
0000
ENDCHAR
STARTCHAR 0x343F
ENCODING 27475
SWIDTH 960 0
DWIDTH 10 0
BBX 10 11 0 -2
BITMAP
4400
4400
7F80
AA80
FA80
A200
FA00
A200
A500
F880
0000
ENDCHAR
STARTCHAR 0x3440
ENCODING 27735
SWIDTH 960 0
DWIDTH 10 0
BBX 10 11 0 -2
BITMAP
0000
9F80
4200
0200
8200
5F80
0200
0200
4200
8200
0000
ENDCHAR
STARTCHAR 0x3441
ENCODING 28450
SWIDTH 960 0
DWIDTH 10 0
BBX 10 11 0 -2
BITMAP
0500
9F80
4500
1F80
9280
5F80
0200
1F80
4500
9880
0000
ENDCHAR
STARTCHAR 0x3442
ENCODING 28567
SWIDTH 960 0
DWIDTH 10 0
BBX 10 11 0 -2
BITMAP
0000
BB80
6A80
3B80
AA80
7F80
2A80
2E80
AA80
AE80
0000
ENDCHAR
STARTCHAR 0x3443
ENCODING 28485
SWIDTH 960 0
DWIDTH 10 0
BBX 10 11 0 -2
BITMAP
0800
8800
4F80
1100
9F80
5200
3F80
1200
5200
9F80
0000
ENDCHAR
STARTCHAR 0x3444
ENCODING 29872
SWIDTH 960 0
DWIDTH 10 0
BBX 10 11 0 -2
BITMAP
0000
1F80
EA80
5F80
4000
FF80
4900
4F80
F500
2480
0000
ENDCHAR
STARTCHAR 0x3445
ENCODING 29976
SWIDTH 960 0
DWIDTH 10 0
BBX 10 11 0 -2
BITMAP
2100
2100
2100
FF80
2100
2100
3F00
2100
2100
3F00
0000
ENDCHAR
STARTCHAR 0x3446
ENCODING 30435
SWIDTH 960 0
DWIDTH 10 0
BBX 10 11 0 -2
BITMAP
0400
F400
A780
F800
9780
9000
FF00
5500
5500
FF80
0000
ENDCHAR
STARTCHAR 0x3447
ENCODING 30475
SWIDTH 960 0
DWIDTH 10 0
BBX 10 11 0 -2
BITMAP
0000
FF80
0800
7F00
1000
FF80
2100
7F00
A100
3F00
0000
ENDCHAR
STARTCHAR 0x3448
ENCODING 31487
SWIDTH 960 0
DWIDTH 10 0
BBX 10 11 0 -2
BITMAP
0400
4400
7780
A900
0000
7F00
0800
FF80
0800
0800
0000
ENDCHAR
STARTCHAR 0x3449
ENCODING 31649
SWIDTH 960 0
DWIDTH 10 0
BBX 10 11 0 -2
BITMAP
0400
4400
7780
A900
0800
FF80
A480
BE80
2200
3E00
0000
ENDCHAR
STARTCHAR 0x344A
ENCODING 31777
SWIDTH 960 0
DWIDTH 10 0
BBX 10 11 0 -2
BITMAP
0400
4400
7780
A900
F780
9480
F780
9C80
9480
9D80
0000
ENDCHAR
STARTCHAR 0x344B
ENCODING 32233
SWIDTH 960 0
DWIDTH 10 0
BBX 10 11 0 -2
BITMAP
0000
5F80
8A80
E100
5F80
8400
FF80
2900
AE00
B180
0000
ENDCHAR
STARTCHAR 0x344C
ENCODING 32566
SWIDTH 960 0
DWIDTH 10 0
BBX 10 11 0 -2
BITMAP
2000
2000
3F00
4800
8800
FF80
0800
4900
4900
7F00
0000
ENDCHAR
STARTCHAR 0x344D
ENCODING 32752
SWIDTH 960 0
DWIDTH 10 0
BBX 10 11 0 -2
BITMAP
0000
4F00
F080
5F80
E480
B680
ED80
B680
E480
4D80
0000
ENDCHAR
STARTCHAR 0x344E
ENCODING 32925
SWIDTH 960 0
DWIDTH 10 0
BBX 10 11 0 -2
BITMAP
0000
FF80
9200
F200
9200
9F80
F200
9200
9200
B200
0000
ENDCHAR
STARTCHAR 0x344F
ENCODING 33382
SWIDTH 960 0
DWIDTH 10 0
BBX 10 11 0 -2
BITMAP
4200
BE00
EB80
BC00
E780
A400
BF80
EA80
AA80
BF80
0000
ENDCHAR
STARTCHAR 0x3450
ENCODING 33694
SWIDTH 960 0
DWIDTH 10 0
BBX 10 11 0 -2
BITMAP
2200
2200
FF80
2200
FF80
8080
7F00
1400
2480
C780
0000
ENDCHAR
STARTCHAR 0x3451
ENCODING 35251
SWIDTH 960 0
DWIDTH 10 0
BBX 10 11 0 -2
BITMAP
4000
4780
7C80
A780
FC80
A480
FF80
A300
A500
F980
0000
ENDCHAR
STARTCHAR 0x3452
ENCODING 35532
SWIDTH 960 0
DWIDTH 10 0
BBX 10 11 0 -2
BITMAP
0200
E200
1F80
EA80
0F80
EA80
0F80
E600
AA80
F280
0000
ENDCHAR
STARTCHAR 0x3453
ENCODING 36011
SWIDTH 960 0
DWIDTH 10 0
BBX 10 11 0 -2
BITMAP
0000
7F00
4900
FF80
4900
7F00
2200
2200
3E00
C180
0000
ENDCHAR
STARTCHAR 0x3454
ENCODING 36996
SWIDTH 960 0
DWIDTH 10 0
BBX 10 11 0 -2
BITMAP
0000
BF80
6A80
3F80
0900
CF80
5500
6480
A000
9F80
0000
ENDCHAR
STARTCHAR 0x3455
ENCODING 37969
SWIDTH 960 0
DWIDTH 10 0
BBX 10 11 0 -2
BITMAP
0200
7E00
AB80
FC00
2780
E400
3F80
AA80
2A80
FF80
0000
ENDCHAR
STARTCHAR 0x3456
ENCODING 38291
SWIDTH 960 0
DWIDTH 10 0
BBX 10 11 0 -2
BITMAP
0000
F780
9480
F780
9480
FF80
A280
BE80
A280
BE80
0000
ENDCHAR
STARTCHAR 0x3457
ENCODING 38289
SWIDTH 960 0
DWIDTH 10 0
BBX 10 11 0 -2
BITMAP
0000
F780
9480
F780
9480
FF80
8880
9C80
AA80
8980
0000
ENDCHAR
STARTCHAR 0x3458
ENCODING 38306
SWIDTH 960 0
DWIDTH 10 0
BBX 10 11 0 -2
BITMAP
0000
F780
9480
F780
9480
FF80
8880
BE80
9480
A280
0000
ENDCHAR
STARTCHAR 0x3459
ENCODING 38501
SWIDTH 960 0
DWIDTH 10 0
BBX 10 11 0 -2
BITMAP
0000
E780
A880
B100
C780
A480
B780
D480
9480
9780
0000
ENDCHAR
STARTCHAR 0x345A
ENCODING 38867
SWIDTH 960 0
DWIDTH 10 0
BBX 10 11 0 -2
BITMAP
0400
4400
FF80
4480
FF80
A900
FF80
5200
FF80
4200
0000
ENDCHAR
STARTCHAR 0x345B
ENCODING 39208
SWIDTH 960 0
DWIDTH 10 0
BBX 10 11 0 -2
BITMAP
0200
6200
8F80
F480
9780
F400
9780
F480
A480
D780
0000
ENDCHAR
STARTCHAR 0x345C
ENCODING 33304
SWIDTH 960 0
DWIDTH 10 0
BBX 10 11 0 -2
BITMAP
0200
6200
9F80
F480
4780
F400
4780
F480
9480
F780
0000
ENDCHAR
STARTCHAR 0x345D
ENCODING 20024
SWIDTH 960 0
DWIDTH 10 0
BBX 10 11 0 -2
BITMAP
1000
1000
1000
FE00
1200
5200
3200
1280
2A80
C380
0000
ENDCHAR
STARTCHAR 0x345E
ENCODING 21547
SWIDTH 960 0
DWIDTH 10 0
BBX 10 11 0 -2
BITMAP
0000
1C00
2200
7F00
8080
3E00
0400
7F00
4100
7F00
0000
ENDCHAR
STARTCHAR 0x345F
ENCODING 23736
SWIDTH 960 0
DWIDTH 10 0
BBX 10 11 0 -2
BITMAP
0800
8880
FF80
0000
7F80
4000
7F80
4400
BF80
8400
0000
ENDCHAR
STARTCHAR 0x3460
ENCODING 24012
SWIDTH 960 0
DWIDTH 10 0
BBX 10 11 0 -2
BITMAP
0800
8880
FF80
4900
FF80
9400
FF80
9480
F300
9C80
0000
ENDCHAR
STARTCHAR 0x3461
ENCODING 29609
SWIDTH 960 0
DWIDTH 10 0
BBX 10 11 0 -2
BITMAP
0000
1F80
E000
4000
5F80
E500
4500
4500
E900
3180
0000
ENDCHAR
STARTCHAR 0x3462
ENCODING 30284
SWIDTH 960 0
DWIDTH 10 0
BBX 10 11 0 -2
BITMAP
0400
0400
7F80
CA00
7F80
4A80
FB80
4400
A480
BF80
0000
ENDCHAR
STARTCHAR 0x3463
ENCODING 30524
SWIDTH 960 0
DWIDTH 10 0
BBX 10 11 0 -2
BITMAP
0000
EF80
A880
EF80
A880
AF80
EA00
AA80
A900
EC80
0000
ENDCHAR
STARTCHAR 0x3464
ENCODING 23721
SWIDTH 960 0
DWIDTH 10 0
BBX 10 11 0 -2
BITMAP
0800
8880
FF80
0000
FF80
1000
3F00
E100
2100
3F00
0000
ENDCHAR
STARTCHAR 0x3465
ENCODING 32747
SWIDTH 960 0
DWIDTH 10 0
BBX 10 11 0 -2
BITMAP
0000
FF80
5000
F000
5F80
F500
9500
F500
9500
F980
0000
ENDCHAR
STARTCHAR 0x3466
ENCODING 36107
SWIDTH 960 0
DWIDTH 10 0
BBX 10 11 0 -2
BITMAP
0000
FF80
9500
EF80
A900
BF80
A100
BF00
1200
6180
0000
ENDCHAR
STARTCHAR 0x3467
ENCODING 38593
SWIDTH 960 0
DWIDTH 10 0
BBX 10 11 0 -2
BITMAP
0000
FF80
9500
9500
AF80
E900
BF80
A900
A900
AF80
0000
ENDCHAR
STARTCHAR 0x3468
ENCODING 38929
SWIDTH 960 0
DWIDTH 10 0
BBX 10 11 0 -2
BITMAP
0000
EF80
0200
0F80
F880
2F80
6880
BF80
8500
1880
0000
ENDCHAR
STARTCHAR 0x3469
ENCODING 38996
SWIDTH 960 0
DWIDTH 10 0
BBX 10 11 0 -2
BITMAP
2000
2F80
F200
5F80
5080
FF80
A880
DF80
2500
D880
0000
ENDCHAR
STARTCHAR 0x346A
ENCODING 39000
SWIDTH 960 0
DWIDTH 10 0
BBX 10 11 0 -2
BITMAP
0000
FF80
A200
FF80
8880
FF80
8880
FF80
2500
B880
0000
ENDCHAR
STARTCHAR 0x346B
ENCODING 20225
SWIDTH 960 0
DWIDTH 10 0
BBX 10 11 0 -2
BITMAP
0000
1C00
2200
4900
8880
0E00
2800
2800
2800
FF80
0000
ENDCHAR
STARTCHAR 0x346C
ENCODING 20238
SWIDTH 960 0
DWIDTH 10 0
BBX 10 11 0 -2
BITMAP
0200
2200
3F80
4200
C200
5F80
4880
4900
4600
5980
0000
ENDCHAR
STARTCHAR 0x346D
ENCODING 21361
SWIDTH 960 0
DWIDTH 10 0
BBX 10 11 0 -2
BITMAP
0000
3E00
4400
FF80
4000
5F00
5100
5300
9080
9F80
0000
ENDCHAR
STARTCHAR 0x346E
ENCODING 21916
SWIDTH 960 0
DWIDTH 10 0
BBX 10 11 0 -2
BITMAP
0800
0800
FF80
0800
7F00
2200
1400
FF80
4100
7F00
0000
ENDCHAR
STARTCHAR 0x346F
ENCODING 22120
SWIDTH 960 0
DWIDTH 10 0
BBX 10 11 0 -2
BITMAP
0000
7700
5500
7700
0800
FF80
2200
F780
5500
7700
0000
ENDCHAR
STARTCHAR 0x3470
ENCODING 22522
SWIDTH 960 0
DWIDTH 10 0
BBX 10 11 0 -2
BITMAP
2200
FF80
2200
3E00
2200
FF80
4900
BE80
0800
FF80
0000
ENDCHAR
STARTCHAR 0x3471
ENCODING 22855
SWIDTH 960 0
DWIDTH 10 0
BBX 10 11 0 -2
BITMAP
0800
0800
FF80
1400
2200
FF80
0100
7900
4900
7B00
0000
ENDCHAR
STARTCHAR 0x3472
ENCODING 23305
SWIDTH 960 0
DWIDTH 10 0
BBX 10 11 0 -2
BITMAP
0200
4200
5F80
E200
5F80
4880
A500
FF80
5080
5F80
0000
ENDCHAR
STARTCHAR 0x3473
ENCODING 23492
SWIDTH 960 0
DWIDTH 10 0
BBX 10 11 0 -2
BITMAP
0800
0800
FF80
9480
2200
FF80
0100
7900
4900
7B00
0000
ENDCHAR
STARTCHAR 0x3474
ENCODING 23696
SWIDTH 960 0
DWIDTH 10 0
BBX 10 11 0 -2
BITMAP
0200
2200
3F80
2200
A200
BF80
A880
A900
E600
1980
0000
ENDCHAR
STARTCHAR 0x3475
ENCODING 24076
SWIDTH 960 0
DWIDTH 10 0
BBX 10 11 0 -2
BITMAP
0000
6300
1C00
2200
FF80
1400
3F80
6480
A580
0400
0000
ENDCHAR
STARTCHAR 0x3476
ENCODING 24190
SWIDTH 960 0
DWIDTH 10 0
BBX 10 11 0 -2
BITMAP
0800
4900
8A00
EB80
4900
AA80
FF80
4900
6600
9980
0000
ENDCHAR
STARTCHAR 0x3477
ENCODING 24524
SWIDTH 960 0
DWIDTH 10 0
BBX 10 11 0 -2
BITMAP
0000
7F00
0100
7F00
4000
7F00
0800
2500
A080
9E00
0000
ENDCHAR
STARTCHAR 0x3478
ENCODING 25582
SWIDTH 960 0
DWIDTH 10 0
BBX 10 11 0 -2
BITMAP
0000
5F80
5280
FF80
4A80
4F80
6A80
CA80
5F80
C200
0000
ENDCHAR
STARTCHAR 0x3479
ENCODING 26426
SWIDTH 960 0
DWIDTH 10 0
BBX 10 11 0 -2
BITMAP
0000
2F00
2900
F900
2900
6900
6900
A900
A880
3080
0000
ENDCHAR
STARTCHAR 0x347A
ENCODING 26071
SWIDTH 960 0
DWIDTH 10 0
BBX 10 11 0 -2
BITMAP
0800
4800
FF80
4900
4F00
6900
BF80
A000
2500
6880
0000
ENDCHAR
STARTCHAR 0x347B
ENCODING 26082
SWIDTH 960 0
DWIDTH 10 0
BBX 10 11 0 -2
BITMAP
0000
F780
9500
F500
9500
FF80
8100
A300
D500
8980
0000
ENDCHAR
STARTCHAR 0x347C
ENCODING 26399
SWIDTH 960 0
DWIDTH 10 0
BBX 10 11 0 -2
BITMAP
0000
5780
FC80
5780
7480
5480
FF80
0480
5480
8980
0000
ENDCHAR
STARTCHAR 0x347D
ENCODING 26827
SWIDTH 960 0
DWIDTH 10 0
BBX 10 11 0 -2
BITMAP
0900
2900
3F80
E900
2F00
6900
7F80
A000
A500
2880
0000
ENDCHAR
STARTCHAR 0x347E
ENCODING 26820
SWIDTH 960 0
DWIDTH 10 0
BBX 10 11 0 -2
BITMAP
0800
0800
FF80
2200
7F00
2A00
FF80
1A00
2900
C880
0000
ENDCHAR
STARTCHAR 0x3521
ENCODING 27231
SWIDTH 960 0
DWIDTH 10 0
BBX 10 11 0 -2
BITMAP
0200
2B00
3680
EB00
3680
6200
7F80
AA80
B300
2C80
0000
ENDCHAR
STARTCHAR 0x3522
ENCODING 24112
SWIDTH 960 0
DWIDTH 10 0
BBX 10 11 0 -2
BITMAP
0000
2F80
A080
AF80
A000
BF80
2280
3F80
5280
5280
0000
ENDCHAR
STARTCHAR 0x3523
ENCODING 27589
SWIDTH 960 0
DWIDTH 10 0
BBX 10 11 0 -2
BITMAP
2000
2780
F480
5480
FC80
5000
AF80
7480
A300
6C80
0000
ENDCHAR
STARTCHAR 0x3524
ENCODING 27671
SWIDTH 960 0
DWIDTH 10 0
BBX 10 11 0 -2
BITMAP
2000
2000
3F80
4000
BF00
0000
7F00
4500
3880
C680
0000
ENDCHAR
STARTCHAR 0x3525
ENCODING 27773
SWIDTH 960 0
DWIDTH 10 0
BBX 10 11 0 -2
BITMAP
1000
9000
5F80
2000
9F00
4000
1F00
0100
4080
8080
0000
ENDCHAR
STARTCHAR 0x3526
ENCODING 30079
SWIDTH 960 0
DWIDTH 10 0
BBX 10 11 0 -2
BITMAP
0800
4900
8A00
FB80
4900
FF80
AA00
FA80
A900
FE80
0000
ENDCHAR
STARTCHAR 0x3527
ENCODING 31048
SWIDTH 960 0
DWIDTH 10 0
BBX 10 11 0 -2
BITMAP
0000
2180
2600
FC00
1780
2480
6480
B480
2880
2880
0000
ENDCHAR
STARTCHAR 0x3528
ENCODING 23395
SWIDTH 960 0
DWIDTH 10 0
BBX 10 11 0 -2
BITMAP
0000
7F00
0800
FF80
2900
5E80
8400
FF80
0800
1800
0000
ENDCHAR
STARTCHAR 0x3529
ENCODING 31232
SWIDTH 960 0
DWIDTH 10 0
BBX 10 11 0 -2
BITMAP
0000
1980
E600
2900
FF80
2400
6F80
BA80
2A80
2A80
0000
ENDCHAR
STARTCHAR 0x352A
ENCODING 32000
SWIDTH 960 0
DWIDTH 10 0
BBX 10 11 0 -2
BITMAP
0000
4F80
8080
F080
2F80
4800
F800
2880
A880
AF80
0000
ENDCHAR
STARTCHAR 0x352B
ENCODING 24509
SWIDTH 960 0
DWIDTH 10 0
BBX 10 11 0 -2
BITMAP
0A00
6A00
AB80
3C80
0A80
5280
DD00
4900
5A80
6C80
0000
ENDCHAR
STARTCHAR 0x352C
ENCODING 35215
SWIDTH 960 0
DWIDTH 10 0
BBX 10 11 0 -2
BITMAP
0000
4F80
4880
FF80
4880
F880
4F80
4500
A900
9180
0000
ENDCHAR
STARTCHAR 0x352D
ENCODING 35352
SWIDTH 960 0
DWIDTH 10 0
BBX 10 11 0 -2
BITMAP
0000
EF80
0080
E080
0F80
E800
0800
E880
A880
EF80
0000
ENDCHAR
STARTCHAR 0x352E
ENCODING 36020
SWIDTH 960 0
DWIDTH 10 0
BBX 10 11 0 -2
BITMAP
0800
0800
7F00
4900
FF80
2200
3E00
2200
3E00
C180
0000
ENDCHAR
STARTCHAR 0x352F
ENCODING 36215
SWIDTH 960 0
DWIDTH 10 0
BBX 10 11 0 -2
BITMAP
2000
2780
F880
2080
FF80
2400
3C80
A780
E000
9F80
0000
ENDCHAR
STARTCHAR 0x3530
ENCODING 36556
SWIDTH 960 0
DWIDTH 10 0
BBX 10 11 0 -2
BITMAP
0200
2200
FA00
2780
FA80
AA80
FA80
AA80
FC80
2480
0000
ENDCHAR
STARTCHAR 0x3531
ENCODING 36637
SWIDTH 960 0
DWIDTH 10 0
BBX 10 11 0 -2
BITMAP
0000
3F80
A280
AF80
2A80
FF80
4A80
6A80
9F80
8200
0000
ENDCHAR
STARTCHAR 0x3532
ENCODING 39138
SWIDTH 960 0
DWIDTH 10 0
BBX 10 11 0 -2
BITMAP
0000
7700
8500
F500
9500
F500
9500
F500
A500
D980
0000
ENDCHAR
STARTCHAR 0x3533
ENCODING 39438
SWIDTH 960 0
DWIDTH 10 0
BBX 10 11 0 -2
BITMAP
0200
F200
AF80
F200
A500
A880
FF80
1280
DE80
3180
0000
ENDCHAR
STARTCHAR 0x3534
ENCODING 39740
SWIDTH 960 0
DWIDTH 10 0
BBX 10 11 0 -2
BITMAP
0800
1000
7F00
4900
7F00
4900
7F00
1500
2480
C780
0000
ENDCHAR
STARTCHAR 0x3535
ENCODING 20096
SWIDTH 960 0
DWIDTH 10 0
BBX 10 11 0 -2
BITMAP
0000
3E00
4400
FF00
4900
FF00
8900
FF00
8880
0F80
0000
ENDCHAR
STARTCHAR 0x3536
ENCODING 20605
SWIDTH 960 0
DWIDTH 10 0
BBX 10 11 0 -2
BITMAP
0900
2900
2200
5F00
C900
5F80
5080
7F80
4080
5580
0000
ENDCHAR
STARTCHAR 0x3537
ENCODING 20736
SWIDTH 960 0
DWIDTH 10 0
BBX 10 11 0 -2
BITMAP
0900
2200
3F80
4200
DF80
4200
7F80
5280
7B00
5480
0000
ENDCHAR
STARTCHAR 0x3538
ENCODING 22931
SWIDTH 960 0
DWIDTH 10 0
BBX 10 11 0 -2
BITMAP
0200
4200
4F80
F200
5200
5F80
A480
F480
4300
4C80
0000
ENDCHAR
STARTCHAR 0x3539
ENCODING 23452
SWIDTH 960 0
DWIDTH 10 0
BBX 10 11 0 -2
BITMAP
0800
0800
FF80
8080
3E00
2200
3E00
2200
2200
FF80
0000
ENDCHAR
STARTCHAR 0x353A
ENCODING 25135
SWIDTH 960 0
DWIDTH 10 0
BBX 10 11 0 -2
BITMAP
2200
3A80
2280
FF80
A200
FE80
A180
BD00
5280
FC80
0000
ENDCHAR
STARTCHAR 0x353B
ENCODING 25216
SWIDTH 960 0
DWIDTH 10 0
BBX 10 11 0 -2
BITMAP
0200
4200
5F80
E200
4200
5F80
6880
C900
4600
D980
0000
ENDCHAR
STARTCHAR 0x353C
ENCODING 25836
SWIDTH 960 0
DWIDTH 10 0
BBX 10 11 0 -2
BITMAP
0000
5780
5C80
F100
5F80
6A80
7E00
CB80
5A00
EF80
0000
ENDCHAR
STARTCHAR 0x353D
ENCODING 27450
SWIDTH 960 0
DWIDTH 10 0
BBX 10 11 0 -2
BITMAP
0800
4800
FF80
4A80
7A80
4A00
FA00
0200
5500
8880
0000
ENDCHAR
STARTCHAR 0x353E
ENCODING 29344
SWIDTH 960 0
DWIDTH 10 0
BBX 10 11 0 -2
BITMAP
0900
A200
AF80
F200
AF80
A200
3F80
EA80
3D00
2A80
0000
ENDCHAR
STARTCHAR 0x353F
ENCODING 30097
SWIDTH 960 0
DWIDTH 10 0
BBX 10 11 0 -2
BITMAP
0000
8F80
F100
8200
FF80
A280
FA00
2B80
6A00
9F80
0000
ENDCHAR
STARTCHAR 0x3540
ENCODING 31047
SWIDTH 960 0
DWIDTH 10 0
BBX 10 11 0 -2
BITMAP
0000
4180
4F00
F900
1900
2F80
4900
E900
5880
4E80
0000
ENDCHAR
STARTCHAR 0x3541
ENCODING 32681
SWIDTH 960 0
DWIDTH 10 0
BBX 10 11 0 -2
BITMAP
2200
2400
FF80
0800
7F00
0880
FF80
4900
E600
5980
0000
ENDCHAR
STARTCHAR 0x3542
ENCODING 34811
SWIDTH 960 0
DWIDTH 10 0
BBX 10 11 0 -2
BITMAP
0900
4200
5F80
F200
DF80
D200
FF80
4A80
5D00
EA80
0000
ENDCHAR
STARTCHAR 0x3543
ENCODING 35516
SWIDTH 960 0
DWIDTH 10 0
BBX 10 11 0 -2
BITMAP
0200
E200
1F80
F080
0F00
E900
0F00
E900
A900
FF80
0000
ENDCHAR
STARTCHAR 0x3544
ENCODING 35696
SWIDTH 960 0
DWIDTH 10 0
BBX 10 11 0 -2
BITMAP
0900
E200
1F80
E200
0F80
E200
1F80
EA80
BD00
EA80
0000
ENDCHAR
STARTCHAR 0x3545
ENCODING 25516
SWIDTH 960 0
DWIDTH 10 0
BBX 10 11 0 -2
BITMAP
0800
4800
4F80
F480
5680
4480
7F80
CC80
5680
C580
0000
ENDCHAR
STARTCHAR 0x3546
ENCODING 33738
SWIDTH 960 0
DWIDTH 10 0
BBX 10 11 0 -2
BITMAP
2200
2200
FF80
2200
7F80
9480
1080
FE80
5480
9300
0000
ENDCHAR
STARTCHAR 0x3547
ENCODING 38816
SWIDTH 960 0
DWIDTH 10 0
BBX 10 11 0 -2
BITMAP
0800
4800
FF80
5480
F680
A480
FF80
2480
F680
2580
0000
ENDCHAR
STARTCHAR 0x3548
ENCODING 21513
SWIDTH 960 0
DWIDTH 10 0
BBX 10 11 0 -2
BITMAP
0800
0800
FF80
0800
7F00
0000
7F00
4100
4100
7F00
0000
ENDCHAR
STARTCHAR 0x3549
ENCODING 21507
SWIDTH 960 0
DWIDTH 10 0
BBX 10 11 0 -2
BITMAP
0800
0800
EF80
B000
AF80
A200
A400
A880
E880
0F80
0000
ENDCHAR
STARTCHAR 0x354A
ENCODING 21931
SWIDTH 960 0
DWIDTH 10 0
BBX 10 11 0 -2
BITMAP
0800
0B80
FE80
A880
BD80
AA00
BF80
A200
E500
1880
0000
ENDCHAR
STARTCHAR 0x354B
ENCODING 26708
SWIDTH 960 0
DWIDTH 10 0
BBX 10 11 0 -2
BITMAP
0200
2200
3F80
E200
2F80
6000
6F80
B880
A880
2F80
0000
ENDCHAR
STARTCHAR 0x354C
ENCODING 27224
SWIDTH 960 0
DWIDTH 10 0
BBX 10 11 0 -2
BITMAP
0000
2F00
2200
FF80
2500
7F80
6A80
BF80
AA80
2E80
0000
ENDCHAR
STARTCHAR 0x354D
ENCODING 35440
SWIDTH 960 0
DWIDTH 10 0
BBX 10 11 0 -2
BITMAP
0200
E200
0F80
E200
0F80
E000
0F80
E880
A880
EF80
0000
ENDCHAR
STARTCHAR 0x354E
ENCODING 30759
SWIDTH 960 0
DWIDTH 10 0
BBX 10 11 0 -2
BITMAP
0400
E400
4780
4400
8400
EF80
A880
A880
A880
EF80
0000
ENDCHAR
STARTCHAR 0x354F
ENCODING 26485
SWIDTH 960 0
DWIDTH 10 0
BBX 10 11 0 -2
BITMAP
0800
2800
2F80
F200
2200
6200
6F80
B200
A200
2200
0000
ENDCHAR
STARTCHAR 0x3550
ENCODING 40653
SWIDTH 960 0
DWIDTH 10 0
BBX 10 11 0 -2
BITMAP
0000
7F00
0800
FF80
4900
9480
2A00
C980
2A00
D980
0000
ENDCHAR
STARTCHAR 0x3551
ENCODING 21364
SWIDTH 960 0
DWIDTH 10 0
BBX 10 11 0 -2
BITMAP
2000
2780
FC80
2480
2480
FC80
4480
8C80
F580
0400
0000
ENDCHAR
STARTCHAR 0x3552
ENCODING 23458
SWIDTH 960 0
DWIDTH 10 0
BBX 10 11 0 -2
BITMAP
0800
0800
FF80
9280
A280
5400
1C00
E380
2200
3E00
0000
ENDCHAR
STARTCHAR 0x3553
ENCODING 33050
SWIDTH 960 0
DWIDTH 10 0
BBX 10 11 0 -2
BITMAP
0800
EB80
BE80
EA80
AA80
BE80
EA80
B280
BF80
A200
0000
ENDCHAR
STARTCHAR 0x3554
ENCODING 34384
SWIDTH 960 0
DWIDTH 10 0
BBX 10 11 0 -2
BITMAP
0800
0F00
0800
7F80
4400
5F80
5000
BF80
9000
1F80
0000
ENDCHAR
STARTCHAR 0x3555
ENCODING 36870
SWIDTH 960 0
DWIDTH 10 0
BBX 10 11 0 -2
BITMAP
0900
8A00
4000
1F80
0200
CA80
4F80
4200
A000
9F80
0000
ENDCHAR
STARTCHAR 0x3556
ENCODING 19992
SWIDTH 960 0
DWIDTH 10 0
BBX 10 11 0 -2
BITMAP
0000
0600
3800
2000
3F00
2200
2200
2200
2200
FF80
0000
ENDCHAR
STARTCHAR 0x3557
ENCODING 20037
SWIDTH 960 0
DWIDTH 10 0
BBX 10 11 0 -2
BITMAP
1000
1000
1F00
1100
2100
4200
0400
0A00
3100
C080
0000
ENDCHAR
STARTCHAR 0x3558
ENCODING 20167
SWIDTH 960 0
DWIDTH 10 0
BBX 10 11 0 -2
BITMAP
0400
2400
2400
3F80
4480
4480
4880
4880
5080
50C0
0000
ENDCHAR
STARTCHAR 0x3559
ENCODING 20241
SWIDTH 960 0
DWIDTH 10 0
BBX 10 11 0 -2
BITMAP
0200
2200
2200
5F80
C200
4600
4B00
5280
4200
4200
0000
ENDCHAR
STARTCHAR 0x355A
ENCODING 21450
SWIDTH 960 0
DWIDTH 10 0
BBX 10 11 0 -2
BITMAP
0000
7F00
1100
1200
2380
2880
4500
4200
0D00
7080
0000
ENDCHAR
STARTCHAR 0x355B
ENCODING 21560
SWIDTH 960 0
DWIDTH 10 0
BBX 10 11 0 -2
BITMAP
0000
1F80
E900
AA00
AB80
A880
B480
A300
E500
1880
0000
ENDCHAR
STARTCHAR 0x355C
ENCODING 23470
SWIDTH 960 0
DWIDTH 10 0
BBX 10 11 0 -2
BITMAP
0800
0800
FF80
A280
BE80
1000
7F00
4100
4100
7F00
0000
ENDCHAR
STARTCHAR 0x355D
ENCODING 24339
SWIDTH 960 0
DWIDTH 10 0
BBX 10 11 0 -2
BITMAP
0000
3F00
0100
0100
3F00
2000
3F80
4080
4080
0300
0000
ENDCHAR
STARTCHAR 0x355E
ENCODING 24613
SWIDTH 960 0
DWIDTH 10 0
BBX 10 11 0 -2
BITMAP
0000
3E00
4400
BF00
0100
7F00
0100
7E00
A100
BE80
0000
ENDCHAR
STARTCHAR 0x355F
ENCODING 25937
SWIDTH 960 0
DWIDTH 10 0
BBX 10 11 0 -2
BITMAP
2200
2A00
2B80
FC80
2280
AA80
B100
2100
6A80
A480
0000
ENDCHAR
STARTCHAR 0x3560
ENCODING 26429
SWIDTH 960 0
DWIDTH 10 0
BBX 10 11 0 -2
BITMAP
0000
2F80
2400
F400
2780
6480
7480
A880
A880
2300
0000
ENDCHAR
STARTCHAR 0x3561
ENCODING 27714
SWIDTH 960 0
DWIDTH 10 0
BBX 10 11 0 -2
BITMAP
0800
0880
FF80
0800
4880
2D00
1A00
2900
C880
1800
0000
ENDCHAR
STARTCHAR 0x3562
ENCODING 27762
SWIDTH 960 0
DWIDTH 10 0
BBX 10 11 0 -2
BITMAP
0000
9F80
4900
0A00
8B80
4880
1480
1300
4500
9880
0000
ENDCHAR
STARTCHAR 0x3563
ENCODING 27875
SWIDTH 960 0
DWIDTH 10 0
BBX 10 11 0 -2
BITMAP
0400
8400
5F80
0000
8900
4900
0900
0A00
4200
9F80
0000
ENDCHAR
STARTCHAR 0x3564
ENCODING 28792
SWIDTH 960 0
DWIDTH 10 0
BBX 10 11 0 -2
BITMAP
0000
3F00
C200
1C00
E380
0800
4880
8900
3600
C180
0000
ENDCHAR
STARTCHAR 0x3565
ENCODING 29699
SWIDTH 960 0
DWIDTH 10 0
BBX 10 11 0 -2
BITMAP
0200
0280
FF80
4200
5280
EB00
4200
4B00
F280
0600
0000
ENDCHAR
STARTCHAR 0x3566
ENCODING 31350
SWIDTH 960 0
DWIDTH 10 0
BBX 10 11 0 -2
BITMAP
0800
0800
FF80
9480
1400
6700
0800
7E00
1280
E380
0000
ENDCHAR
STARTCHAR 0x3567
ENCODING 31406
SWIDTH 960 0
DWIDTH 10 0
BBX 10 11 0 -2
BITMAP
0800
0800
FF80
9480
2280
F780
9400
FF80
5080
B300
0000
ENDCHAR
STARTCHAR 0x3568
ENCODING 31496
SWIDTH 960 0
DWIDTH 10 0
BBX 10 11 0 -2
BITMAP
0400
4400
7780
A900
7F80
2200
2780
5100
8E00
B180
0000
ENDCHAR
STARTCHAR 0x3569
ENCODING 32026
SWIDTH 960 0
DWIDTH 10 0
BBX 10 11 0 -2
BITMAP
0000
5F80
8900
EA00
2B80
4880
F480
2300
A500
B880
0000
ENDCHAR
STARTCHAR 0x356A
ENCODING 31998
SWIDTH 960 0
DWIDTH 10 0
BBX 10 11 0 -2
BITMAP
0000
4100
8900
E900
2900
4900
E980
2F00
B900
A100
0000
ENDCHAR
STARTCHAR 0x356B
ENCODING 32102
SWIDTH 960 0
DWIDTH 10 0
BBX 10 11 0 -2
BITMAP
0000
4700
8880
F000
2F80
4000
FF80
2880
A880
AF80
0000
ENDCHAR
STARTCHAR 0x356C
ENCODING 26087
SWIDTH 960 0
DWIDTH 10 0
BBX 10 11 0 -2
BITMAP
0000
5F80
5080
5080
5080
5F80
5080
5080
5080
5F80
0000
ENDCHAR
STARTCHAR 0x356D
ENCODING 29275
SWIDTH 960 0
DWIDTH 10 0
BBX 10 11 0 -2
BITMAP
0800
4800
7F00
8800
8800
0800
FF80
0800
0800
0800
0000
ENDCHAR
STARTCHAR 0x356E
ENCODING 21435
SWIDTH 960 0
DWIDTH 10 0
BBX 10 11 0 -2
BITMAP
0800
0800
7F00
0800
0800
FF80
1200
2200
4500
7900
0000
ENDCHAR
STARTCHAR 0x356F
ENCODING 23621
SWIDTH 960 0
DWIDTH 10 0
BBX 10 11 0 -2
BITMAP
0000
7F80
4080
7F80
4400
7F80
4400
9F80
9080
1F80
0000
ENDCHAR
STARTCHAR 0x3570
ENCODING 24040
SWIDTH 960 0
DWIDTH 10 0
BBX 10 11 0 -2
BITMAP
0000
7F80
4000
7F00
4100
4100
7F00
4000
4000
7F80
0000
ENDCHAR
STARTCHAR 0x3571
ENCODING 25298
SWIDTH 960 0
DWIDTH 10 0
BBX 10 11 0 -2
BITMAP
0000
4F80
4800
FF80
4880
4880
6F80
C800
4800
CF80
0000
ENDCHAR
STARTCHAR 0x3572
ENCODING 25312
SWIDTH 960 0
DWIDTH 10 0
BBX 10 11 0 -2
BITMAP
1000
5700
5D00
D500
6500
5500
D500
4980
4C00
F380
0000
ENDCHAR
STARTCHAR 0x3573
ENCODING 25369
SWIDTH 960 0
DWIDTH 10 0
BBX 10 11 0 -2
BITMAP
1100
4A00
2400
FF80
2900
7E80
8800
FF80
0800
1800
0000
ENDCHAR
STARTCHAR 0x3574
ENCODING 28192
SWIDTH 960 0
DWIDTH 10 0
BBX 10 11 0 -2
BITMAP
0000
4F80
2800
8F80
5880
2F80
4800
FF80
2900
C880
0000
ENDCHAR
STARTCHAR 0x3575
ENCODING 34394
SWIDTH 960 0
DWIDTH 10 0
BBX 10 11 0 -2
BITMAP
0E00
0800
7F80
4880
7F00
4800
4F80
B280
9200
7F80
0000
ENDCHAR
STARTCHAR 0x3576
ENCODING 35377
SWIDTH 960 0
DWIDTH 10 0
BBX 10 11 0 -2
BITMAP
0800
E800
0F80
F200
0200
E200
1F80
E200
A200
E200
0000
ENDCHAR
STARTCHAR 0x3577
ENCODING 36317
SWIDTH 960 0
DWIDTH 10 0
BBX 10 11 0 -2
BITMAP
0000
F780
9400
9780
F480
2480
3F80
A400
A400
FF80
0000
ENDCHAR
STARTCHAR 0x3578
ENCODING 37624
SWIDTH 960 0
DWIDTH 10 0
BBX 10 11 0 -2
BITMAP
0000
6F80
8880
FF80
2A00
EF80
3200
AF80
2880
FF80
0000
ENDCHAR
STARTCHAR 0x3579
ENCODING 28417
SWIDTH 960 0
DWIDTH 10 0
BBX 10 11 0 -2
BITMAP
0000
8F00
5200
3F80
9280
5F80
1280
1F80
4900
A480
0000
ENDCHAR
STARTCHAR 0x357A
ENCODING 31142
SWIDTH 960 0
DWIDTH 10 0
BBX 10 11 0 -2
BITMAP
1000
5F80
AA80
5E80
CA80
7F80
0000
FF80
4900
9880
0000
ENDCHAR
STARTCHAR 0x357B
ENCODING 39770
SWIDTH 960 0
DWIDTH 10 0
BBX 10 11 0 -2
BITMAP
0000
3E00
4400
FF00
4900
7F00
4900
7F00
4900
A480
0000
ENDCHAR
STARTCHAR 0x357C
ENCODING 20136
SWIDTH 960 0
DWIDTH 10 0
BBX 10 11 0 -2
BITMAP
0800
0800
FF80
2200
3E00
0000
FF80
0400
0800
1800
0000
ENDCHAR
STARTCHAR 0x357D
ENCODING 20139
SWIDTH 960 0
DWIDTH 10 0
BBX 10 11 0 -2
BITMAP
0800
0800
FF80
2200
2200
7F00
0400
FF80
0800
1800
0000
ENDCHAR
STARTCHAR 0x357E
ENCODING 20140
SWIDTH 960 0
DWIDTH 10 0
BBX 10 11 0 -2
BITMAP
0800
0800
FF80
0000
7F00
4100
7F00
0800
4900
9880
0000
ENDCHAR
STARTCHAR 0x3621
ENCODING 20379
SWIDTH 960 0
DWIDTH 10 0
BBX 10 11 0 -2
BITMAP
0900
2900
2900
5F80
C900
4900
7F80
4000
4900
5080
0000
ENDCHAR
STARTCHAR 0x3622
ENCODING 20384
SWIDTH 960 0
DWIDTH 10 0
BBX 10 11 0 -2
BITMAP
0200
2200
3F80
5280
CB00
4200
7F80
4200
4500
5880
0000
ENDCHAR
STARTCHAR 0x3623
ENCODING 20689
SWIDTH 960 0
DWIDTH 10 0
BBX 10 11 0 -2
BITMAP
0000
3F80
2400
5F80
C900
5680
6000
5F80
5680
5180
0000
ENDCHAR
STARTCHAR 0x3624
ENCODING 20807
SWIDTH 960 0
DWIDTH 10 0
BBX 10 11 0 -2
BITMAP
0000
5500
4900
5500
6100
4100
7F00
1400
2480
C780
0000
ENDCHAR
STARTCHAR 0x3625
ENCODING 31478
SWIDTH 960 0
DWIDTH 10 0
BBX 10 11 0 -2
BITMAP
2200
2200
F780
5500
FF80
9480
F780
6600
AA80
BB80
0000
ENDCHAR
STARTCHAR 0x3626
ENCODING 20849
SWIDTH 960 0
DWIDTH 10 0
BBX 10 11 0 -2
BITMAP
1200
1200
1200
FF80
1200
1200
FF80
0000
2100
C080
0000
ENDCHAR
STARTCHAR 0x3627
ENCODING 20982
SWIDTH 960 0
DWIDTH 10 0
BBX 10 11 0 -2
BITMAP
0000
8080
A280
9480
8880
9480
A280
8080
8080
FF80
0000
ENDCHAR
STARTCHAR 0x3628
ENCODING 21332
SWIDTH 960 0
DWIDTH 10 0
BBX 10 11 0 -2
BITMAP
0400
4400
5F80
4480
E480
4900
7F80
5480
5480
6D80
0000
ENDCHAR
STARTCHAR 0x3629
ENCODING 21281
SWIDTH 960 0
DWIDTH 10 0
BBX 10 11 0 -2
BITMAP
0000
FF80
8000
BF80
8400
9F00
8400
BF80
8000
FF80
0000
ENDCHAR
STARTCHAR 0x362A
ENCODING 21375
SWIDTH 960 0
DWIDTH 10 0
BBX 10 11 0 -2
BITMAP
0000
FB80
AA80
BA80
AA80
BA80
A280
EA80
3B80
6200
0000
ENDCHAR
STARTCHAR 0x362B
ENCODING 21483
SWIDTH 960 0
DWIDTH 10 0
BBX 10 11 0 -2
BITMAP
0000
0100
E900
A900
A900
A900
A980
AF00
F900
0100
0000
ENDCHAR
STARTCHAR 0x362C
ENCODING 21932
SWIDTH 960 0
DWIDTH 10 0
BBX 10 11 0 -2
BITMAP
0000
7F00
0800
FF80
2200
5D00
8080
7F00
5500
5D00
0000
ENDCHAR
STARTCHAR 0x362D
ENCODING 22659
SWIDTH 960 0
DWIDTH 10 0
BBX 10 11 0 -2
BITMAP
0400
4400
5F80
E900
4900
5F80
5100
5F00
CA80
3380
0000
ENDCHAR
STARTCHAR 0x362E
ENCODING 23777
SWIDTH 960 0
DWIDTH 10 0
BBX 10 11 0 -2
BITMAP
0200
2200
3F80
B280
AB00
A200
BF80
A200
E500
1880
0000
ENDCHAR
STARTCHAR 0x362F
ENCODING 24375
SWIDTH 960 0
DWIDTH 10 0
BBX 10 11 0 -2
BITMAP
0200
E480
2F80
E200
8F80
8A80
EF80
2200
2280
CF80
0000
ENDCHAR
STARTCHAR 0x3630
ENCODING 24394
SWIDTH 960 0
DWIDTH 10 0
BBX 10 11 0 -2
BITMAP
0000
FF80
2A80
EF80
8000
9F80
EA80
2F80
2A80
DF80
0000
ENDCHAR
STARTCHAR 0x3631
ENCODING 24623
SWIDTH 960 0
DWIDTH 10 0
BBX 10 11 0 -2
BITMAP
0200
2200
3F80
A200
A200
BF80
A400
A400
2880
2F80
0000
ENDCHAR
STARTCHAR 0x3632
ENCODING 24656
SWIDTH 960 0
DWIDTH 10 0
BBX 10 11 0 -2
BITMAP
0000
EF00
4900
4D00
4B00
F180
0800
2500
A080
9E00
0000
ENDCHAR
STARTCHAR 0x3633
ENCODING 24685
SWIDTH 960 0
DWIDTH 10 0
BBX 10 11 0 -2
BITMAP
2200
2200
7F00
2200
FF80
2900
C880
2D00
4A80
9900
0000
ENDCHAR
STARTCHAR 0x3634
ENCODING 25375
SWIDTH 960 0
DWIDTH 10 0
BBX 10 11 0 -2
BITMAP
0200
4200
7F80
D280
4B00
4200
7F80
C200
4500
D880
0000
ENDCHAR
STARTCHAR 0x3635
ENCODING 25945
SWIDTH 960 0
DWIDTH 10 0
BBX 10 11 0 -2
BITMAP
2400
2400
FF80
2480
FA80
4A80
9100
FD00
2280
6C80
0000
ENDCHAR
STARTCHAR 0x3636
ENCODING 27211
SWIDTH 960 0
DWIDTH 10 0
BBX 10 11 0 -2
BITMAP
0000
3F80
2400
FF80
2900
7680
6000
BF80
AA80
2E80
0000
ENDCHAR
STARTCHAR 0x3637
ENCODING 27841
SWIDTH 960 0
DWIDTH 10 0
BBX 10 11 0 -2
BITMAP
0000
9F80
5080
1080
9080
5F80
0A00
0A00
5280
9380
0000
ENDCHAR
STARTCHAR 0x3638
ENCODING 29378
SWIDTH 960 0
DWIDTH 10 0
BBX 10 11 0 -2
BITMAP
0000
2F80
A200
4200
A200
2F80
6200
A200
2200
CF80
0000
ENDCHAR
STARTCHAR 0x3639
ENCODING 29421
SWIDTH 960 0
DWIDTH 10 0
BBX 10 11 0 -2
BITMAP
0200
2200
BF80
5280
AB00
2200
7F80
A200
2500
D880
0000
ENDCHAR
STARTCHAR 0x363A
ENCODING 30703
SWIDTH 960 0
DWIDTH 10 0
BBX 10 11 0 -2
BITMAP
0000
9F80
E400
5F80
E900
5680
6000
BF80
AA80
2E80
0000
ENDCHAR
STARTCHAR 0x363B
ENCODING 33016
SWIDTH 960 0
DWIDTH 10 0
BBX 10 11 0 -2
BITMAP
0800
E800
AF80
F480
A880
AA80
F680
A280
BE80
A180
0000
ENDCHAR
STARTCHAR 0x363C
ENCODING 33029
SWIDTH 960 0
DWIDTH 10 0
BBX 10 11 0 -2
BITMAP
0800
0800
7F00
0900
F780
5280
FF80
4100
7F00
4100
0000
ENDCHAR
STARTCHAR 0x363D
ENCODING 33288
SWIDTH 960 0
DWIDTH 10 0
BBX 10 11 0 -2
BITMAP
0000
DD80
9480
DD80
9480
9480
FF80
0000
4100
8080
0000
ENDCHAR
STARTCHAR 0x363E
ENCODING 34126
SWIDTH 960 0
DWIDTH 10 0
BBX 10 11 0 -2
BITMAP
2200
2200
FF80
0800
FF80
5500
9480
FF80
9480
9D80
0000
ENDCHAR
STARTCHAR 0x363F
ENCODING 37111
SWIDTH 960 0
DWIDTH 10 0
BBX 10 11 0 -2
BITMAP
0000
5F80
9280
FE80
5300
9E80
F280
3680
5B00
4200
0000
ENDCHAR
STARTCHAR 0x3640
ENCODING 37857
SWIDTH 960 0
DWIDTH 10 0
BBX 10 11 0 -2
BITMAP
0200
7200
8F80
F500
2500
FF80
2880
AF80
2500
F980
0000
ENDCHAR
STARTCHAR 0x3641
ENCODING 38911
SWIDTH 960 0
DWIDTH 10 0
BBX 10 11 0 -2
BITMAP
0000
5F80
9280
FF00
5280
FF80
2200
FF80
4100
7F00
0000
ENDCHAR
STARTCHAR 0x3642
ENCODING 39255
SWIDTH 960 0
DWIDTH 10 0
BBX 10 11 0 -2
BITMAP
0000
5F80
9280
FF00
5280
FF80
6300
BE80
2200
F980
0000
ENDCHAR
STARTCHAR 0x3643
ENCODING 39514
SWIDTH 960 0
DWIDTH 10 0
BBX 10 11 0 -2
BITMAP
0400
A400
FF80
AA80
EB00
7E80
4800
7F80
0080
AB00
0000
ENDCHAR
STARTCHAR 0x3644
ENCODING 20208
SWIDTH 960 0
DWIDTH 10 0
BBX 10 11 0 -2
BITMAP
0000
3B80
5280
D280
5280
5280
5280
5680
7B80
4200
0000
ENDCHAR
STARTCHAR 0x3645
ENCODING 20957
SWIDTH 960 0
DWIDTH 10 0
BBX 10 11 0 -2
BITMAP
0000
2780
BC80
6100
3F80
2A80
7E00
4B80
9A00
AF80
0000
ENDCHAR
STARTCHAR 0x3646
ENCODING 23597
SWIDTH 960 0
DWIDTH 10 0
BBX 10 11 0 -2
BITMAP
0800
0800
FF80
0800
FF80
2200
FF80
1400
2480
C780
0000
ENDCHAR
STARTCHAR 0x3647
ENCODING 26241
SWIDTH 960 0
DWIDTH 10 0
BBX 10 11 0 -2
BITMAP
0400
0400
FF80
A400
BF80
E900
BF80
A600
EA80
3380
0000
ENDCHAR
STARTCHAR 0x3648
ENCODING 26989
SWIDTH 960 0
DWIDTH 10 0
BBX 10 11 0 -2
BITMAP
1400
5500
FF80
2200
7F00
0800
FF80
1800
2A00
C980
0000
ENDCHAR
STARTCHAR 0x3649
ENCODING 23616
SWIDTH 960 0
DWIDTH 10 0
BBX 10 11 0 -2
BITMAP
0000
7F00
4100
7F00
4000
7F80
5480
5480
9C80
8300
0000
ENDCHAR
STARTCHAR 0x364A
ENCODING 26354
SWIDTH 960 0
DWIDTH 10 0
BBX 10 11 0 -2
BITMAP
2400
2400
2400
FF80
A480
A480
FF80
A480
A480
FF80
0000
ENDCHAR
STARTCHAR 0x364B
ENCODING 26997
SWIDTH 960 0
DWIDTH 10 0
BBX 10 11 0 -2
BITMAP
0000
3F80
2400
FD80
2E80
6A80
6B00
BA80
A400
3F80
0000
ENDCHAR
STARTCHAR 0x364C
ENCODING 29577
SWIDTH 960 0
DWIDTH 10 0
BBX 10 11 0 -2
BITMAP
0000
FF80
0800
0800
0800
7F00
0800
0A00
0900
FF80
0000
ENDCHAR
STARTCHAR 0x364D
ENCODING 26704
SWIDTH 960 0
DWIDTH 10 0
BBX 10 11 0 -2
BITMAP
0000
2F80
2880
FE80
2880
6E80
6A80
BA80
AE80
2980
0000
ENDCHAR
STARTCHAR 0x364E
ENCODING 31873
SWIDTH 960 0
DWIDTH 10 0
BBX 10 11 0 -2
BITMAP
0000
2F80
B200
A200
2200
FF80
2200
7200
A200
2200
0000
ENDCHAR
STARTCHAR 0x364F
ENCODING 20677
SWIDTH 960 0
DWIDTH 10 0
BBX 10 11 0 -2
BITMAP
0500
3F80
2500
5F80
D280
5F80
4200
5F80
4200
5F80
0000
ENDCHAR
STARTCHAR 0x3650
ENCODING 21220
SWIDTH 960 0
DWIDTH 10 0
BBX 10 11 0 -2
BITMAP
5200
FA00
5200
FF80
AA80
FA80
2280
FC80
2080
FB00
0000
ENDCHAR
STARTCHAR 0x3651
ENCODING 22343
SWIDTH 960 0
DWIDTH 10 0
BBX 10 11 0 -2
BITMAP
0800
4800
4F80
F080
4E80
4080
4380
4C80
E080
0300
0000
ENDCHAR
STARTCHAR 0x3652
ENCODING 24062
SWIDTH 960 0
DWIDTH 10 0
BBX 10 11 0 -2
BITMAP
0800
0800
FF80
8880
8880
8880
8880
8980
0800
0800
0000
ENDCHAR
STARTCHAR 0x3653
ENCODING 37670
SWIDTH 960 0
DWIDTH 10 0
BBX 10 11 0 -2
BITMAP
0200
7400
8F80
F880
2F80
F880
2F80
A200
2F80
FA80
0000
ENDCHAR
STARTCHAR 0x3654
ENCODING 26020
SWIDTH 960 0
DWIDTH 10 0
BBX 10 11 0 -2
BITMAP
0000
0300
7C00
4000
4000
7F80
4400
8400
8400
0400
0000
ENDCHAR
STARTCHAR 0x3655
ENCODING 27427
SWIDTH 960 0
DWIDTH 10 0
BBX 10 11 0 -2
BITMAP
0800
3800
CF80
8A80
F280
A200
A200
A200
A500
3880
0000
ENDCHAR
STARTCHAR 0x3656
ENCODING 27453
SWIDTH 960 0
DWIDTH 10 0
BBX 10 11 0 -2
BITMAP
0400
7400
8780
FA80
2280
FA00
2200
B200
2500
F880
0000
ENDCHAR
STARTCHAR 0x3657
ENCODING 29748
SWIDTH 960 0
DWIDTH 10 0
BBX 10 11 0 -2
BITMAP
0000
F780
2200
F780
2200
FF80
4100
BE80
0200
1C00
0000
ENDCHAR
STARTCHAR 0x3658
ENCODING 31105
SWIDTH 960 0
DWIDTH 10 0
BBX 10 11 0 -2
BITMAP
2200
2200
FF80
2600
6B00
BE80
0000
FF80
4900
9880
0000
ENDCHAR
STARTCHAR 0x3659
ENCODING 31165
SWIDTH 960 0
DWIDTH 10 0
BBX 10 11 0 -2
BITMAP
0000
3E00
4900
FF80
1400
4900
5500
FF80
9280
BD80
0000
ENDCHAR
STARTCHAR 0x365A
ENCODING 31563
SWIDTH 960 0
DWIDTH 10 0
BBX 10 11 0 -2
BITMAP
0400
4400
7780
A900
F400
9F80
F480
9480
F880
9300
0000
ENDCHAR
STARTCHAR 0x365B
ENCODING 32202
SWIDTH 960 0
DWIDTH 10 0
BBX 10 11 0 -2
BITMAP
0000
F780
A080
F500
9300
F480
A900
FF80
2A00
C980
0000
ENDCHAR
STARTCHAR 0x365C
ENCODING 33465
SWIDTH 960 0
DWIDTH 10 0
BBX 10 11 0 -2
BITMAP
2200
2200
FF80
2200
7F00
4000
7F80
4400
8400
8400
0000
ENDCHAR
STARTCHAR 0x365D
ENCODING 33740
SWIDTH 960 0
DWIDTH 10 0
BBX 10 11 0 -2
BITMAP
2200
2200
FF80
2200
FF80
8880
BE80
9880
AA80
FF80
0000
ENDCHAR
STARTCHAR 0x365E
ENCODING 34943
SWIDTH 960 0
DWIDTH 10 0
BBX 10 11 0 -2
BITMAP
0000
4700
4880
F000
1F80
2000
4F80
E080
5100
4600
0000
ENDCHAR
STARTCHAR 0x365F
ENCODING 35167
SWIDTH 960 0
DWIDTH 10 0
BBX 10 11 0 -2
BITMAP
0900
4900
5F80
EB00
3980
2F00
4000
DF80
4A00
5280
0000
ENDCHAR
STARTCHAR 0x3660
ENCODING 35641
SWIDTH 960 0
DWIDTH 10 0
BBX 10 11 0 -2
BITMAP
0500
FF80
0500
EF80
0A80
EF80
0200
EF80
A200
EF80
0000
ENDCHAR
STARTCHAR 0x3661
ENCODING 36817
SWIDTH 960 0
DWIDTH 10 0
BBX 10 11 0 -2
BITMAP
0000
4300
2C00
0800
0F80
E900
2900
2100
5000
8F80
0000
ENDCHAR
STARTCHAR 0x3662
ENCODING 37329
SWIDTH 960 0
DWIDTH 10 0
BBX 10 11 0 -2
BITMAP
0000
1C00
2200
7F00
8880
7F00
0800
4900
2A00
FF80
0000
ENDCHAR
STARTCHAR 0x3663
ENCODING 21535
SWIDTH 960 0
DWIDTH 10 0
BBX 10 11 0 -2
BITMAP
0000
0700
E880
B000
AF80
A000
AF80
A080
E100
0600
0000
ENDCHAR
STARTCHAR 0x3664
ENCODING 37504
SWIDTH 960 0
DWIDTH 10 0
BBX 10 11 0 -2
BITMAP
0000
6F80
8880
FF80
2880
FF80
2A00
AA80
2900
FC80
0000
ENDCHAR
STARTCHAR 0x3665
ENCODING 20061
SWIDTH 960 0
DWIDTH 10 0
BBX 10 11 0 -2
BITMAP
1000
1000
1000
FE00
1200
1200
1280
2280
2280
C380
0000
ENDCHAR
STARTCHAR 0x3666
ENCODING 20534
SWIDTH 960 0
DWIDTH 10 0
BBX 10 11 0 -2
BITMAP
0000
2F80
2880
4F80
C880
4F80
4000
5F80
4500
5880
0000
ENDCHAR
STARTCHAR 0x3667
ENCODING 21477
SWIDTH 960 0
DWIDTH 10 0
BBX 10 11 0 -2
BITMAP
2000
2000
3F80
4080
7C80
A480
A480
3C80
0100
0600
0000
ENDCHAR
STARTCHAR 0x3668
ENCODING 21306
SWIDTH 960 0
DWIDTH 10 0
BBX 10 11 0 -2
BITMAP
0000
FF80
8000
9100
8A00
8400
8A00
9100
8000
FF80
0000
ENDCHAR
STARTCHAR 0x3669
ENCODING 29399
SWIDTH 960 0
DWIDTH 10 0
BBX 10 11 0 -2
BITMAP
0800
2800
AF80
5080
AE80
2A80
6A80
AE80
2080
C300
0000
ENDCHAR
STARTCHAR 0x366A
ENCODING 29590
SWIDTH 960 0
DWIDTH 10 0
BBX 10 11 0 -2
BITMAP
0400
0400
E780
4880
4880
E100
4100
4200
E500
1880
0000
ENDCHAR
STARTCHAR 0x366B
ENCODING 30697
SWIDTH 960 0
DWIDTH 10 0
BBX 10 11 0 -2
BITMAP
0000
8F80
F800
AF80
2880
F880
2F80
2800
5800
8F80
0000
ENDCHAR
STARTCHAR 0x366C
ENCODING 33510
SWIDTH 960 0
DWIDTH 10 0
BBX 10 11 0 -2
BITMAP
2200
2200
FF80
2200
0800
FF80
0800
7F00
4100
7F00
0000
ENDCHAR
STARTCHAR 0x366D
ENCODING 36527
SWIDTH 960 0
DWIDTH 10 0
BBX 10 11 0 -2
BITMAP
2000
4780
F480
9680
F500
9D00
F680
5480
9400
B780
0000
ENDCHAR
STARTCHAR 0x366E
ENCODING 39366
SWIDTH 960 0
DWIDTH 10 0
BBX 10 11 0 -2
BITMAP
0000
F780
A480
F680
A500
A500
F680
1480
D400
3780
0000
ENDCHAR
STARTCHAR 0x366F
ENCODING 39368
SWIDTH 960 0
DWIDTH 10 0
BBX 10 11 0 -2
BITMAP
0000
F180
A600
F400
A780
A500
F500
1500
D500
3F80
0000
ENDCHAR
STARTCHAR 0x3670
ENCODING 39378
SWIDTH 960 0
DWIDTH 10 0
BBX 10 11 0 -2
BITMAP
0800
F800
AF80
F080
AE80
AA80
FA80
1E80
D080
3300
0000
ENDCHAR
STARTCHAR 0x3671
ENCODING 20855
SWIDTH 960 0
DWIDTH 10 0
BBX 10 11 0 -2
BITMAP
0000
3E00
2200
3E00
2200
3E00
0000
FF80
2200
C180
0000
ENDCHAR
STARTCHAR 0x3672
ENCODING 24858
SWIDTH 960 0
DWIDTH 10 0
BBX 10 11 0 -2
BITMAP
0000
7F00
4900
7F00
4900
FF80
8880
2E00
A100
9E80
0000
ENDCHAR
STARTCHAR 0x3673
ENCODING 34398
SWIDTH 960 0
DWIDTH 10 0
BBX 10 11 0 -2
BITMAP
0E00
0800
FF80
8A80
AA00
BF00
8100
FF80
9200
6180
0000
ENDCHAR
STARTCHAR 0x3674
ENCODING 21936
SWIDTH 960 0
DWIDTH 10 0
BBX 10 11 0 -2
BITMAP
0000
0700
E880
BF80
A880
AF80
A880
AF80
E900
0C80
0000
ENDCHAR
STARTCHAR 0x3675
ENCODING 31354
SWIDTH 960 0
DWIDTH 10 0
BBX 10 11 0 -2
BITMAP
0800
0800
FF80
9480
1400
6700
0000
7F00
0800
FF80
0000
ENDCHAR
STARTCHAR 0x3676
ENCODING 20598
SWIDTH 960 0
DWIDTH 10 0
BBX 10 11 0 -2
BITMAP
0000
1F80
3280
5F80
D280
5F80
4200
5F80
5480
5680
0000
ENDCHAR
STARTCHAR 0x3677
ENCODING 23507
SWIDTH 960 0
DWIDTH 10 0
BBX 10 11 0 -2
BITMAP
0800
0800
FF80
AA80
3E00
2A00
FF80
8880
BE80
8180
0000
ENDCHAR
STARTCHAR 0x3678
ENCODING 36935
SWIDTH 960 0
DWIDTH 10 0
BBX 10 11 0 -2
BITMAP
0000
9F00
5500
1F00
1500
DF80
5480
5680
A000
9F80
0000
ENDCHAR
STARTCHAR 0x3679
ENCODING 38533
SWIDTH 960 0
DWIDTH 10 0
BBX 10 11 0 -2
BITMAP
0000
EF80
AA80
AF80
CA80
AF80
A200
DF80
9480
9680
0000
ENDCHAR
STARTCHAR 0x367A
ENCODING 20018
SWIDTH 960 0
DWIDTH 10 0
BBX 10 11 0 -2
BITMAP
0800
0800
7F00
4900
7F00
0800
FF80
8880
FF80
0800
0000
ENDCHAR
STARTCHAR 0x367B
ENCODING 27355
SWIDTH 960 0
DWIDTH 10 0
BBX 10 11 0 -2
BITMAP
0200
5200
5F80
E900
5F80
5280
DE80
F280
5780
5A00
0000
ENDCHAR
STARTCHAR 0x367C
ENCODING 37351
SWIDTH 960 0
DWIDTH 10 0
BBX 10 11 0 -2
BITMAP
0000
6880
8A80
FA80
2A80
FA80
2A80
AA80
2880
F080
0000
ENDCHAR
STARTCHAR 0x367D
ENCODING 23633
SWIDTH 960 0
DWIDTH 10 0
BBX 10 11 0 -2
BITMAP
0000
7F80
4080
7F80
6480
5500
7F80
A080
BF80
2080
0000
ENDCHAR
STARTCHAR 0x367E
ENCODING 23624
SWIDTH 960 0
DWIDTH 10 0
BBX 10 11 0 -2
BITMAP
0000
7F80
4080
7F80
4400
5480
5F80
8400
A480
3F80
0000
ENDCHAR
STARTCHAR 0x3721
ENCODING 25496
SWIDTH 960 0
DWIDTH 10 0
BBX 10 11 0 -2
BITMAP
0000
5F80
5080
FF80
5200
5A80
6F80
C200
5280
DF80
0000
ENDCHAR
STARTCHAR 0x3722
ENCODING 31391
SWIDTH 960 0
DWIDTH 10 0
BBX 10 11 0 -2
BITMAP
0800
0800
FF80
9480
A500
7F80
5500
9F00
A480
3F80
0000
ENDCHAR
STARTCHAR 0x3723
ENCODING 27795
SWIDTH 960 0
DWIDTH 10 0
BBX 10 11 0 -2
BITMAP
0800
0800
ED80
2A00
4900
FF80
4100
7F00
4100
7F00
0000
ENDCHAR
STARTCHAR 0x3724
ENCODING 38772
SWIDTH 960 0
DWIDTH 10 0
BBX 10 11 0 -2
BITMAP
0200
5200
FE00
4A80
FB00
AA00
FA00
2A80
FA80
2B80
0000
ENDCHAR
STARTCHAR 0x3725
ENCODING 36705
SWIDTH 960 0
DWIDTH 10 0
BBX 10 11 0 -2
BITMAP
0800
5D00
AA80
5D00
AA80
5D00
C980
7F00
4100
7F00
0000
ENDCHAR
STARTCHAR 0x3726
ENCODING 31402
SWIDTH 960 0
DWIDTH 10 0
BBX 10 11 0 -2
BITMAP
0800
0800
FF80
9480
2400
BF80
4400
1F00
4400
BF80
0000
ENDCHAR
STARTCHAR 0x3727
ENCODING 29066
SWIDTH 960 0
DWIDTH 10 0
BBX 10 11 0 -2
BITMAP
2000
4480
9700
F400
9780
F400
9780
0000
5500
8A80
0000
ENDCHAR
STARTCHAR 0x3728
ENCODING 38536
SWIDTH 960 0
DWIDTH 10 0
BBX 10 11 0 -2
BITMAP
0000
EF80
AA80
AF80
CA80
AF80
A000
DF80
8900
9C80
0000
ENDCHAR
STARTCHAR 0x3729
ENCODING 31874
SWIDTH 960 0
DWIDTH 10 0
BBX 10 11 0 -2
BITMAP
0000
1F00
6200
0C00
3200
C980
2A00
FF80
2A00
C980
0000
ENDCHAR
STARTCHAR 0x372A
ENCODING 26647
SWIDTH 960 0
DWIDTH 10 0
BBX 10 11 0 -2
BITMAP
0000
FF80
1400
7F00
5500
7F00
0800
FF80
2A00
C980
0000
ENDCHAR
STARTCHAR 0x372B
ENCODING 32368
SWIDTH 960 0
DWIDTH 10 0
BBX 10 11 0 -2
BITMAP
0000
4F00
8900
FF80
5280
9F80
E200
3F80
AA00
B280
0000
ENDCHAR
STARTCHAR 0x372C
ENCODING 26705
SWIDTH 960 0
DWIDTH 10 0
BBX 10 11 0 -2
BITMAP
0000
7F00
2200
1C00
F780
5500
2A00
FF80
2900
C880
0000
ENDCHAR
STARTCHAR 0x372D
ENCODING 37740
SWIDTH 960 0
DWIDTH 10 0
BBX 10 11 0 -2
BITMAP
0200
7E00
8A80
EA80
5E80
EB00
4A00
DA00
4D00
F880
0000
ENDCHAR
STARTCHAR 0x372E
ENCODING 21234
SWIDTH 960 0
DWIDTH 10 0
BBX 10 11 0 -2
BITMAP
0200
FA00
2780
FA80
AA80
FC80
2080
FB00
0000
9480
0000
ENDCHAR
STARTCHAR 0x372F
ENCODING 21531
SWIDTH 960 0
DWIDTH 10 0
BBX 10 11 0 -2
BITMAP
0000
7F00
1100
FF80
1100
7F00
2000
7F00
A100
3F00
0000
ENDCHAR
STARTCHAR 0x3730
ENCODING 34219
SWIDTH 960 0
DWIDTH 10 0
BBX 10 11 0 -2
BITMAP
2200
2200
FF80
4900
7F00
0800
FF80
0000
5500
8A80
0000
ENDCHAR
STARTCHAR 0x3731
ENCODING 35347
SWIDTH 960 0
DWIDTH 10 0
BBX 10 11 0 -2
BITMAP
0000
E880
0A80
EA80
0A80
EA80
0A80
EA80
A880
F080
0000
ENDCHAR
ENDFONT
